<svg width="258" height="219" viewBox="0 0 258 219" fill="none" xmlns="http://www.w3.org/2000/svg">
<path d="M219.592 111.842V111.849V111.853V111.858V111.862V111.867V111.871V111.875V111.88V111.884V111.889V111.893V111.897V111.902V111.906V111.911V111.915V111.919V111.924V111.928V111.933V111.937V111.941V111.946V111.95V111.955V111.959V111.963V111.968V111.972V111.977V111.981V111.986V111.99V111.994V111.999V112.003V112.008V112.012V112.016V112.021V112.025V112.03V112.034V112.038V112.043V112.047V112.052V112.056V112.06V112.065V112.069V112.074V112.078V112.082V112.087V112.091V112.096V112.1V112.104V112.109V112.113V112.118V112.122V112.126V112.131V112.135V112.14V112.144V112.149V112.153V112.157V112.162V112.166V112.171V112.175V112.179V112.184V112.188V112.193V112.197V112.201V112.206V112.21V112.215V112.219V112.223V112.228V112.232V112.237V112.241V112.245V112.25V112.254V112.259V112.263V112.268V112.272V112.276V112.281V112.285V112.29V112.294V112.298V112.303V112.307V112.312V112.316V112.32V112.325V112.329V112.334V112.338V112.343V112.347V112.351V112.356V112.36V112.365V112.369V112.373V112.378V112.382V112.387V112.391V112.395V112.4V112.404V112.409V112.413V112.418V112.422V112.426V112.431V112.435V112.44V112.444V112.448V112.453V112.457V112.462V112.466V112.47V112.475V112.479V112.484V112.488V112.493V112.497V112.501V112.506V112.51V112.515V112.519V112.523V112.528V112.532V112.537V112.541V112.546V112.55V112.554V112.559V112.563V112.568V112.572V112.576V112.581V112.585V112.59V112.594V112.599V112.603V112.607V112.612V112.616V112.621V112.625V112.63V112.634V112.638V112.643V112.647V112.652V112.656V112.66V112.665V112.669V112.674V112.678V112.683V112.687V112.691V112.696V112.7V112.705V112.709V112.714V112.718V112.722V112.727V112.731V112.736V112.74V112.745V112.749V112.753V112.758V112.762V112.767V112.771V112.775V112.78V112.784V112.789V112.793V112.798V112.802V112.806V112.811V112.815V112.82V112.824V112.829V112.833V112.838V112.842V112.846V112.851V112.855V112.86V112.864V112.869V112.873V112.877V112.882V112.886V112.891V112.895V112.9V112.904V112.908V112.913V112.917V112.922V112.926V112.931V112.935V112.939V112.944V112.948V112.953V112.957V112.962V112.966V112.971V112.975V112.979V112.984V112.988V112.993V112.997V113.002V113.006V113.01V113.015V113.019V113.024V113.028V113.033V113.037V113.042V113.046V113.05V113.055V113.059V113.064V113.068V113.073V113.077V113.082V113.086V113.09V113.095V113.099V113.104V113.108V113.113V113.117V113.122V113.126V113.13V113.135V113.139V113.144V113.148V113.153V113.157V113.162V113.166V113.17V113.175V113.179V113.184V113.188V113.193V113.197V113.202V113.206V113.211V113.215V113.219V113.224V113.228V113.233V113.237V113.242V113.246V113.251V113.255V113.26V113.264V113.268V113.273V113.277V113.282V113.286V113.291V113.295V113.3V113.304V113.309V113.313V113.318V113.322V113.326V113.331V113.335V113.34V113.344V113.349V113.353V113.358V113.362V113.367V113.371V113.376V113.38V113.384V113.389V113.393V113.398V113.402V113.407V113.411V113.416V113.42V113.425V113.429V113.434V113.438V113.443V113.447V113.451V113.456V113.46V113.465V113.469V113.474V113.478V113.483V113.487V113.492V113.496V113.501V113.505V113.51V113.514V113.519V113.523V113.528V113.532V113.537V113.541V113.545V113.55V113.554V113.559V113.563V113.568V113.572V113.577V113.581V113.586V113.59V113.595V113.599V113.604V113.608V113.613V113.617V113.622V113.626V113.627H165.688C165.74 113.033 165.74 112.443 165.74 111.866V111.849C165.74 97.0841 159.884 82.9238 149.461 72.4832C139.038 62.0425 124.901 56.1769 110.16 56.1769C95.4195 56.1769 81.2825 62.0425 70.8594 72.4832C60.4363 82.9238 54.5808 97.0841 54.5808 111.849C54.5808 112.245 54.6161 112.637 54.6494 113.006L54.651 113.024C54.6696 113.23 54.6874 113.43 54.6999 113.627H0.614887V113.625V113.62V113.616V113.611V113.607V113.602V113.598V113.594V113.589V113.585V113.58V113.576V113.572V113.567V113.563V113.558V113.554V113.55V113.545V113.541V113.536V113.532V113.527V113.523V113.519V113.514V113.51V113.505V113.501V113.497V113.492V113.488V113.483V113.479V113.474V113.47V113.466V113.461V113.457V113.452V113.448V113.444V113.439V113.435V113.43V113.426V113.421V113.417V113.413V113.408V113.404V113.399V113.395V113.391V113.386V113.382V113.377V113.373V113.368V113.364V113.36V113.355V113.351V113.346V113.342V113.338V113.333V113.329V113.324V113.32V113.315V113.311V113.307V113.302V113.298V113.293V113.289V113.284V113.28V113.276V113.271V113.267V113.262V113.258V113.253V113.249V113.245V113.24V113.236V113.231V113.227V113.222V113.218V113.214V113.209V113.205V113.2V113.196V113.192V113.187V113.183V113.178V113.174V113.169V113.165V113.161V113.156V113.152V113.147V113.143V113.138V113.134V113.13V113.125V113.121V113.116V113.112V113.107V113.103V113.098V113.094V113.09V113.085V113.081L0.614887 113.076V113.072V113.067V113.063V113.059V113.054V113.05V113.045V113.041V113.036V113.032V113.028V113.023V113.019V113.014V113.01V113.005V113.001V112.996V112.992V112.988V112.983V112.979V112.974V112.97V112.965V112.961V112.957V112.952V112.948V112.943V112.939V112.934V112.93V112.925V112.921V112.917V112.912V112.908V112.903V112.899V112.894V112.89V112.885V112.881V112.877V112.872V112.868V112.863V112.859V112.854V112.85V112.845V112.841V112.837V112.832V112.828V112.823V112.819V112.814V112.81V112.805V112.801V112.796V112.792V112.788V112.783V112.779V112.774V112.77V112.765V112.761V112.756V112.752V112.748V112.743V112.739V112.734V112.73V112.725V112.721V112.716V112.712V112.707V112.703V112.698V112.694V112.69V112.685V112.681V112.676V112.672V112.667V112.663V112.658V112.654V112.649V112.645V112.641V112.636V112.632V112.627V112.623V112.618V112.614V112.609V112.605V112.6V112.596V112.591V112.587V112.582V112.578V112.574V112.569V112.565V112.56V112.556V112.551V112.547V112.542V112.538V112.533V112.529V112.524V112.52V112.515V112.511V112.506V112.502V112.498V112.493V112.489V112.484V112.48V112.475V112.471V112.466V112.462V112.457V112.453V112.448V112.444V112.439V112.435V112.43V112.426V112.421V112.417V112.412V112.408V112.404V112.399V112.395V112.39V112.386V112.381V112.377V112.372V112.368V112.363V112.359V112.354V112.35V112.345V112.341V112.336V112.332V112.327V112.323V112.318V112.314V112.309V112.305V112.3V112.296V112.291V112.287V112.282V112.278V112.273V112.269V112.264V112.26V112.255V112.251V112.246V112.242V112.237V112.233V112.228V112.224V112.219V112.215V112.21V112.206V112.201V112.197V112.192V112.188V112.183V112.179V112.174V112.17V112.165V112.161V112.156V112.152V112.147V112.143V112.138V112.134V112.129V112.125V112.12V112.116V112.111V112.107V112.102V112.098V112.093V112.089V112.084V112.08V112.075V112.071V112.066V112.062V112.057V112.053V112.048V112.044V112.039V112.035V112.03V112.026V112.021V112.017V112.012V112.007V112.003V111.998V111.994V111.989V111.985V111.98V111.976V111.971V111.967V111.962V111.958V111.953V111.949V111.944V111.94V111.935V111.931V111.926V111.921V111.917V111.912V111.908V111.903V111.899V111.894V111.89V111.885V111.881V111.876V111.872V111.867V111.863V111.858V111.853L0.614939 111.849L0.614836 111.842C0.406174 97.3065 3.08407 82.8746 8.49282 69.3852C13.9016 55.8957 21.9333 43.6179 32.121 33.2653C42.3087 22.9127 54.4491 14.6919 67.8366 9.08075C81.224 3.46962 95.5914 0.580078 110.104 0.580078C124.616 0.580078 138.983 3.46962 152.37 9.08075C165.758 14.6919 177.898 22.9127 188.086 33.2653C198.274 43.6179 206.305 55.8957 211.714 69.3852C217.123 82.8746 219.801 97.3065 219.592 111.842Z" stroke="#193F3F"/>
<path d="M258 87C258 104.334 254.586 121.499 247.952 137.514C241.318 153.529 231.595 168.081 219.338 180.338C207.081 192.595 192.529 202.318 176.514 208.952C160.499 215.586 143.334 219 126 219L126 87L258 87Z" fill="#70C1A0"/>
</svg>
