<svg width="290" height="191" viewBox="0 0 290 191" fill="none" xmlns="http://www.w3.org/2000/svg">
<path d="M11.7278 134.555C4.37899 152.297 0.565944 171.301 0.500867 190.501L147.5 190.501L147.5 43.5018C128.3 43.5669 109.296 47.38 91.5542 54.7287C73.6587 62.1413 57.3984 73.0061 43.7018 86.7027C30.0051 100.399 19.1404 116.66 11.7278 134.555Z" stroke="#70C1A0"/>
<path d="M193.9 31.5132C193.457 41.0587 190.61 50.3489 185.622 58.5256C180.634 66.7023 173.666 73.5018 165.362 78.2961C157.058 83.0905 147.685 85.725 138.11 85.9563C128.535 86.1876 119.066 84.0083 110.577 79.6197L56.9863 110.561C74.7537 127.879 97.7351 138.902 122.427 141.95C147.118 144.997 172.165 139.902 193.749 127.441C215.333 114.979 232.269 95.8356 241.976 72.9282C251.682 50.0209 253.626 24.6067 247.512 0.560539L193.9 31.5132Z" fill="#193F3F"/>
</svg>
