<svg width="223" height="192" viewBox="0 0 223 192" fill="none" xmlns="http://www.w3.org/2000/svg">
<circle cx="164.5" cy="58.5" r="58" stroke="#193F3F"/>
<path d="M55.1137 191.047C55.1137 190.272 54.9773 189.521 54.9773 188.769C54.9773 174.136 60.7803 160.103 71.1097 149.756C81.4391 139.41 95.4488 133.597 110.057 133.597C124.665 133.597 138.675 139.41 149.004 149.756C159.333 160.103 165.136 174.136 165.136 188.769C165.136 189.543 165.136 190.295 165.023 191.047H219.989C219.989 190.272 219.989 189.521 219.989 188.769C220.198 174.167 217.508 159.67 212.075 146.119C206.641 132.568 198.573 120.234 188.339 109.834C178.105 99.4346 165.909 91.1763 152.46 85.5395C139.012 79.9028 124.579 77 110 77C95.4215 77 80.9884 79.9028 67.5398 85.5395C54.0911 91.1763 41.8953 99.4346 31.6611 109.834C21.4269 120.234 13.3586 132.568 7.92522 146.119C2.49184 159.67 -0.198239 174.167 0.0113716 188.769C0.0113716 189.543 0.0113716 190.295 0.0113716 191.047H55.1137Z" fill="#70C1A0"/>
</svg>
