<svg aria-hidden="true" style="position: absolute; width: 0; height: 0; overflow: hidden;" version="1.1" xmlns="http://www.w3.org/2000/svg" xmlns:xlink="http://www.w3.org/1999/xlink">
<defs>
<symbol id="i-checkmark" viewBox="0 0 32 32">
<path fill="none" stroke="currentColor" stroke-linejoin="round" stroke-linecap="round" stroke-miterlimit="4" stroke-width="1.2" d="M20.272 13.484l-5.336 5.333-3.208-3.199"></path>
<path fill="none" stroke="currentColor" stroke-linejoin="round" stroke-linecap="round" stroke-miterlimit="4" stroke-width="1.2" d="M21.333 4h-10.667c-3.682 0-6.667 2.985-6.667 6.667v10.667c0 3.682 2.985 6.667 6.667 6.667h10.667c3.682 0 6.667-2.985 6.667-6.667v-10.667c0-3.682-2.985-6.667-6.667-6.667z"></path>
</symbol>
<symbol id="i-rocket" viewBox="2 -1 32 32">
<path fill="none" stroke="currentColor" stroke-linejoin="round" stroke-linecap="round" stroke-miterlimit="4" stroke-width="1.2" d="M17.253 14.747l-9.427 9.427"></path>
<path fill="none" stroke="currentColor" stroke-linejoin="round" stroke-linecap="round" stroke-miterlimit="4" stroke-width="1.2" d="M8.844 17.332l-4.617-1.091c-0.508-0.12-0.687-0.751-0.319-1.12l3.672-3.672c0.247-0.247 0.581-0.388 0.932-0.391l4.14-0.036"></path>
<path fill="none" stroke="currentColor" stroke-linejoin="round" stroke-linecap="round" stroke-miterlimit="4" stroke-width="1.2" d="M26.506 11.967l1.077-5.184c0.293-1.411-0.955-2.659-2.365-2.365l-5.184 1.077c-1.527 0.317-2.927 1.073-4.028 2.176l-4.253 4.252c-1.623 1.623-2.679 3.727-3.012 5.997l-0.015 0.097c-0.211 1.449 0.275 2.912 1.309 3.948 1.035 1.035 2.499 1.52 3.948 1.308l0.097-0.015c2.271-0.332 4.375-1.389 5.997-3.012l4.252-4.252c1.103-1.101 1.859-2.501 2.176-4.028v0z"></path>
<path fill="none" stroke="currentColor" stroke-linejoin="round" stroke-linecap="round" stroke-miterlimit="4" stroke-width="1.2" d="M17.867 6.285c3.081 2.101 5.747 4.767 7.848 7.848"></path>
<path fill="none" stroke="currentColor" stroke-linejoin="round" stroke-linecap="round" stroke-miterlimit="4" stroke-width="1.2" d="M14.666 23.156l1.091 4.617c0.12 0.508 0.751 0.687 1.12 0.319l3.672-3.672c0.247-0.247 0.388-0.581 0.391-0.932l0.036-4.14"></path>
</symbol>
<symbol id="i-user-check" viewBox="-2 0 32 32">
<path fill="none" stroke="currentColor" stroke-linejoin="round" stroke-linecap="round" stroke-miterlimit="4" stroke-width="1.2" d="M24 26.667v-1c0-1.503-0.597-2.944-1.66-4.007s-2.504-1.66-4.007-1.66h-10c-1.503 0-2.944 0.597-4.007 1.66s-1.66 2.504-1.66 4.007v1"></path>
<path fill="none" stroke="currentColor" stroke-linejoin="round" stroke-linecap="round" stroke-miterlimit="4" stroke-width="1.2" d="M13.333 14.667c2.946 0 5.333-2.388 5.333-5.333s-2.388-5.333-5.333-5.333c-2.946 0-5.333 2.388-5.333 5.333s2.388 5.333 5.333 5.333z"></path>
<path fill="none" stroke="currentColor" stroke-linejoin="round" stroke-linecap="round" stroke-miterlimit="4" stroke-width="1.2" d="M23.2 14.4l1.601 1.6 2.665-2.667"></path>
</symbol>
<symbol id="i-user" viewBox="-2 0 32 32">
<path fill="none" stroke="currentColor" stroke-linejoin="round" stroke-linecap="round" stroke-miterlimit="4" stroke-width="1.1859" d="M6.666 26.667c0-3.275 2.655-5.929 5.929-5.929h6.808c3.275 0 5.929 2.655 5.929 5.929"></path>
<path fill="none" stroke="currentColor" stroke-linejoin="round" stroke-linecap="round" stroke-miterlimit="4" stroke-width="1.2" d="M20.006 6.993c2.213 2.213 2.213 5.801 0 8.014s-5.801 2.213-8.014 0c-2.213-2.213-2.213-5.801 0-8.014s5.801-2.213 8.014 0"></path>
</symbol>
<symbol id="i-users-1" viewBox="0 0 32 32">
<path fill="none" stroke="currentColor" stroke-linejoin="round" stroke-linecap="round" stroke-miterlimit="4" stroke-width="1.2" d="M10.667 16c2.57 0 4.653-2.083 4.653-4.653s-2.083-4.653-4.653-4.653c-2.57 0-4.653 2.083-4.653 4.653s2.083 4.653 4.653 4.653z"></path>
<path fill="none" stroke="currentColor" stroke-linejoin="round" stroke-linecap="round" stroke-miterlimit="4" stroke-width="1.2" d="M22.666 16c1.841 0 3.333-1.492 3.333-3.333s-1.492-3.333-3.333-3.333c-1.841 0-3.333 1.492-3.333 3.333s1.492 3.333 3.333 3.333z"></path>
<path fill="none" stroke="currentColor" stroke-linejoin="round" stroke-linecap="round" stroke-miterlimit="4" stroke-width="1.2" d="M2.666 26.667v-1.356c0-2.933 2.377-5.311 5.311-5.311h5.379c2.933 0 5.311 2.377 5.311 5.311v1.356"></path>
<path fill="none" stroke="currentColor" stroke-linejoin="round" stroke-linecap="round" stroke-miterlimit="4" stroke-width="1.2" d="M22.666 20h1.469c2.933 0 5.311 2.377 5.311 5.311v1.356"></path>
</symbol>
<symbol id="i-users-2" viewBox="0 0 32 32">
<path fill="none" stroke="currentColor" stroke-linejoin="round" stroke-linecap="round" stroke-miterlimit="4" stroke-width="1.2" d="M18.357 14.643c1.302 1.302 1.302 3.412 0 4.714s-3.412 1.302-4.714 0-1.302-3.412 0-4.714c1.302-1.302 3.412-1.302 4.714 0z"></path>
<path fill="none" stroke="currentColor" stroke-linejoin="round" stroke-linecap="round" stroke-miterlimit="4" stroke-width="1.2" d="M25.672 6.643c1.302 1.302 1.302 3.412 0 4.714s-3.412 1.302-4.714 0c-1.302-1.302-1.302-3.412 0-4.714s3.412-1.302 4.714 0"></path>
<path fill="none" stroke="currentColor" stroke-linejoin="round" stroke-linecap="round" stroke-miterlimit="4" stroke-width="1.2" d="M24 16.333c2.044 0 4 0.711 5.333 1.777"></path>
<path fill="none" stroke="currentColor" stroke-linejoin="round" stroke-linecap="round" stroke-miterlimit="4" stroke-width="1.2" d="M11.042 6.643c1.302 1.302 1.302 3.412 0 4.714s-3.412 1.302-4.714 0c-1.302-1.302-1.302-3.412 0-4.714s3.412-1.302 4.714 0"></path>
<path fill="none" stroke="currentColor" stroke-linejoin="round" stroke-linecap="round" stroke-miterlimit="4" stroke-width="1.2" d="M2.666 18.111c1.333-1.067 3.289-1.777 5.333-1.777"></path>
<path fill="none" stroke="currentColor" stroke-linejoin="round" stroke-linecap="round" stroke-miterlimit="4" stroke-width="1.2" d="M22.121 26.333c-1.553-1.201-3.785-2-6.121-2s-4.568 0.799-6.121 2"></path>
</symbol>
</defs>
</svg>
