<svg width="174" height="176" viewBox="0 0 174 176" fill="none" xmlns="http://www.w3.org/2000/svg">
<g opacity="0.3">
<path d="M108.166 126.89C114.56 123.385 119.98 118.344 123.938 112.224H170.127C164.961 130.124 154.149 145.883 139.293 157.147C124.262 168.543 105.917 174.712 87.054 174.712C68.1911 174.712 49.8456 168.543 34.8147 157.147C19.9591 145.883 9.1467 130.124 3.98055 112.224H50.1517C54.11 118.344 59.5296 123.385 65.9235 126.89C72.3976 130.439 79.6618 132.3 87.045 132.3C94.4282 132.3 101.692 130.439 108.166 126.89Z" stroke="#688595"/>
<path d="M173.491 88.2437V88.2509V88.2544V88.2579V88.2613V88.2648V88.2683V88.2718V88.2752V88.2787V88.2822V88.2857V88.2892V88.2926V88.2961V88.2996V88.3031V88.3065V88.31V88.3135V88.317V88.3205V88.3239V88.3274V88.3309V88.3344V88.3378V88.3413V88.3448V88.3483V88.3518V88.3552V88.3587V88.3622V88.3657V88.3691V88.3726V88.3761V88.3796V88.3831V88.3865V88.39V88.3935V88.397V88.4005V88.4039V88.4074V88.4109V88.4144V88.4178V88.4213V88.4248V88.4283V88.4318V88.4352V88.4387V88.4422V88.4457V88.4492V88.4526V88.4561V88.4596V88.4631V88.4666V88.47V88.4735V88.477V88.4805V88.484V88.4874V88.4909V88.4944V88.4979V88.5014V88.5048V88.5083V88.5118V88.5153V88.5188V88.5222V88.5257V88.5292V88.5327V88.5362V88.5396V88.5431V88.5466V88.5501V88.5536V88.557V88.5605V88.564V88.5675V88.571V88.5744V88.5779V88.5814V88.5849V88.5884V88.5919V88.5953V88.5988V88.6023V88.6058V88.6093V88.6127V88.6162V88.6197V88.6232V88.6267V88.6302V88.6336V88.6371V88.6406V88.6441V88.6476V88.6511V88.6545V88.658V88.6615V88.665V88.6685V88.672V88.6754V88.6789V88.6824V88.6859V88.6894V88.6929V88.6963V88.6998V88.7033V88.7068V88.7103V88.7138V88.7172V88.7207V88.7242V88.7277V88.7312V88.7347V88.7382V88.7416V88.7451V88.7486V88.7521V88.7556V88.7591V88.7626V88.7661V88.7695V88.773V88.7765V88.78V88.7835V88.787V88.7905V88.7939V88.7974V88.8009V88.8044V88.8079V88.8114V88.8149V88.8184V88.8219V88.8253V88.8288V88.8323V88.8358V88.8393V88.8428V88.8463V88.8498V88.8533V88.8567V88.8602V88.8637V88.8672V88.8707V88.8742V88.8777V88.8812V88.8847V88.8882V88.8917V88.8951V88.8986V88.9021V88.9056V88.9091V88.9126V88.9161V88.9196V88.9231V88.9266V88.9301V88.9336V88.937V88.9405V88.944V88.9475V88.951V88.9545V88.958V88.9615V88.965V88.9685V88.972V88.9755V88.979V88.9825V88.986V88.9895V88.993V88.9965V89V89.0035V89.007V89.0105V89.0139V89.0174V89.0209V89.0244V89.0279V89.0314V89.0349V89.0384V89.0419V89.0454V89.0489V89.0524V89.0559V89.0594V89.0629V89.0664V89.0699V89.0734V89.0769V89.0804V89.0839V89.0874V89.0909V89.0944V89.0979V89.1014V89.1049V89.1084V89.1119V89.1154V89.1189V89.1224V89.126V89.1295V89.133V89.1365V89.14V89.1435V89.147V89.1505V89.154V89.1575V89.161V89.1645V89.168V89.1715V89.175V89.1785V89.182V89.1855V89.189V89.1926V89.1961V89.1996V89.2031V89.2066V89.2101V89.2136V89.2171V89.2206V89.2241V89.2276V89.2311V89.2346V89.2382V89.2417V89.2452V89.2487V89.2522V89.2557V89.2592V89.2627V89.2662V89.2698V89.2733V89.2768V89.2803V89.2838V89.2873V89.2908V89.2943V89.2979V89.3014V89.3049V89.3084V89.3119V89.3154V89.319V89.3225V89.326V89.3295V89.333V89.3365V89.34V89.3436V89.3471V89.3506V89.3541V89.3576V89.3612V89.3647V89.3682V89.3717V89.3752V89.3788V89.3823V89.3858V89.3893V89.3928V89.3964V89.3999V89.4034V89.4069V89.4104V89.414V89.4175V89.421V89.4245V89.4281V89.4316V89.4351V89.4386V89.4421V89.4457V89.4492V89.4527V89.4563V89.4598V89.4633V89.4668V89.4704V89.4739V89.4774V89.4809V89.4845V89.488V89.4915V89.495V89.4986V89.5021V89.5056V89.5092V89.5127V89.5162V89.5198V89.5233V89.5268V89.5303V89.5339V89.5374V89.5409V89.5445V89.548V89.5495H131.076C131.108 89.1145 131.108 88.6852 131.108 88.2681V88.2509C131.108 76.5647 126.466 65.3571 118.202 57.0937C109.939 48.8303 98.7312 44.1879 87.045 44.1879C75.3587 44.1879 64.1512 48.8303 55.8878 57.0937C47.6243 65.3571 42.982 76.5647 42.982 88.2509C42.982 88.5682 43.0103 88.8819 43.0365 89.1722L43.038 89.1884C43.0492 89.3121 43.0599 89.4319 43.0687 89.5495H0.508994V89.5483V89.5448V89.5414V89.5379V89.5344V89.5309V89.5274V89.5239V89.5204V89.5169V89.5135V89.51V89.5065V89.503V89.4995V89.496V89.4925V89.489V89.4856V89.4821V89.4786V89.4751V89.4716V89.4681V89.4646V89.4611V89.4576V89.4542V89.4507V89.4472V89.4437V89.4402V89.4367V89.4332V89.4297V89.4262V89.4227V89.4193V89.4158V89.4123V89.4088V89.4053V89.4018V89.3983V89.3948V89.3913V89.3878V89.3843V89.3808V89.3773V89.3739V89.3704V89.3669V89.3634V89.3599V89.3564V89.3529V89.3494V89.3459V89.3424V89.3389V89.3354V89.3319V89.3284V89.3249V89.3214V89.3179V89.3145V89.311V89.3075V89.304V89.3005V89.297V89.2935V89.29V89.2865V89.283V89.2795V89.276V89.2725V89.269V89.2655V89.262V89.2585V89.255V89.2515V89.248V89.2445V89.241V89.2375V89.234V89.2305V89.227V89.2235V89.22V89.2165V89.213V89.2095V89.206V89.2025V89.199V89.1955V89.192V89.1885V89.185V89.1815V89.178V89.1745V89.171V89.1675V89.164V89.1605V89.157V89.1535V89.15V89.1464V89.1429V89.1394V89.1359V89.1324V89.1289V89.1254V89.1219V89.1184V89.1149V89.1114V89.1079V89.1044V89.1009V89.0974V89.0938V89.0903V89.0868V89.0833V89.0798V89.0763V89.0728V89.0693V89.0658V89.0623V89.0588V89.0553V89.0517V89.0482V89.0447V89.0412V89.0377V89.0342V89.0307V89.0272V89.0236V89.0201V89.0166V89.0131V89.0096V89.0061V89.0026V88.9991V88.9955V88.992V88.9885V88.985V88.9815V88.978V88.9744V88.9709V88.9674V88.9639V88.9604V88.9569V88.9533V88.9498V88.9463V88.9428V88.9393V88.9358V88.9322V88.9287V88.9252V88.9217V88.9182V88.9146V88.9111V88.9076V88.9041V88.9006V88.897V88.8935V88.89V88.8865V88.8829V88.8794V88.8759V88.8724V88.8689V88.8653V88.8618V88.8583V88.8548V88.8512V88.8477V88.8442V88.8407V88.8371V88.8336V88.8301V88.8265V88.823V88.8195V88.816V88.8124V88.8089V88.8054V88.8018V88.7983V88.7948V88.7913V88.7877V88.7842V88.7807V88.7771V88.7736V88.7701V88.7665V88.763V88.7595V88.756V88.7524V88.7489V88.7453V88.7418V88.7383V88.7347V88.7312V88.7277V88.7241V88.7206V88.7171V88.7135V88.71V88.7065V88.7029V88.6994V88.6958V88.6923V88.6888V88.6852V88.6817V88.6782V88.6746V88.6711V88.6675V88.664V88.6605V88.6569V88.6534V88.6498V88.6463V88.6427V88.6392V88.6357V88.6321V88.6286V88.625V88.6215V88.6179V88.6144V88.6108V88.6073V88.6038V88.6002V88.5967V88.5931V88.5896V88.586V88.5825V88.5789V88.5754V88.5718V88.5683V88.5647V88.5612V88.5576V88.5541V88.5505V88.547V88.5434V88.5399V88.5363V88.5328V88.5292V88.5257V88.5221V88.5185V88.515V88.5114V88.5079V88.5043V88.5008V88.4972V88.4937V88.4901V88.4865V88.483V88.4794V88.4759V88.4723V88.4687V88.4652V88.4616V88.4581V88.4545V88.4509V88.4474V88.4438V88.4403V88.4367V88.4331V88.4296V88.426V88.4224V88.4189V88.4153V88.4117V88.4082V88.4046V88.401V88.3975V88.3939V88.3903V88.3868V88.3832V88.3796V88.3761V88.3725V88.3689V88.3654V88.3618V88.3582V88.3546V88.3511V88.3475V88.3439V88.3404V88.3368V88.3332V88.3296V88.3261V88.3225V88.3189V88.3153V88.3118V88.3082V88.3046V88.301V88.2974V88.2939V88.2903V88.2867V88.2831V88.2796V88.276V88.2724V88.2688V88.2652V88.2617V88.2581V88.2545L0.509046 88.2509L0.508942 88.2437C0.344112 76.7809 2.45949 65.3996 6.7321 54.7616C11.0047 44.1235 17.3493 34.4409 25.3971 26.2766C33.4449 18.1122 43.0353 11.6291 53.6108 7.20393C64.1863 2.7788 75.536 0.5 87 0.5C98.464 0.5 109.814 2.7788 120.389 7.20393C130.965 11.6291 140.555 18.1122 148.603 26.2766C156.651 34.4409 162.995 44.1235 167.268 54.7616C171.54 65.3996 173.656 76.7809 173.491 88.2437Z" stroke="#688595"/>
</g>
</svg>
