<svg width="299" height="270" viewBox="0 0 299 270" fill="none" xmlns="http://www.w3.org/2000/svg">
<g opacity="0.3">
<path d="M105.685 123.983C111.932 120.558 117.227 115.634 121.095 109.655H166.201C161.153 127.136 150.592 142.525 136.084 153.525C121.401 164.658 103.48 170.684 85.0528 170.684C66.626 170.684 48.7047 164.658 34.0213 153.525C19.5133 142.525 8.95275 127.136 3.90438 109.655H48.9925C52.8606 115.634 58.1558 120.558 64.4025 123.983C70.7295 127.452 77.8286 129.27 85.044 129.27C92.2594 129.27 99.3585 127.452 105.685 123.983Z" stroke="#688595"/>
<path d="M169.491 86.2149V86.2221V86.2255V86.2289V86.2323V86.2357V86.2391V86.2425V86.2459V86.2493V86.2527V86.2561V86.2595V86.2629V86.2663V86.2697V86.2731V86.2765V86.2799V86.2833V86.2867V86.2901V86.2935V86.2969V86.3003V86.3037V86.3071V86.3105V86.3139V86.3173V86.3207V86.3241V86.3275V86.3309V86.3343V86.3377V86.3411V86.3445V86.3479V86.3513V86.3547V86.3581V86.3615V86.3649V86.3682V86.3717V86.375V86.3784V86.3818V86.3852V86.3886V86.392V86.3954V86.3988V86.4022V86.4056V86.409V86.4124V86.4158V86.4192V86.4226V86.426V86.4294V86.4328V86.4362V86.4396V86.443V86.4464V86.4498V86.4532V86.4566V86.46V86.4634V86.4668V86.4702V86.4736V86.477V86.4804V86.4838V86.4872V86.4906V86.494V86.4974V86.5008V86.5042V86.5076V86.511V86.5144V86.5178V86.5212V86.5246V86.528V86.5314V86.5348V86.5382V86.5416V86.545V86.5484V86.5518V86.5552V86.5586V86.562V86.5655V86.5689V86.5723V86.5757V86.5791V86.5825V86.5859V86.5893V86.5927V86.5961V86.5995V86.6029V86.6063V86.6097V86.6131V86.6165V86.6199V86.6233V86.6267V86.6301V86.6335V86.6369V86.6403V86.6437V86.6471V86.6505V86.6539V86.6573V86.6607V86.6641V86.6675V86.671V86.6744V86.6778V86.6812V86.6846V86.688V86.6914V86.6948V86.6982V86.7016V86.705V86.7084V86.7118V86.7152V86.7186V86.722V86.7254V86.7289V86.7323V86.7357V86.7391V86.7425V86.7459V86.7493V86.7527V86.7561V86.7595V86.7629V86.7663V86.7697V86.7731V86.7766V86.78V86.7834V86.7868V86.7902V86.7936V86.797V86.8004V86.8038V86.8072V86.8106V86.8141V86.8175V86.8209V86.8243V86.8277V86.8311V86.8345V86.8379V86.8413V86.8447V86.8482V86.8516V86.855V86.8584V86.8618V86.8652V86.8686V86.872V86.8755V86.8789V86.8823V86.8857V86.8891V86.8925V86.8959V86.8993V86.9028V86.9062V86.9096V86.913V86.9164V86.9198V86.9232V86.9267V86.9301V86.9335V86.9369V86.9403V86.9437V86.9471V86.9506V86.954V86.9574V86.9608V86.9642V86.9676V86.9711V86.9745V86.9779V86.9813V86.9847V86.9882V86.9916V86.995V86.9984V87.0018V87.0052V87.0087V87.0121V87.0155V87.0189V87.0223V87.0258V87.0292V87.0326V87.036V87.0394V87.0429V87.0463V87.0497V87.0531V87.0565V87.06V87.0634V87.0668V87.0702V87.0736V87.0771V87.0805V87.0839V87.0873V87.0908V87.0942V87.0976V87.101V87.1045V87.1079V87.1113V87.1147V87.1182V87.1216V87.125V87.1284V87.1319V87.1353V87.1387V87.1421V87.1456V87.149V87.1524V87.1558V87.1593V87.1627V87.1661V87.1696V87.173V87.1764V87.1798V87.1833V87.1867V87.1901V87.1936V87.197V87.2004V87.2038V87.2073V87.2107V87.2141V87.2176V87.221V87.2244V87.2279V87.2313V87.2347V87.2382V87.2416V87.245V87.2485V87.2519V87.2553V87.2588V87.2622V87.2656V87.2691V87.2725V87.2759V87.2794V87.2828V87.2862V87.2897V87.2931V87.2966V87.3V87.3034V87.3069V87.3103V87.3137V87.3172V87.3206V87.3241V87.3275V87.3309V87.3344V87.3378V87.3413V87.3447V87.3481V87.3516V87.355V87.3585V87.3619V87.3653V87.3688V87.3722V87.3757V87.3791V87.3826V87.386V87.3895V87.3929V87.3963V87.3998V87.4032V87.4067V87.4101V87.4136V87.417V87.4204V87.4239V87.4273V87.4308V87.4342V87.4377V87.4411V87.4446V87.448V87.4515V87.4549V87.4584V87.4618V87.4653V87.4687V87.4722V87.4756V87.4791V87.4794H128.075C128.105 87.0582 128.105 86.6426 128.105 86.2393V86.2221C128.105 74.8015 123.569 63.8487 115.493 55.773C107.417 47.6975 96.4646 43.1606 85.0439 43.1606C73.6233 43.1606 62.6704 47.6975 54.5948 55.773C46.5192 63.8487 41.9824 74.8015 41.9824 86.2221C41.9824 86.5326 42.0101 86.8395 42.0357 87.123L42.0372 87.1391C42.0477 87.2557 42.0578 87.3686 42.0662 87.4794H0.508787V87.4761V87.4727V87.4693V87.4659V87.4625V87.4591V87.4557V87.4523V87.4489V87.4454V87.442V87.4386V87.4352V87.4318V87.4284V87.425V87.4216V87.4182V87.4148V87.4114V87.408V87.4045V87.4011V87.3977V87.3943V87.3909V87.3875V87.3841V87.3807V87.3773V87.3739V87.3704V87.367V87.3636V87.3602V87.3568V87.3534V87.35V87.3466V87.3432V87.3398V87.3363V87.3329V87.3295V87.3261V87.3227V87.3193V87.3159V87.3124V87.309V87.3056V87.3022V87.2988V87.2954V87.292V87.2886V87.2851V87.2817V87.2783V87.2749V87.2715V87.2681V87.2647V87.2612V87.2578V87.2544V87.251V87.2476V87.2442V87.2407V87.2373V87.2339V87.2305V87.2271V87.2237V87.2202V87.2168V87.2134V87.21V87.2066V87.2031V87.1997V87.1963V87.1929V87.1895V87.1861V87.1826V87.1792V87.1758V87.1724V87.169V87.1655V87.1621V87.1587V87.1553V87.1519V87.1484V87.145V87.1416V87.1382V87.1348V87.1313V87.1279V87.1245V87.1211V87.1176V87.1142V87.1108V87.1074V87.1039V87.1005V87.0971V87.0937V87.0902V87.0868V87.0834V87.08V87.0765V87.0731V87.0697V87.0663V87.0628V87.0594V87.056V87.0526V87.0491V87.0457V87.0423V87.0388V87.0354V87.032V87.0286V87.0251V87.0217V87.0183V87.0149V87.0114V87.008V87.0046V87.0011V86.9977V86.9943V86.9908V86.9874V86.984V86.9805V86.9771V86.9737V86.9703V86.9668V86.9634V86.96V86.9565V86.9531V86.9497V86.9462V86.9428V86.9394V86.9359V86.9325V86.929V86.9256V86.9222V86.9187V86.9153V86.9119V86.9084V86.905V86.9016V86.8981V86.8947V86.8912V86.8878V86.8844V86.8809V86.8775V86.8741V86.8706V86.8672V86.8637V86.8603V86.8569V86.8534V86.85V86.8465V86.8431V86.8396V86.8362V86.8328V86.8293V86.8259V86.8224V86.819V86.8156V86.8121V86.8087V86.8052V86.8018V86.7983V86.7949V86.7914V86.788V86.7845V86.7811V86.7777V86.7742V86.7708V86.7673V86.7639V86.7604V86.757V86.7535V86.7501V86.7466V86.7432V86.7397V86.7363V86.7328V86.7294V86.7259V86.7225V86.719V86.7156V86.7121V86.7087V86.7052V86.7018V86.6983V86.6949V86.6914V86.688V86.6845V86.681V86.6776V86.6741V86.6707V86.6672V86.6638V86.6603V86.6569V86.6534V86.6499V86.6465V86.643V86.6396V86.6361V86.6326V86.6292V86.6257V86.6223V86.6188V86.6153V86.6119V86.6084V86.605V86.6015V86.598V86.5946V86.5911V86.5877V86.5842V86.5807V86.5773V86.5738V86.5703V86.5669V86.5634V86.5599V86.5565V86.553V86.5495V86.5461V86.5426V86.5391V86.5357V86.5322V86.5287V86.5253V86.5218V86.5183V86.5149V86.5114V86.5079V86.5044V86.501V86.4975V86.494V86.4906V86.4871V86.4836V86.4801V86.4767V86.4732V86.4697V86.4662V86.4628V86.4593V86.4558V86.4523V86.4489V86.4454V86.4419V86.4384V86.435V86.4315V86.428V86.4245V86.4211V86.4176V86.4141V86.4106V86.4071V86.4036V86.4002V86.3967V86.3932V86.3897V86.3862V86.3828V86.3793V86.3758V86.3723V86.3688V86.3653V86.3619V86.3584V86.3549V86.3514V86.3479V86.3444V86.3409V86.3374V86.334V86.3305V86.327V86.3235V86.32V86.3165V86.313V86.3095V86.306V86.3025V86.299V86.2956V86.2921V86.2886V86.2851V86.2816V86.2781V86.2746V86.2711V86.2676V86.2641V86.2606V86.2571V86.2536V86.2501V86.2466V86.2431V86.2396V86.2361V86.2326V86.2291V86.2256L0.508839 86.2221L0.508735 86.2149C0.347716 75.0172 2.41418 63.8991 6.58801 53.507C10.7618 43.1149 16.9597 33.6562 24.8215 25.6806C32.6832 17.705 42.0518 11.3717 52.3828 7.04892C62.7138 2.72611 73.8011 0.5 85 0.5C96.199 0.5 107.286 2.72611 117.617 7.04892C127.948 11.3717 137.317 17.705 145.179 25.6806C153.04 33.6562 159.238 43.1149 163.412 53.507C167.586 63.8991 169.652 75.0172 169.491 86.2149Z" stroke="#688595"/>
</g>
<path d="M247.506 101C243.216 107.494 237.302 112.839 230.308 116.542C223.314 120.245 215.466 122.187 207.49 122.187C199.514 122.187 191.667 120.245 184.673 116.542C177.679 112.839 171.764 107.494 167.474 101H116C121.596 120.278 133.567 137.26 150.087 149.356C166.606 161.453 186.769 168 207.5 168C228.231 168 248.394 161.453 264.913 149.356C281.433 137.26 293.404 120.278 299 101H247.506Z" fill="#70C1A0"/>
<circle cx="85.5" cy="226.5" r="43.5" fill="#688595"/>
</svg>
