<svg aria-hidden="true" style="position: absolute; width: 0; height: 0; overflow: hidden;" version="1.1" xmlns="http://www.w3.org/2000/svg" xmlns:xlink="http://www.w3.org/1999/xlink">
<defs>
<symbol id="i-signal" viewBox="0 0 32 32">
<path fill="none" stroke="currentColor" stroke-linejoin="round" stroke-linecap="round" stroke-miterlimit="4" stroke-width="1.3333" d="M6.881 23.785c-4.032-4.716-3.827-11.809 0.633-16.271 4.687-4.687 12.284-4.687 16.971 0 4.461 4.461 4.665 11.556 0.633 16.271"></path>
<path fill="none" stroke="currentColor" stroke-linejoin="round" stroke-linecap="round" stroke-miterlimit="4" stroke-width="1.3333" d="M10.215 20.452c-2.215-2.876-2.035-7.003 0.6-9.637 2.864-2.864 7.507-2.864 10.371 0 2.636 2.636 2.815 6.761 0.599 9.637"></path>
<path fill="none" stroke="currentColor" stroke-linejoin="round" stroke-linecap="round" stroke-miterlimit="4" stroke-width="1.3333" d="M18.105 13.895c1.163 1.163 1.163 3.048 0 4.211s-3.048 1.163-4.211 0c-1.163-1.163-1.163-3.048 0-4.211s3.048-1.163 4.211 0z"></path>
<path fill="none" stroke="currentColor" stroke-linejoin="round" stroke-linecap="round" stroke-miterlimit="4" stroke-width="1.3333" d="M16 18.973v9.027"></path>
<path fill="none" stroke="currentColor" stroke-linejoin="round" stroke-linecap="round" stroke-miterlimit="4" stroke-width="1.3333" d="M12 28h8"></path>
</symbol>
<symbol id="i-tools" viewBox="0 0 32 32">
<path fill="none" stroke="currentColor" stroke-linejoin="round" stroke-linecap="round" stroke-miterlimit="4" stroke-width="1.3333" d="M24.892 8.933l-3.488-3.488c-1.926-1.927-5.050-1.927-6.977-0.001-0 0-0 0-0.001 0.001l-1.564 1.564c-0.241 0.24-0.241 0.63-0.001 0.871 0.116 0.116 0.273 0.181 0.437 0.181h0.979c0.654 0 1.281 0.26 1.744 0.723l1.021 1.021v1.745l2.617 2.616 1.347-0.4 1.269 1.268v1.744l0.749 0.749c0.55 0.549 1.441 0.549 1.991 0l3.241-3.243c0.55-0.548 0.551-1.438 0.003-1.987-0.001-0.001-0.002-0.002-0.003-0.003l-0.748-0.748h-1.745l-1.268-1.269 0.396-1.344z"></path>
<path fill="none" stroke="currentColor" stroke-linejoin="round" stroke-linecap="round" stroke-miterlimit="4" stroke-width="1.3333" d="M4.256 27.073v0c1.236 1.236 3.241 1.236 4.476-0.001 0.062-0.062 0.122-0.127 0.178-0.194l10.751-12.712-2.617-2.616-12.619 10.888c-1.323 1.142-1.47 3.141-0.328 4.464 0.051 0.059 0.103 0.115 0.158 0.17v0z"></path>
</symbol>
<symbol id="i-vr-3d" viewBox="0 0 32 32">
<path fill="none" stroke="currentColor" stroke-linejoin="round" stroke-linecap="round" stroke-miterlimit="4" stroke-width="1.3333" d="M11.334 4v2.4h-0.013c-0.040 0.4 0.253 0.747 0.667 0.787h5.32c0.4-0.053 0.693-0.4 0.667-0.8v-2.4"></path>
<path fill="none" stroke="currentColor" stroke-linejoin="round" stroke-linecap="round" stroke-miterlimit="4" stroke-width="1.3333" d="M13.334 28l-4.013-0.001c-1.48-0.013-2.667-1.2-2.667-2.68v-18.667c-0.013-1.48 1.187-2.68 2.653-2.68h10.653c1.467-0.013 2.667 1.187 2.667 2.653v5.333"></path>
<path fill="none" stroke="currentColor" stroke-linejoin="round" stroke-linecap="round" stroke-miterlimit="4" stroke-width="1.3333" d="M20.667 27.814l-4-2.293c-0.427-0.24-0.68-0.68-0.68-1.16v-4.56h-0.001c0-0.48 0.253-0.933 0.667-1.16l4-2.293v-0.013c0.4-0.24 0.907-0.24 1.32 0l4 2.28-0.013-0.001c0.413 0.227 0.667 0.667 0.667 1.147v4.547c0 0.467-0.267 0.92-0.68 1.147l-4 2.28v-0.013c-0.413 0.227-0.92 0.227-1.333-0.013l0.055 0.108z"></path>
<path fill="none" stroke="currentColor" stroke-linejoin="round" stroke-linecap="round" stroke-miterlimit="4" stroke-width="1.3333" d="M16.188 19.16l5.147 2.947"></path>
<path fill="none" stroke="currentColor" stroke-linejoin="round" stroke-linecap="round" stroke-miterlimit="4" stroke-width="1.3333" d="M26.48 19.16l-5.147 2.947"></path>
<path fill="none" stroke="currentColor" stroke-linejoin="round" stroke-linecap="round" stroke-miterlimit="4" stroke-width="1.3333" d="M21.333 22.107v5.893"></path>
</symbol>
<symbol id="i-bag" viewBox="0 0 32 32">
<path fill="none" stroke="currentColor" stroke-linejoin="round" stroke-linecap="round" stroke-miterlimit="4" stroke-width="1.3333" d="M5.333 5.333h21.333c0.354 0 0.693 0.14 0.943 0.391s0.39 0.589 0.39 0.943v18.667c0 0.707-0.281 1.386-0.781 1.886s-1.178 0.781-1.886 0.781h-18.667c-0.707 0-1.386-0.281-1.886-0.781s-0.781-1.178-0.781-1.886v-18.667c0-0.354 0.14-0.693 0.391-0.943s0.589-0.391 0.943-0.391v0z"></path>
<path fill="none" stroke="currentColor" stroke-linejoin="round" stroke-linecap="round" stroke-miterlimit="4" stroke-width="1.3333" d="M4 10h24"></path>
<path fill="none" stroke="currentColor" stroke-linejoin="round" stroke-linecap="round" stroke-miterlimit="4" stroke-width="1.3333" d="M21.333 14.667c0 1.414-0.562 2.771-1.562 3.771s-2.357 1.562-3.771 1.562-2.771-0.562-3.771-1.562c-1-1-1.562-2.357-1.562-3.771"></path>
</symbol>
<symbol id="i-bank" viewBox="0 0 32 32">
<path fill="none" stroke="currentColor" stroke-linejoin="round" stroke-linecap="round" stroke-miterlimit="4" stroke-width="1.3333" d="M12.477 22.667v-10.755"></path>
<path fill="none" stroke="currentColor" stroke-linejoin="round" stroke-linecap="round" stroke-miterlimit="4" stroke-width="1.3333" d="M6.667 11.912v10.755"></path>
<path fill="none" stroke="currentColor" stroke-linejoin="round" stroke-linecap="round" stroke-miterlimit="4" stroke-width="1.3333" d="M14.667 22.667h-9.333l-1.333 2.667v1.333h10.667"></path>
<path fill="none" stroke="currentColor" stroke-linejoin="round" stroke-linecap="round" stroke-miterlimit="4" stroke-width="1.3333" d="M28 7.904l-12-5.237-12 5.237v4.008h24v-4.008z"></path>
<path fill="none" stroke="currentColor" stroke-linejoin="round" stroke-linecap="round" stroke-miterlimit="4" stroke-width="1.3333" d="M27.998 26l0.001-8"></path>
<path fill="none" stroke="currentColor" stroke-linejoin="round" stroke-linecap="round" stroke-miterlimit="4" stroke-width="1.3333" d="M18.667 18v8"></path>
<path fill="none" stroke="currentColor" stroke-linejoin="round" stroke-linecap="round" stroke-miterlimit="4" stroke-width="1.3333" d="M28 18c0-1.106-2.091-2-4.667-2s-4.665 0.896-4.667 2"></path>
<path fill="none" stroke="currentColor" stroke-linejoin="round" stroke-linecap="round" stroke-miterlimit="4" stroke-width="1.3333" d="M18.667 26c0 1.106 2.091 2 4.667 2s4.665-0.896 4.667-2"></path>
<path fill="none" stroke="currentColor" stroke-linejoin="round" stroke-linecap="round" stroke-miterlimit="4" stroke-width="1.3333" d="M18.667 18c0 1.106 2.091 2 4.667 2s4.665-0.896 4.667-2"></path>
<path fill="none" stroke="currentColor" stroke-linejoin="round" stroke-linecap="round" stroke-miterlimit="4" stroke-width="1.3333" d="M18.667 22c0 1.106 2.091 2 4.667 2s4.665-0.896 4.667-2"></path>
</symbol>
<symbol id="i-basket" viewBox="0 0 32 32">
<path fill="none" stroke="currentColor" stroke-linejoin="round" stroke-linecap="round" stroke-miterlimit="4" stroke-width="1.3333" d="M28.085 26.379l-3.54-16c-0.135-0.611-0.676-1.045-1.301-1.045h-14.488c-0.625 0-1.167 0.435-1.301 1.045l-3.54 16c-0.184 0.832 0.449 1.621 1.301 1.621h21.568c0.852 0 1.485-0.789 1.301-1.621v0z"></path>
<path fill="none" stroke="currentColor" stroke-linejoin="round" stroke-linecap="round" stroke-miterlimit="4" stroke-width="1.3333" d="M19.334 9.333v-3.333c0-1.841-1.492-3.333-3.333-3.333h-0.001c-1.841 0-3.333 1.492-3.333 3.333v3.333"></path>
<path fill="none" stroke="currentColor" stroke-linejoin="round" stroke-linecap="round" stroke-miterlimit="4" stroke-width="1.3333" d="M24.213 9.787l-4.027 18.213"></path>
</symbol>
<symbol id="i-brick" viewBox="0 0 32 32">
<path fill="none" stroke="currentColor" stroke-linejoin="round" stroke-linecap="round" stroke-miterlimit="4" stroke-width="1.3333" d="M14.667 28h-8c-0.707 0-1.386-0.281-1.886-0.781s-0.781-1.178-0.781-1.886v-18.667c0-0.707 0.281-1.386 0.781-1.886s1.178-0.781 1.886-0.781h18.667c0.707 0 1.386 0.281 1.886 0.781s0.781 1.178 0.781 1.886v8"></path>
<path fill="none" stroke="currentColor" stroke-linejoin="round" stroke-linecap="round" stroke-miterlimit="4" stroke-width="1.3333" d="M28 10h-24"></path>
<path fill="none" stroke="currentColor" stroke-linejoin="round" stroke-linecap="round" stroke-miterlimit="4" stroke-width="1.3333" d="M16 4v6"></path>
<path fill="none" stroke="currentColor" stroke-linejoin="round" stroke-linecap="round" stroke-miterlimit="4" stroke-width="1.3333" d="M10.667 10v6"></path>
<path fill="none" stroke="currentColor" stroke-linejoin="round" stroke-linecap="round" stroke-miterlimit="4" stroke-width="1.3333" d="M21.333 10v3.333"></path>
<path fill="none" stroke="currentColor" stroke-linejoin="round" stroke-linecap="round" stroke-miterlimit="4" stroke-width="1.3333" d="M13.333 22h-9.333"></path>
<path fill="none" stroke="currentColor" stroke-linejoin="round" stroke-linecap="round" stroke-miterlimit="4" stroke-width="1.3333" d="M10.667 22v6"></path>
<path fill="none" stroke="currentColor" stroke-linejoin="round" stroke-linecap="round" stroke-miterlimit="4" stroke-width="1.3333" d="M16 16h-12"></path>
<path fill="none" stroke="currentColor" stroke-linejoin="round" stroke-linecap="round" stroke-miterlimit="4" stroke-width="1.3333" d="M23.333 29.333c3.314 0 6-2.686 6-6s-2.686-6-6-6c-3.314 0-6 2.686-6 6s2.686 6 6 6z"></path>
<path fill="none" stroke="currentColor" stroke-linejoin="round" stroke-linecap="round" stroke-miterlimit="4" stroke-width="1.3333" d="M25.333 22.333l-2.499 2.5-1.501-1.5"></path>
</symbol>
<symbol id="i-builder" viewBox="0 0 32 32">
<path fill="none" stroke="currentColor" stroke-linejoin="round" stroke-linecap="round" stroke-miterlimit="4" stroke-width="1.3333" d="M4 28v-0.629c0-0.925 0.32-1.821 0.907-2.536s1.402-1.205 2.309-1.386l3.795-0.759c0.314-0.063 0.639 0.002 0.905 0.179 1.21 0.806 2.631 1.237 4.084 1.237s2.875-0.43 4.084-1.237v0c0.266-0.177 0.592-0.242 0.905-0.179l3.795 0.759c0.907 0.181 1.723 0.671 2.309 1.386s0.907 1.611 0.907 2.536v0.629"></path>
<path fill="none" stroke="currentColor" stroke-linejoin="round" stroke-linecap="round" stroke-miterlimit="4" stroke-width="1.3333" d="M10.667 28v-5.241"></path>
<path fill="none" stroke="currentColor" stroke-linejoin="round" stroke-linecap="round" stroke-miterlimit="4" stroke-width="1.3333" d="M21.333 28v-5.241"></path>
<path fill="none" stroke="currentColor" stroke-linejoin="round" stroke-linecap="round" stroke-miterlimit="4" stroke-width="1.3333" d="M10.446 12h11.107c0.354 0 0.693-0.14 0.943-0.39s0.39-0.589 0.39-0.943v-1.113c0-0.904-0.178-1.8-0.524-2.636s-0.853-1.595-1.493-2.234-1.399-1.147-2.234-1.493c-0.836-0.346-1.731-0.524-2.636-0.524v0c-0.904 0-1.8 0.178-2.635 0.524s-1.595 0.853-2.234 1.493-1.147 1.399-1.493 2.234c-0.346 0.836-0.524 1.731-0.524 2.636v1.113c0 0.354 0.14 0.693 0.39 0.943s0.589 0.39 0.943 0.39z"></path>
<path fill="none" stroke="currentColor" stroke-linejoin="round" stroke-linecap="round" stroke-miterlimit="4" stroke-width="1.3333" d="M8.667 12h14.667"></path>
<path fill="none" stroke="currentColor" stroke-linejoin="round" stroke-linecap="round" stroke-miterlimit="4" stroke-width="1.3333" d="M21.333 12v2.666c0 1.414-0.562 2.771-1.562 3.771s-2.357 1.562-3.771 1.562-2.771-0.562-3.771-1.562c-1-1-1.562-2.357-1.562-3.771v-2.666"></path>
<path fill="none" stroke="currentColor" stroke-linejoin="round" stroke-linecap="round" stroke-miterlimit="4" stroke-width="1.3333" d="M18.802 19.206l0.965 3.862"></path>
<path fill="none" stroke="currentColor" stroke-linejoin="round" stroke-linecap="round" stroke-miterlimit="4" stroke-width="1.3333" d="M13.201 19.206l-0.965 3.862"></path>
<path fill="none" stroke="currentColor" stroke-linejoin="round" stroke-linecap="round" stroke-miterlimit="4" stroke-width="1.3333" d="M18 2.962v1.839c0 0.53-0.211 1.039-0.586 1.414s-0.884 0.586-1.414 0.586-1.039-0.211-1.414-0.586c-0.375-0.375-0.586-0.884-0.586-1.414v-1.839"></path>
<path fill="none" stroke="currentColor" stroke-linejoin="round" stroke-linecap="round" stroke-miterlimit="4" stroke-width="1.3333" d="M9.333 28h13.333"></path>
</symbol>
<symbol id="i-car" viewBox="0 0 32 32">
<path fill="none" stroke="currentColor" stroke-linejoin="round" stroke-linecap="round" stroke-miterlimit="4" stroke-width="1.3333" d="M5.333 16.749v-4.645c0-1.473 1.193-2.667 2.667-2.667h16c1.473 0 2.667 1.193 2.667 2.667v6.563c0 0.736-0.597 1.333-1.333 1.333h-2.667c-0.736 0-1.333-0.597-1.333-1.333v-1.333h-10.667v1.333c0 0.736-0.597 1.333-1.333 1.333h-2.667c-0.736 0-1.333-0.597-1.333-1.333v-1.917z"></path>
<path fill="none" stroke="currentColor" stroke-linejoin="round" stroke-linecap="round" stroke-miterlimit="4" stroke-width="1.3333" d="M8 9.437l1.101-4.712c0.283-1.205 1.359-2.059 2.597-2.059h8.719c1.263 0 2.352 0.885 2.611 2.12l0.972 4.651"></path>
<path fill="none" stroke="currentColor" stroke-linejoin="round" stroke-linecap="round" stroke-miterlimit="4" stroke-width="1.3333" d="M22.587 13.333h-2.667"></path>
<path fill="none" stroke="currentColor" stroke-linejoin="round" stroke-linecap="round" stroke-miterlimit="4" stroke-width="1.3333" d="M12 13.333h-2.667"></path>
<path fill="none" stroke="currentColor" stroke-linejoin="round" stroke-linecap="round" stroke-miterlimit="4" stroke-width="1.3333" d="M24 9.333l2.667-1.333"></path>
<path fill="none" stroke="currentColor" stroke-linejoin="round" stroke-linecap="round" stroke-miterlimit="4" stroke-width="1.3333" d="M8 9.333l-2.667-1.333"></path>
<path fill="none" stroke="currentColor" stroke-linejoin="round" stroke-linecap="round" stroke-miterlimit="4" stroke-width="1.3333" d="M12.769 29.333c1.027-0.736 1.027-1.931 0-2.667s-1.027-1.931 0-2.667"></path>
<path fill="none" stroke="currentColor" stroke-linejoin="round" stroke-linecap="round" stroke-miterlimit="4" stroke-width="1.3333" d="M19.231 29.333c1.027-0.736 1.027-1.931 0-2.667s-1.027-1.931 0-2.667"></path>
</symbol>
<symbol id="i-energy" viewBox="0 0 32 32">
<path fill="none" stroke="currentColor" stroke-linejoin="round" stroke-linecap="round" stroke-miterlimit="4" stroke-width="1.3333" d="M8.933 25.733c-0.8-0.533-1.467-1.2-2.133-1.867"></path>
<path fill="none" stroke="currentColor" stroke-linejoin="round" stroke-linecap="round" stroke-miterlimit="4" stroke-width="1.3333" d="M4.667 12c0.8-2.133 2-4 3.733-5.333"></path>
<path fill="none" stroke="currentColor" stroke-linejoin="round" stroke-linecap="round" stroke-miterlimit="4" stroke-width="1.3333" d="M27.201 6.4v3.867"></path>
<path fill="none" stroke="currentColor" stroke-linejoin="round" stroke-linecap="round" stroke-miterlimit="4" stroke-width="1.3333" d="M12.534 4.533c5.467-1.6 11.333 0.8 14 5.733"></path>
<path fill="none" stroke="currentColor" stroke-linejoin="round" stroke-linecap="round" stroke-miterlimit="4" stroke-width="1.3333" d="M16.4 20.267l2.267-4.267h-5.333l2.267-4.267"></path>
<path fill="none" stroke="currentColor" stroke-linejoin="round" stroke-linecap="round" stroke-miterlimit="4" stroke-width="1.3333" d="M13.067 27.733c0.933 0.267 2 0.4 3.067 0.4 6.667-0.133 11.867-5.467 11.867-12.133"></path>
<path fill="none" stroke="currentColor" stroke-linejoin="round" stroke-linecap="round" stroke-miterlimit="4" stroke-width="1.3333" d="M23.333 10.267h3.867"></path>
<path fill="none" stroke="currentColor" stroke-linejoin="round" stroke-linecap="round" stroke-miterlimit="4" stroke-width="1.3333" d="M4 16c0 1.333 0.267 2.667 0.667 4"></path>
</symbol>
<symbol id="i-government" viewBox="0 0 32 32">
<path fill="none" stroke="currentColor" stroke-linejoin="round" stroke-linecap="round" stroke-miterlimit="4" stroke-width="1.3333" d="M10.667 18.667v9.333"></path>
<path fill="none" stroke="currentColor" stroke-linejoin="round" stroke-linecap="round" stroke-miterlimit="4" stroke-width="1.3333" d="M16 18.667v9.333"></path>
<path fill="none" stroke="currentColor" stroke-linejoin="round" stroke-linecap="round" stroke-miterlimit="4" stroke-width="1.3333" d="M21.333 18.667v9.333"></path>
<path fill="none" stroke="currentColor" stroke-linejoin="round" stroke-linecap="round" stroke-miterlimit="4" stroke-width="1.3333" d="M29.333 28h-26.667"></path>
<path fill="none" stroke="currentColor" stroke-linejoin="round" stroke-linecap="round" stroke-miterlimit="4" stroke-width="1.3333" d="M16 9.333v-6c0-0.368 0.298-0.667 0.667-0.667h4c0.368 0 0.667 0.298 0.667 0.667v1.891c0 0.368-0.298 0.667-0.667 0.667h-4.667"></path>
<path fill="none" stroke="currentColor" stroke-linejoin="round" stroke-linecap="round" stroke-miterlimit="4" stroke-width="1.3333" d="M10.667 13.333v-2.114c0-0.354 0.14-0.693 0.39-0.943l0.552-0.552c0.25-0.25 0.589-0.391 0.943-0.391h6.896c0.354 0 0.693 0.141 0.943 0.391l0.552 0.552c0.25 0.25 0.391 0.589 0.391 0.943v2.115"></path>
<path fill="none" stroke="currentColor" stroke-linejoin="round" stroke-linecap="round" stroke-miterlimit="4" stroke-width="1.3333" d="M5.333 18.667h21.333"></path>
<path fill="none" stroke="currentColor" stroke-linejoin="round" stroke-linecap="round" stroke-miterlimit="4" stroke-width="1.3333" d="M26.667 28v-12.781c0-0.354-0.14-0.693-0.39-0.943l-0.552-0.552c-0.25-0.25-0.589-0.391-0.943-0.391h-17.563c-0.354 0-0.693 0.141-0.943 0.391l-0.552 0.552c-0.25 0.25-0.391 0.589-0.391 0.943v12.781"></path>
</symbol>
<symbol id="i-grain" viewBox="0 0 32 32">
<path fill="none" stroke="currentColor" stroke-linejoin="round" stroke-linecap="round" stroke-miterlimit="4" stroke-width="1.3333" d="M16 28c6.627 0 12-5.373 12-12s-5.373-12-12-12c-6.627 0-12 5.373-12 12s5.373 12 12 12z"></path>
<path fill="none" stroke="currentColor" stroke-linejoin="round" stroke-linecap="round" stroke-miterlimit="4" stroke-width="1.3333" d="M16 16.223v0c0-2.577 2.089-4.667 4.667-4.667"></path>
<path fill="none" stroke="currentColor" stroke-linejoin="round" stroke-linecap="round" stroke-miterlimit="4" stroke-width="1.3333" d="M16 21.912v0c0-2.577 2.089-4.667 4.667-4.667"></path>
<path fill="none" stroke="currentColor" stroke-linejoin="round" stroke-linecap="round" stroke-miterlimit="4" stroke-width="1.3333" d="M16 21.912c0-2.577-2.089-4.667-4.667-4.667"></path>
<path fill="none" stroke="currentColor" stroke-linejoin="round" stroke-linecap="round" stroke-miterlimit="4" stroke-width="1.3333" d="M16 16.223c0-2.577-2.089-4.667-4.667-4.667"></path>
<path fill="none" stroke="currentColor" stroke-linejoin="round" stroke-linecap="round" stroke-miterlimit="4" stroke-width="1.3333" d="M16 28v-18.667"></path>
<path fill="none" stroke="currentColor" stroke-linejoin="round" stroke-linecap="round" stroke-miterlimit="4" stroke-width="1.3333" d="M20.667 10v9.333c0 2.577-2.089 4.667-4.667 4.667v0c-2.577 0-4.667-2.089-4.667-4.667v0-9.333"></path>
</symbol>
<symbol id="i-health" viewBox="0 0 32 32">
<path fill="none" stroke="currentColor" stroke-linejoin="round" stroke-linecap="round" stroke-miterlimit="4" stroke-width="1.3333" d="M28 14.667v6.667c0 3.682-2.985 6.667-6.667 6.667h-10.667c-3.682 0-6.667-2.985-6.667-6.667v0-1.333"></path>
<path fill="none" stroke="currentColor" stroke-linejoin="round" stroke-linecap="round" stroke-miterlimit="4" stroke-width="1.3333" d="M17.333 4h-6.667c-3.682 0-6.667 2.985-6.667 6.667v0 1.333"></path>
<path fill="none" stroke="currentColor" stroke-linejoin="round" stroke-linecap="round" stroke-miterlimit="4" stroke-width="1.3333" d="M24 16h-4.977l-2.311 5.333-4.624-10.667-2.488 5.333h-5.6"></path>
<path fill="none" stroke="currentColor" stroke-linejoin="round" stroke-linecap="round" stroke-miterlimit="4" stroke-width="1.3333" d="M25.355 4.713v0c0.415-0.463 1.011-0.724 1.633-0.713v0c1.303 0.033 2.342 1.097 2.345 2.4 0 2.415-3.192 4.267-3.979 4.267s-3.979-1.852-3.979-4.267v-0.001c0-1.304 1.042-2.37 2.346-2.399v0c0.622-0.009 1.217 0.251 1.633 0.713v0z"></path>
</symbol>
<symbol id="i-hospital" viewBox="0 0 32 32">
<path fill="none" stroke="currentColor" stroke-linejoin="round" stroke-linecap="round" stroke-miterlimit="4" stroke-width="1.3333" d="M21.333 13.576h-2.907v-2.909c0-0.736-0.597-1.333-1.333-1.333h-2.181c-0.736 0-1.333 0.597-1.333 1.333v2.909h-2.912c-0.736 0-1.333 0.597-1.333 1.333v2.181c0 0.736 0.597 1.333 1.333 1.333h2.909v2.909c0 0.736 0.597 1.333 1.333 1.333h2.184c0.736 0 1.333-0.597 1.333-1.333v-2.909h2.907c0.736 0 1.333-0.597 1.333-1.333v-2.181c0-0.736-0.597-1.333-1.333-1.333v0z"></path>
<path fill="none" stroke="currentColor" stroke-linejoin="round" stroke-linecap="round" stroke-miterlimit="4" stroke-width="1.3333" d="M24.321 4h-16.636c-2.033 0-3.682 1.648-3.682 3.682v16.636c0 2.033 1.648 3.682 3.682 3.682h16.636c2.033 0 3.682-1.648 3.682-3.682v-16.636c0-2.033-1.648-3.682-3.682-3.682z"></path>
</symbol>
<symbol id="i-insurance" viewBox="0 0 32 32">
<path fill="none" stroke="currentColor" stroke-linejoin="round" stroke-linecap="round" stroke-miterlimit="4" stroke-width="1.3333" d="M25.333 13.333v-6.667c0-1.473-1.194-2.667-2.667-2.667h-16c-1.473 0-2.667 1.194-2.667 2.667v18.667c0 1.473 1.194 2.667 2.667 2.667h6.667"></path>
<path fill="none" stroke="currentColor" stroke-linejoin="round" stroke-linecap="round" stroke-miterlimit="4" stroke-width="1.3333" d="M22.862 27.609l4.747-4.747c0.52-0.521 0.52-1.365 0-1.885l-2.115-2.115c-0.521-0.521-1.365-0.521-1.885 0l-4.747 4.747c-0.25 0.25-0.391 0.589-0.391 0.943v3.448h3.448c0.354-0 0.693-0.141 0.943-0.391v0z"></path>
<path fill="none" stroke="currentColor" stroke-linejoin="round" stroke-linecap="round" stroke-miterlimit="4" stroke-width="1.3333" d="M14.667 16v4"></path>
<path fill="none" stroke="currentColor" stroke-linejoin="round" stroke-linecap="round" stroke-miterlimit="4" stroke-width="1.3333" d="M16.667 18h-4"></path>
<path fill="none" stroke="currentColor" stroke-linejoin="round" stroke-linecap="round" stroke-miterlimit="4" stroke-width="1.3333" d="M10.667 9.333h8"></path>
</symbol>
<symbol id="i-media" viewBox="0 0 32 32">
<path fill="none" stroke="currentColor" stroke-linejoin="round" stroke-linecap="round" stroke-miterlimit="4" stroke-width="1.3333" d="M12 28h-5.333c-1.473 0-2.667-1.194-2.667-2.667v-14c0-1.105 0.895-2 2-2h18.667c1.105 0 2 0.895 2 2 0 0 0 0 0 0v2"></path>
<path fill="none" stroke="currentColor" stroke-linejoin="round" stroke-linecap="round" stroke-miterlimit="4" stroke-width="1.3333" d="M6 9.333h18.667"></path>
<path fill="none" stroke="currentColor" stroke-linejoin="round" stroke-linecap="round" stroke-miterlimit="4" stroke-width="1.3333" d="M8 5.333h14.667"></path>
<path fill="none" stroke="currentColor" stroke-linejoin="round" stroke-linecap="round" stroke-miterlimit="4" stroke-width="1.3333" d="M19.831 25.811v0c0.806 0.806 0.806 2.113 0 2.919s-2.113 0.806-2.919 0c-0.806-0.806-0.806-2.113-0-2.919 0-0 0-0 0-0v0c0.806-0.805 2.112-0.805 2.919 0"></path>
<path fill="none" stroke="currentColor" stroke-linejoin="round" stroke-linecap="round" stroke-miterlimit="4" stroke-width="1.3333" d="M27.396 24.435v0c0.806 0.806 0.806 2.113 0 2.919s-2.113 0.806-2.919 0c-0.806-0.806-0.806-2.113-0-2.919 0-0 0-0 0-0v0c0.806-0.805 2.112-0.805 2.919 0"></path>
<path fill="none" stroke="currentColor" stroke-linejoin="round" stroke-linecap="round" stroke-miterlimit="4" stroke-width="1.3333" d="M20.435 27.269v-6.635c-0-0.563 0.343-1.068 0.865-1.276l4.815-1.925c0.705-0.282 1.505 0.061 1.787 0.766 0.065 0.162 0.098 0.336 0.098 0.51v7.185"></path>
</symbol>
<symbol id="i-oil" viewBox="0 0 32 32">
<path fill="none" stroke="currentColor" stroke-linejoin="round" stroke-linecap="round" stroke-miterlimit="4" stroke-width="1.3333" d="M6.667 9.333v16c0 0.707 0.281 1.386 0.781 1.886s1.178 0.781 1.886 0.781h13.333c0.707 0 1.386-0.281 1.886-0.781s0.781-1.178 0.781-1.886v-12c0-0.866-0.281-1.708-0.8-2.4l-2-2.667c-0.373-0.497-0.856-0.9-1.411-1.178s-1.168-0.422-1.789-0.422h-10c-0.707 0-1.386 0.281-1.886 0.781s-0.781 1.178-0.781 1.886v0z"></path>
<path fill="none" stroke="currentColor" stroke-linejoin="round" stroke-linecap="round" stroke-miterlimit="4" stroke-width="1.3333" d="M10.667 2.667h4c0.354 0 0.693 0.14 0.943 0.391s0.39 0.589 0.39 0.943v2.667h-6.667v-2.667c0-0.354 0.14-0.693 0.39-0.943s0.589-0.391 0.943-0.391z"></path>
<path fill="none" stroke="currentColor" stroke-linejoin="round" stroke-linecap="round" stroke-miterlimit="4" stroke-width="1.3333" d="M13.2 17.695c-0.452-0.518-0.7-1.183-0.7-1.87s0.249-1.352 0.7-1.87l1.424-1.631c0.088-0.101 0.197-0.183 0.319-0.238s0.255-0.085 0.389-0.085 0.267 0.029 0.389 0.085c0.122 0.056 0.231 0.137 0.319 0.238l1.424 1.631c0.452 0.518 0.7 1.183 0.7 1.87s-0.249 1.352-0.7 1.87v0c-0.265 0.305-0.593 0.55-0.961 0.718s-0.768 0.254-1.172 0.254-0.804-0.087-1.172-0.254c-0.368-0.168-0.696-0.412-0.961-0.718v0z"></path>
<path fill="none" stroke="currentColor" stroke-linejoin="round" stroke-linecap="round" stroke-miterlimit="4" stroke-width="1.3333" d="M18.667 22.667h-6.667"></path>
</symbol>
<symbol id="i-pills" viewBox="0 0 32 32">
<path fill="none" stroke="currentColor" stroke-linejoin="round" stroke-linecap="round" stroke-miterlimit="4" stroke-width="1.3333" d="M21.69 3.643c1.302 1.302 1.302 3.412 0 4.714s-3.412 1.302-4.714 0c-1.302-1.302-1.302-3.412 0-4.714s3.412-1.302 4.714 0"></path>
<path fill="none" stroke="currentColor" stroke-linejoin="round" stroke-linecap="round" stroke-miterlimit="4" stroke-width="1.3333" d="M11.771 9.562c2.083 2.083 2.083 5.46 0 7.542s-5.46 2.083-7.543 0c-2.083-2.083-2.083-5.46 0-7.543s5.46-2.083 7.543 0z"></path>
<path fill="none" stroke="currentColor" stroke-linejoin="round" stroke-linecap="round" stroke-miterlimit="4" stroke-width="1.3333" d="M13.333 13.333h-10.667"></path>
<path fill="none" stroke="currentColor" stroke-linejoin="round" stroke-linecap="round" stroke-miterlimit="4" stroke-width="1.3333" d="M28.153 20.207l-6.613 6.613c-1.573 1.573-4.123 1.573-5.696 0s-1.573-4.123 0-5.696l6.613-6.613c1.573-1.573 4.123-1.573 5.696 0s1.573 4.124 0 5.696z"></path>
<path fill="none" stroke="currentColor" stroke-linejoin="round" stroke-linecap="round" stroke-miterlimit="4" stroke-width="1.3333" d="M19.173 17.84l5.653 5.653"></path>
</symbol>
<symbol id="i-satellite" viewBox="0 0 32 32">
<path fill="none" stroke="currentColor" stroke-linejoin="round" stroke-linecap="round" stroke-miterlimit="4" stroke-width="1.3333" d="M21.254 16.747c3.314 0 6-2.686 6-6s-2.686-6-6-6c-3.314 0-6 2.686-6 6s2.686 6 6 6z"></path>
<path fill="none" stroke="currentColor" stroke-linejoin="round" stroke-linecap="round" stroke-miterlimit="4" stroke-width="1.3333" d="M17.013 14.986l-9.573 9.573"></path>
<path fill="none" stroke="currentColor" stroke-linejoin="round" stroke-linecap="round" stroke-miterlimit="4" stroke-width="1.3333" d="M18.123 28.676l8.378-14.662c1.71-2.993 0.671-6.806-2.322-8.516-1.919-1.097-4.274-1.097-6.193-0l-14.662 8.378"></path>
</symbol>
<symbol id="i-setting" viewBox="0 0 32 32">
<path fill="none" stroke="currentColor" stroke-linejoin="round" stroke-linecap="round" stroke-miterlimit="4" stroke-width="1.3333" d="M23 9c1.384 1.384 2.327 3.148 2.709 5.069s0.186 3.911-0.563 5.72c-0.749 1.809-2.018 3.355-3.646 4.443s-3.542 1.668-5.5 1.668c-1.958 0-3.872-0.581-5.5-1.668s-2.897-2.634-3.646-4.443c-0.749-1.809-0.945-3.799-0.563-5.72s1.325-3.684 2.709-5.069c0.919-0.919 2.011-1.649 3.212-2.146s2.488-0.754 3.788-0.754c1.3 0 2.587 0.256 3.788 0.754s2.292 1.227 3.212 2.146"></path>
<path fill="none" stroke="currentColor" stroke-linejoin="round" stroke-linecap="round" stroke-miterlimit="4" stroke-width="1.3333" d="M28 16h-2.101"></path>
<path fill="none" stroke="currentColor" stroke-linejoin="round" stroke-linecap="round" stroke-miterlimit="4" stroke-width="1.3333" d="M6.101 16h-2.101"></path>
<path fill="none" stroke="currentColor" stroke-linejoin="round" stroke-linecap="round" stroke-miterlimit="4" stroke-width="1.3333" d="M16 28v-2.101"></path>
<path fill="none" stroke="currentColor" stroke-linejoin="round" stroke-linecap="round" stroke-miterlimit="4" stroke-width="1.3333" d="M16 4v2.101"></path>
<path fill="none" stroke="currentColor" stroke-linejoin="round" stroke-linecap="round" stroke-miterlimit="4" stroke-width="1.3333" d="M27.087 11.408l-1.941 0.804"></path>
<path fill="none" stroke="currentColor" stroke-linejoin="round" stroke-linecap="round" stroke-miterlimit="4" stroke-width="1.3333" d="M6.855 19.788l-1.941 0.804"></path>
<path fill="none" stroke="currentColor" stroke-linejoin="round" stroke-linecap="round" stroke-miterlimit="4" stroke-width="1.3333" d="M11.408 4.913l0.804 1.941"></path>
<path fill="none" stroke="currentColor" stroke-linejoin="round" stroke-linecap="round" stroke-miterlimit="4" stroke-width="1.3333" d="M20.592 27.086l-0.804-1.941"></path>
<path fill="none" stroke="currentColor" stroke-linejoin="round" stroke-linecap="round" stroke-miterlimit="4" stroke-width="1.3333" d="M4.914 11.408l1.941 0.804"></path>
<path fill="none" stroke="currentColor" stroke-linejoin="round" stroke-linecap="round" stroke-miterlimit="4" stroke-width="1.3333" d="M25.146 19.788l1.941 0.804"></path>
<path fill="none" stroke="currentColor" stroke-linejoin="round" stroke-linecap="round" stroke-miterlimit="4" stroke-width="1.3333" d="M11.408 27.086l0.804-1.941"></path>
<path fill="none" stroke="currentColor" stroke-linejoin="round" stroke-linecap="round" stroke-miterlimit="4" stroke-width="1.3333" d="M20.592 4.913l-0.804 1.941"></path>
<path fill="none" stroke="currentColor" stroke-linejoin="round" stroke-linecap="round" stroke-miterlimit="4" stroke-width="1.3333" d="M24.485 24.485l-6.061-6.061"></path>
<path fill="none" stroke="currentColor" stroke-linejoin="round" stroke-linecap="round" stroke-miterlimit="4" stroke-width="1.3333" d="M13.576 13.576l-6.061-6.061"></path>
<path fill="none" stroke="currentColor" stroke-linejoin="round" stroke-linecap="round" stroke-miterlimit="4" stroke-width="1.3333" d="M24.485 7.515l-6.061 6.061"></path>
<path fill="none" stroke="currentColor" stroke-linejoin="round" stroke-linecap="round" stroke-miterlimit="4" stroke-width="1.3333" d="M13.576 18.424l-6.061 6.061"></path>
<path fill="none" stroke="currentColor" stroke-linejoin="round" stroke-linecap="round" stroke-miterlimit="4" stroke-width="1.3333" d="M18.424 13.576c0.48 0.479 0.806 1.090 0.938 1.755s0.064 1.354-0.195 1.981c-0.26 0.627-0.699 1.162-1.263 1.539s-1.227 0.578-1.905 0.578c-0.678 0-1.341-0.201-1.905-0.578s-1.003-0.912-1.263-1.539c-0.259-0.626-0.327-1.316-0.195-1.981s0.459-1.276 0.938-1.755c0.318-0.318 0.696-0.571 1.112-0.743s0.862-0.261 1.312-0.261 0.896 0.089 1.312 0.261c0.416 0.172 0.794 0.425 1.112 0.743"></path>
</symbol>
<symbol id="i-sewing" viewBox="0 0 32 32">
<path fill="none" stroke="currentColor" stroke-linejoin="round" stroke-linecap="round" stroke-miterlimit="4" stroke-width="1.3333" d="M16 28c6.627 0 12-5.373 12-12s-5.373-12-12-12c-6.627 0-12 5.373-12 12s5.373 12 12 12z"></path>
<path fill="none" stroke="currentColor" stroke-linejoin="round" stroke-linecap="round" stroke-miterlimit="4" stroke-width="1.3333" d="M18.667 10.667h8.086"></path>
<path fill="none" stroke="currentColor" stroke-linejoin="round" stroke-linecap="round" stroke-miterlimit="4" stroke-width="1.3333" d="M5.247 21.333h8.086"></path>
<path fill="none" stroke="currentColor" stroke-linejoin="round" stroke-linecap="round" stroke-miterlimit="4" stroke-width="1.3333" d="M24.485 24.485l-16.971-16.971"></path>
<path fill="none" stroke="currentColor" stroke-linejoin="round" stroke-linecap="round" stroke-miterlimit="4" stroke-width="1.3333" d="M27.484 19.484l-14.967-14.967"></path>
<path fill="none" stroke="currentColor" stroke-linejoin="round" stroke-linecap="round" stroke-miterlimit="4" stroke-width="1.3333" d="M4.517 12.517l14.965 14.965"></path>
</symbol>
<symbol id="i-bookmark" viewBox="0 0 32 32">
<path fill="none" stroke="currentColor" stroke-linejoin="round" stroke-linecap="round" stroke-miterlimit="4" stroke-width="1.3333" d="M5.333 6.667v18.667c0 0.707 0.281 1.386 0.781 1.886s1.178 0.781 1.886 0.781h16c0.707 0 1.386-0.281 1.886-0.781s0.781-1.178 0.781-1.886v-13.333c0-0.707-0.281-1.386-0.781-1.886s-1.178-0.781-1.886-0.781h-16c-0.707 0-1.386-0.281-1.886-0.781s-0.781-1.178-0.781-1.886v0zM5.333 6.667c0-0.707 0.281-1.386 0.781-1.886s1.178-0.781 1.886-0.781h17.333"></path>
<path fill="none" stroke="currentColor" stroke-linejoin="round" stroke-linecap="round" stroke-miterlimit="4" stroke-width="1.3333" d="M16 9.333v6.667l-2.667-1.333-2.667 1.333v-6.667"></path>
</symbol>
<symbol id="i-checkmark" viewBox="0 0 32 32">
<path fill="none" stroke="currentColor" stroke-linejoin="round" stroke-linecap="round" stroke-miterlimit="4" stroke-width="1.3333" d="M17.333 12h5.333"></path>
<path fill="none" stroke="currentColor" stroke-linejoin="round" stroke-linecap="round" stroke-miterlimit="4" stroke-width="1.3333" d="M9.333 11.635l1.225 1.104 2.467-2.221"></path>
<path fill="none" stroke="currentColor" stroke-linejoin="round" stroke-linecap="round" stroke-miterlimit="4" stroke-width="1.3333" d="M13.333 26.667h-2.667c-1.768 0-3.464-0.702-4.714-1.953s-1.953-2.946-1.953-4.714v-10.667c0-1.768 0.702-3.464 1.953-4.714s2.946-1.953 4.714-1.953h10.667c1.768 0 3.464 0.702 4.714 1.953s1.953 2.946 1.953 4.714v5.333"></path>
<path fill="none" stroke="currentColor" stroke-linejoin="round" stroke-linecap="round" stroke-miterlimit="4" stroke-width="1.3333" d="M9.333 18.301l1.225 1.104 2.467-2.221"></path>
<path fill="none" stroke="currentColor" stroke-linejoin="round" stroke-linecap="round" stroke-miterlimit="4" stroke-width="1.3333" d="M17.333 18.667h1.677l1.335 6.667h6.727l0.928-4.667h-8.589"></path>
<path fill="none" stroke="currentColor" stroke-linejoin="round" stroke-linecap="round" stroke-miterlimit="4" stroke-width="1.3333" d="M26.456 28.6c-0 0.013-0.004 0.026-0.011 0.037s-0.018 0.020-0.030 0.025c-0.012 0.005-0.026 0.006-0.038 0.004s-0.025-0.009-0.034-0.018-0.016-0.021-0.018-0.034c-0.003-0.013-0.001-0.026 0.004-0.038s0.014-0.023 0.024-0.030c0.011-0.007 0.024-0.011 0.037-0.011 0.009 0 0.017 0.002 0.026 0.005s0.015 0.008 0.022 0.014c0.006 0.006 0.011 0.014 0.014 0.022s0.005 0.017 0.005 0.026"></path>
<path fill="none" stroke="currentColor" stroke-linejoin="round" stroke-linecap="round" stroke-miterlimit="4" stroke-width="1.3333" d="M21.086 28.6c0 0.013-0.004 0.026-0.011 0.037s-0.018 0.020-0.030 0.025c-0.012 0.005-0.026 0.006-0.038 0.004s-0.025-0.009-0.034-0.018c-0.009-0.009-0.016-0.021-0.018-0.034s-0.001-0.026 0.004-0.038c0.005-0.012 0.014-0.023 0.025-0.030s0.024-0.011 0.037-0.011c0.009 0 0.017 0.002 0.026 0.005s0.015 0.008 0.022 0.014c0.006 0.006 0.011 0.014 0.014 0.022s0.005 0.017 0.005 0.026"></path>
</symbol>
<symbol id="i-lab" viewBox="0 0 32 32">
<path fill="none" stroke="currentColor" stroke-linejoin="round" stroke-linecap="round" stroke-miterlimit="4" stroke-width="1.3333" d="M26.667 10.667v-4c0-1.473-1.194-2.667-2.667-2.667h-17.333c-1.473 0-2.667 1.194-2.667 2.667v18.667c0 1.473 1.194 2.667 2.667 2.667h6.667"></path>
<path fill="none" stroke="currentColor" stroke-linejoin="round" stroke-linecap="round" stroke-miterlimit="4" stroke-width="1.3333" d="M12.333 20h2.333"></path>
<path fill="none" stroke="currentColor" stroke-linejoin="round" stroke-linecap="round" stroke-miterlimit="4" stroke-width="1.3333" d="M12.333 14.667h3.667"></path>
<path fill="none" stroke="currentColor" stroke-linejoin="round" stroke-linecap="round" stroke-miterlimit="4" stroke-width="1.3333" d="M12.333 9.493h9"></path>
<path fill="none" stroke="currentColor" stroke-linejoin="round" stroke-linecap="round" stroke-miterlimit="4" stroke-width="1.3333" d="M26.466 14.667h-6"></path>
<path fill="none" stroke="currentColor" stroke-linejoin="round" stroke-linecap="round" stroke-miterlimit="4" stroke-width="1.3333" d="M25.467 14.667v5.043l3.457 5.547c0.779 1.25 0.398 2.895-0.852 3.674-0.422 0.263-0.908 0.403-1.405 0.404h-6.393c-1.473 0.002-2.668-1.19-2.67-2.663-0.001-0.5 0.139-0.99 0.404-1.414l3.457-5.547v-5.043"></path>
<path fill="none" stroke="currentColor" stroke-linejoin="round" stroke-linecap="round" stroke-miterlimit="4" stroke-width="1.3333" d="M25.653 20h-4.36"></path>
<path fill="none" stroke="currentColor" stroke-linejoin="round" stroke-linecap="round" stroke-miterlimit="4" stroke-width="1.3333" d="M8.167 20.167v0c0.092 0 0.167-0.075 0.167-0.167s-0.075-0.167-0.167-0.167c-0.092 0-0.167 0.075-0.167 0.167v0 0c0 0.092 0.075 0.167 0.167 0.167"></path>
<path fill="none" stroke="currentColor" stroke-linejoin="round" stroke-linecap="round" stroke-miterlimit="4" stroke-width="1.3333" d="M8.167 14.833v0c0.092 0 0.167-0.075 0.167-0.167s-0.075-0.167-0.167-0.167c-0.092 0-0.167 0.075-0.167 0.167v0 0c0 0.092 0.075 0.167 0.167 0.167"></path>
<path fill="none" stroke="currentColor" stroke-linejoin="round" stroke-linecap="round" stroke-miterlimit="4" stroke-width="1.3333" d="M8.167 9.667v0c0.092 0 0.167-0.075 0.167-0.167s-0.075-0.167-0.167-0.167c-0.092 0-0.167 0.075-0.167 0.167v0c0 0.092 0.075 0.167 0.167 0.167"></path>
</symbol>
<symbol id="i-phone" viewBox="0 0 32 32">
<path fill="none" stroke="currentColor" stroke-linejoin="round" stroke-linecap="round" stroke-miterlimit="4" stroke-width="1.3333" d="M8 25.333h-1.333c-1.473 0-2.667-1.193-2.667-2.667v-13.085c0-1.473 1.193-2.667 2.667-2.667h1.333"></path>
<path fill="none" stroke="currentColor" stroke-linejoin="round" stroke-linecap="round" stroke-miterlimit="4" stroke-width="1.3333" d="M16.351 25.333h8.983c1.473 0 2.667-1.193 2.667-2.667v-13.085c0-1.473-1.193-2.667-2.667-2.667h-8.983"></path>
<path fill="none" stroke="currentColor" stroke-linejoin="round" stroke-linecap="round" stroke-miterlimit="4" stroke-width="1.3333" d="M13.684 28h-3.017c-1.473 0-2.667-1.193-2.667-2.667v-18.667c0-1.473 1.193-2.667 2.667-2.667h3.017c1.473 0 2.667 1.193 2.667 2.667v18.667c0 1.473-1.193 2.667-2.667 2.667z"></path>
<path fill="none" stroke="currentColor" stroke-linejoin="round" stroke-linecap="round" stroke-miterlimit="4" stroke-width="1.3333" d="M20 12h4"></path>
<path fill="none" stroke="currentColor" d="M20.8 16.8c0 0.442-0.358 0.8-0.8 0.8s-0.8-0.358-0.8-0.8c0-0.442 0.358-0.8 0.8-0.8s0.8 0.358 0.8 0.8z"></path>
<path fill="none" stroke="currentColor" d="M20.8 20.533c0 0.442-0.358 0.8-0.8 0.8s-0.8-0.358-0.8-0.8c0-0.442 0.358-0.8 0.8-0.8s0.8 0.358 0.8 0.8z"></path>
<path fill="none" stroke="currentColor" d="M24.533 16.8c0 0.442-0.358 0.8-0.8 0.8s-0.8-0.358-0.8-0.8c0-0.442 0.358-0.8 0.8-0.8s0.8 0.358 0.8 0.8z"></path>
<path fill="none" stroke="currentColor" d="M24.533 20.533c0 0.442-0.358 0.8-0.8 0.8s-0.8-0.358-0.8-0.8c0-0.442 0.358-0.8 0.8-0.8s0.8 0.358 0.8 0.8z"></path>
</symbol>
<symbol id="i-truck" viewBox="0 0 32 32">
<path fill="none" stroke="currentColor" stroke-linejoin="round" stroke-linecap="round" stroke-miterlimit="4" stroke-width="1.3333" d="M21.333 24.56h-10.213"></path>
<path fill="none" stroke="currentColor" stroke-linejoin="round" stroke-linecap="round" stroke-miterlimit="4" stroke-width="1.3333" d="M29.334 17.333h-4.68c-0.373-0.013-0.667-0.307-0.667-0.68v-4.668h4.653"></path>
<path fill="none" stroke="currentColor" stroke-linejoin="round" stroke-linecap="round" stroke-miterlimit="4" stroke-width="1.3333" d="M24.734 23.24c0.773 0.773 0.773 2.040 0 2.827-0.787 0.773-2.053 0.773-2.84 0-0.787-0.787-0.787-2.053-0.013-2.84 0-0.013 0-0.013 0-0.013v-0.013h-0.013c0.773-0.787 2.040-0.787 2.827-0.013"></path>
<path fill="none" stroke="currentColor" stroke-linejoin="round" stroke-linecap="round" stroke-miterlimit="4" stroke-width="1.3333" d="M2.667 5.333h10.667"></path>
<path fill="none" stroke="currentColor" stroke-linejoin="round" stroke-linecap="round" stroke-miterlimit="4" stroke-width="1.3333" d="M13.334 5.333h-0.013c0.733-0.013 1.333 0.587 1.333 1.32"></path>
<path fill="none" stroke="currentColor" stroke-linejoin="round" stroke-linecap="round" stroke-miterlimit="4" stroke-width="1.3333" d="M14.667 6.667v8"></path>
<path fill="none" stroke="currentColor" stroke-linejoin="round" stroke-linecap="round" stroke-miterlimit="4" stroke-width="1.3333" d="M6.080 23.24c0.773 0.773 0.773 2.040 0 2.827-0.787 0.773-2.053 0.773-2.84 0-0.787-0.787-0.787-2.053-0.013-2.84 0-0.013 0-0.013 0-0.013v-0.013h-0.013c0.773-0.787 2.040-0.787 2.827 0"></path>
<path fill="none" stroke="currentColor" stroke-linejoin="round" stroke-linecap="round" stroke-miterlimit="4" stroke-width="1.3333" d="M10.307 23.24c0.773 0.773 0.773 2.040 0 2.827-0.787 0.773-2.053 0.773-2.84 0-0.787-0.787-0.787-2.053-0.013-2.84 0-0.013 0-0.013 0-0.013v-0.013h-0.013c0.773-0.787 2.040-0.787 2.827 0"></path>
<path fill="none" stroke="currentColor" stroke-linejoin="round" stroke-linecap="round" stroke-miterlimit="4" stroke-width="1.3333" d="M25.32 24.667h2.653c0.733 0 1.333-0.6 1.333-1.333v-9.387c0-0.427-0.107-0.827-0.293-1.2l-1.653-3.307c-0.453-0.907-1.387-1.48-2.387-1.48h-6.36"></path>
<path fill="none" stroke="currentColor" stroke-linejoin="round" stroke-linecap="round" stroke-miterlimit="4" stroke-width="1.3333" d="M2.667 18.667h16v-13.333"></path>
</symbol>
</defs>
</svg>
