<svg width="273" height="220" viewBox="0 0 273 220" fill="none" xmlns="http://www.w3.org/2000/svg">
<rect x="120.5" y="67.5" width="152" height="152" stroke="#70C1A0"/>
<path d="M55.1137 114.047C55.1137 113.272 54.9773 112.521 54.9773 111.769C54.9773 97.1363 60.7803 83.1031 71.1097 72.7563C81.4391 62.4096 95.4488 56.5968 110.057 56.5968C124.665 56.5968 138.675 62.4096 149.004 72.7563C159.333 83.1031 165.136 97.1363 165.136 111.769C165.136 112.543 165.136 113.295 165.023 114.047H219.989C219.989 113.272 219.989 112.521 219.989 111.769C220.198 97.1674 217.508 82.6699 212.075 69.119C206.641 55.5681 198.573 43.2343 188.339 32.8345C178.105 22.4346 165.909 14.1763 152.46 8.53953C139.012 2.90276 124.579 0 110 0C95.4215 0 80.9884 2.90276 67.5398 8.53953C54.0911 14.1763 41.8953 22.4346 31.6611 32.8345C21.4269 43.2343 13.3586 55.5681 7.92522 69.119C2.49184 82.6699 -0.198239 97.1674 0.0113716 111.769C0.0113716 112.543 0.0113716 113.295 0.0113716 114.047L55.1137 114.047Z" fill="#688595"/>
</svg>
