<svg width="246" height="182" viewBox="0 0 246 182" fill="none" xmlns="http://www.w3.org/2000/svg">
<path d="M26.5114 69.2852L26.5114 69.278L26.5114 69.2736L26.5114 69.2692L26.5114 69.2648L26.5114 69.2604L26.5114 69.256L26.5114 69.2516L26.5114 69.2472L26.5114 69.2428L26.5114 69.2384L26.5114 69.234L26.5114 69.2296L26.5114 69.2252L26.5114 69.2208L26.5114 69.2164L26.5114 69.2119L26.5114 69.2075L26.5114 69.2031L26.5114 69.1987L26.5114 69.1943L26.5114 69.1899L26.5114 69.1855L26.5114 69.1811L26.5114 69.1767L26.5114 69.1723L26.5114 69.1679L26.5114 69.1635L26.5114 69.1591L26.5114 69.1547L26.5114 69.1503L26.5114 69.1459L26.5114 69.1415L26.5114 69.1371L26.5114 69.1327L26.5114 69.1283L26.5114 69.1239L26.5114 69.1194L26.5114 69.115L26.5114 69.1106L26.5114 69.1062L26.5114 69.1018L26.5114 69.0974L26.5114 69.093L26.5114 69.0886L26.5114 69.0842L26.5114 69.0798L26.5114 69.0754L26.5114 69.071L26.5114 69.0666L26.5114 69.0622L26.5114 69.0578L26.5114 69.0534L26.5114 69.049L26.5114 69.0446L26.5114 69.0401L26.5114 69.0357L26.5114 69.0313L26.5114 69.0269L26.5114 69.0225L26.5114 69.0181L26.5114 69.0137L26.5114 69.0093L26.5114 69.0049L26.5114 69.0005L26.5114 68.9961L26.5114 68.9917L26.5114 68.9873L26.5114 68.9829L26.5114 68.9785L26.5114 68.974L26.5114 68.9696L26.5114 68.9652L26.5114 68.9608L26.5114 68.9564L26.5114 68.952L26.5114 68.9476L26.5114 68.9432L26.5114 68.9388L26.5114 68.9344L26.5114 68.93L26.5114 68.9256L26.5114 68.9212L26.5114 68.9167L26.5114 68.9123L26.5114 68.9079L26.5114 68.9035L26.5114 68.8991L26.5114 68.8947L26.5114 68.8903L26.5114 68.8859L26.5114 68.8815L26.5114 68.8771L26.5114 68.8727L26.5114 68.8683L26.5114 68.8638L26.5114 68.8594L26.5114 68.855L26.5114 68.8506L26.5114 68.8462L26.5114 68.8418L26.5114 68.8374L26.5114 68.833L26.5114 68.8286L26.5114 68.8242L26.5114 68.8197L26.5114 68.8153L26.5114 68.8109L26.5114 68.8065L26.5114 68.8021L26.5114 68.7977L26.5114 68.7933L26.5114 68.7889L26.5114 68.7845L26.5114 68.78L26.5114 68.7756L26.5114 68.7712L26.5114 68.7668L26.5114 68.7624L26.5114 68.758L26.5114 68.7536L26.5114 68.7492L26.5114 68.7448L26.5114 68.7403L26.5114 68.7359L26.5114 68.7315L26.5114 68.7271L26.5114 68.7227L26.5114 68.7183L26.5114 68.7139L26.5114 68.7095L26.5114 68.705L26.5114 68.7006L26.5114 68.6962L26.5114 68.6918L26.5114 68.6874L26.5114 68.683L26.5114 68.6786L26.5114 68.6741L26.5114 68.6697L26.5114 68.6653L26.5114 68.6609L26.5114 68.6565L26.5114 68.6521L26.5114 68.6477L26.5114 68.6432L26.5114 68.6388L26.5114 68.6344L26.5114 68.63L26.5114 68.6256L26.5114 68.6212L26.5114 68.6167L26.5114 68.6123L26.5114 68.6079L26.5114 68.6035L26.5114 68.5991L26.5114 68.5947L26.5114 68.5903L26.5114 68.5858L26.5114 68.5814L26.5114 68.577L26.5114 68.5726L26.5114 68.5682L26.5114 68.5637L26.5114 68.5593L26.5114 68.5549L26.5114 68.5505L26.5114 68.5461L26.5114 68.5417L26.5114 68.5372L26.5114 68.5328L26.5114 68.5284L26.5114 68.524L26.5114 68.5196L26.5114 68.5151L26.5114 68.5107L26.5114 68.5063L26.5114 68.5019L26.5114 68.4975L26.5114 68.493L26.5114 68.4886L26.5114 68.4842L26.5114 68.4798L26.5114 68.4754L26.5114 68.4709L26.5114 68.4665L26.5114 68.4621L26.5114 68.4577L26.5114 68.4532L26.5114 68.4488L26.5114 68.4444L26.5114 68.44L26.5114 68.4356L26.5114 68.4311L26.5114 68.4267L26.5114 68.4223L26.5114 68.4179L26.5114 68.4134L26.5114 68.409L26.5114 68.4046L26.5114 68.4002L26.5114 68.3957L26.5114 68.3913L26.5114 68.3869L26.5114 68.3825L26.5114 68.378L26.5114 68.3736L26.5114 68.3692L26.5114 68.3648L26.5114 68.3603L26.5114 68.3559L26.5114 68.3515L26.5114 68.347L26.5114 68.3426L26.5114 68.3382L26.5114 68.3338L26.5114 68.3293L26.5114 68.3249L26.5114 68.3205L26.5114 68.3161L26.5114 68.3116L26.5114 68.3072L26.5114 68.3028L26.5114 68.2983L26.5114 68.2939L26.5114 68.2895L26.5114 68.285L26.5114 68.2806L26.5114 68.2762L26.5114 68.2717L26.5114 68.2673L26.5114 68.2629L26.5114 68.2585L26.5114 68.254L26.5114 68.2496L26.5114 68.2452L26.5114 68.2407L26.5114 68.2363L26.5114 68.2319L26.5114 68.2274L26.5114 68.223L26.5114 68.2186L26.5114 68.2141L26.5114 68.2097L26.5114 68.2053L26.5114 68.2008L26.5114 68.1964L26.5114 68.192L26.5114 68.1875L26.5114 68.1831L26.5114 68.1786L26.5114 68.1742L26.5114 68.1698L26.5114 68.1653L26.5114 68.1609L26.5114 68.1565L26.5114 68.152L26.5114 68.1476L26.5114 68.1431L26.5114 68.1387L26.5114 68.1343L26.5114 68.1298L26.5114 68.1254L26.5114 68.121L26.5114 68.1165L26.5114 68.1121L26.5114 68.1076L26.5114 68.1032L26.5114 68.0988L26.5114 68.0943L26.5114 68.0899L26.5114 68.0854L26.5114 68.081L26.5114 68.0765L26.5114 68.0721L26.5114 68.0677L26.5114 68.0632L26.5114 68.0588L26.5114 68.0543L26.5114 68.0499L26.5114 68.0454L26.5114 68.041L26.5114 68.0365L26.5114 68.0321L26.5114 68.0277L26.5114 68.0232L26.5114 68.0188L26.5114 68.0143L26.5114 68.0099L26.5114 68.0054L26.5114 68.001L26.5114 67.9965L26.5114 67.9921L26.5114 67.9876L26.5114 67.9832L26.5114 67.9787L26.5114 67.9743L26.5114 67.9698L26.5114 67.9654L26.5114 67.9609L26.5114 67.9565L26.5114 67.952L26.5114 67.9476L26.5114 67.9431L26.5114 67.9387L26.5114 67.9342L26.5114 67.9298L26.5114 67.9253L26.5114 67.9209L26.5114 67.9164L26.5114 67.912L26.5114 67.9075L26.5114 67.9031L26.5114 67.8986L26.5114 67.8942L26.5114 67.8897L26.5114 67.8853L26.5114 67.8808L26.5114 67.8763L26.5114 67.8719L26.5114 67.8674L26.5114 67.863L26.5114 67.8585L26.5114 67.8541L26.5114 67.8496L26.5114 67.8451L26.5114 67.8407L26.5114 67.8362L26.5114 67.8318L26.5114 67.8273L26.5114 67.8228L26.5114 67.8184L26.5114 67.8139L26.5114 67.8095L26.5114 67.805L26.5114 67.8005L26.5114 67.7961L26.5114 67.7916L26.5114 67.7872L26.5114 67.7827L26.5114 67.7782L26.5114 67.7738L26.5114 67.7693L26.5114 67.7648L26.5114 67.7604L26.5114 67.7559L26.5114 67.7515L26.5114 67.747L26.5114 67.7425L26.5114 67.7381L26.5114 67.7336L26.5114 67.7291L26.5114 67.7247L26.5114 67.7202L26.5114 67.7157L26.5114 67.7112L26.5114 67.7068L26.5114 67.7023L26.5114 67.6978L26.5114 67.6934L26.5114 67.6889L26.5114 67.6844L26.5114 67.68L26.5114 67.6755L26.5114 67.671L26.5114 67.6665L26.5114 67.6621L26.5114 67.6576L26.5114 67.6531L26.5114 67.6487L26.5114 67.6442L26.5114 67.6397L26.5114 67.6352L26.5114 67.6308L26.5114 67.6263L26.5114 67.6218L26.5114 67.6173L26.5114 67.6129L26.5114 67.6084L26.5114 67.6039L26.5114 67.5994L26.5114 67.5949L26.5114 67.5905L26.5114 67.586L26.5114 67.5815L26.5114 67.577L26.5114 67.5726L26.5114 67.5681L26.5114 67.5636L26.5114 67.5591L26.5114 67.5546L26.5114 67.5501L26.5114 67.5457L26.5114 67.5412L26.5114 67.5367L26.5114 67.5322L26.5114 67.5277L26.5114 67.5232L26.5114 67.5188L26.5114 67.5143L26.5114 67.5098L26.5114 67.5053L26.5114 67.5008L26.5114 67.5001L80.4152 67.5001C80.3635 68.0945 80.3635 68.6836 80.3635 69.2607L80.3635 69.278C80.3635 84.0429 86.219 98.2032 96.6421 108.644C107.065 119.084 121.202 124.95 135.943 124.95C150.684 124.95 164.821 119.084 175.244 108.644C185.667 98.2032 191.523 84.0429 191.523 69.278C191.523 68.8823 191.487 68.4902 191.454 68.1211L191.452 68.1027C191.434 67.8966 191.416 67.6969 191.404 67.5001L245.489 67.5L245.489 67.5024L245.489 67.5068L245.489 67.5113L245.489 67.5157L245.489 67.5201L245.489 67.5245L245.489 67.5289L245.489 67.5333L245.489 67.5377L245.489 67.5421L245.489 67.5465L245.489 67.551L245.489 67.5554L245.489 67.5598L245.489 67.5642L245.489 67.5686L245.489 67.573L245.489 67.5774L245.489 67.5819L245.489 67.5863L245.489 67.5907L245.489 67.5951L245.489 67.5995L245.489 67.6039L245.489 67.6083L245.489 67.6127L245.489 67.6172L245.489 67.6216L245.489 67.626L245.489 67.6304L245.489 67.6348L245.489 67.6392L245.489 67.6437L245.489 67.6481L245.489 67.6525L245.489 67.6569L245.489 67.6613L245.489 67.6657L245.489 67.6702L245.489 67.6746L245.489 67.679L245.489 67.6834L245.489 67.6878L245.489 67.6922L245.489 67.6967L245.489 67.7011L245.489 67.7055L245.489 67.7099L245.489 67.7143L245.489 67.7187L245.489 67.7232L245.489 67.7276L245.489 67.732L245.489 67.7364L245.489 67.7408L245.489 67.7453L245.489 67.7497L245.489 67.7541L245.489 67.7585L245.489 67.7629L245.489 67.7673L245.489 67.7718L245.489 67.7762L245.489 67.7806L245.489 67.785L245.489 67.7895L245.489 67.7939L245.489 67.7983L245.489 67.8027L245.489 67.8071L245.489 67.8116L245.489 67.816L245.489 67.8204L245.489 67.8248L245.489 67.8292L245.489 67.8337L245.489 67.8381L245.489 67.8425L245.489 67.8469L245.489 67.8514L245.489 67.8558L245.489 67.8602L245.489 67.8646L245.489 67.8691L245.489 67.8735L245.489 67.8779L245.489 67.8823L245.489 67.8868L245.489 67.8912L245.489 67.8956L245.489 67.9L245.489 67.9045L245.489 67.9089L245.489 67.9133L245.489 67.9177L245.489 67.9222L245.489 67.9266L245.489 67.931L245.489 67.9354L245.489 67.9399L245.489 67.9443L245.489 67.9487L245.489 67.9532L245.489 67.9576L245.489 67.962L245.489 67.9664L245.489 67.9709L245.489 67.9753L245.489 67.9797L245.489 67.9842L245.489 67.9886L245.489 67.993L245.489 67.9975L245.489 68.0019L245.489 68.0063L245.489 68.0107L245.489 68.0152L245.489 68.0196L245.489 68.024L245.489 68.0285L245.489 68.0329L245.489 68.0373L245.489 68.0418L245.489 68.0462L245.489 68.0506L245.489 68.0551L245.489 68.0595L245.489 68.0639L245.489 68.0684L245.489 68.0728L245.489 68.0772L245.489 68.0817L245.489 68.0861L245.489 68.0906L245.489 68.095L245.489 68.0994L245.489 68.1039L245.489 68.1083L245.489 68.1127L245.489 68.1172L245.489 68.1216L245.489 68.126L245.489 68.1305L245.489 68.1349L245.489 68.1394L245.489 68.1438L245.489 68.1482L245.489 68.1527L245.489 68.1571L245.489 68.1616L245.489 68.166L245.489 68.1704L245.489 68.1749L245.489 68.1793L245.489 68.1838L245.489 68.1882L245.489 68.1926L245.489 68.1971L245.489 68.2015L245.489 68.206L245.489 68.2104L245.489 68.2149L245.489 68.2193L245.489 68.2237L245.489 68.2282L245.489 68.2326L245.489 68.2371L245.489 68.2415L245.489 68.246L245.489 68.2504L245.489 68.2549L245.489 68.2593L245.489 68.2637L245.489 68.2682L245.489 68.2726L245.489 68.2771L245.489 68.2815L245.489 68.286L245.489 68.2904L245.489 68.2949L245.489 68.2993L245.489 68.3038L245.489 68.3082L245.489 68.3127L245.489 68.3171L245.489 68.3216L245.489 68.326L245.489 68.3305L245.489 68.3349L245.489 68.3394L245.489 68.3438L245.489 68.3483L245.489 68.3527L245.489 68.3572L245.489 68.3616L245.489 68.3661L245.489 68.3705L245.489 68.375L245.489 68.3795L245.489 68.3839L245.489 68.3884L245.489 68.3928L245.489 68.3973L245.489 68.4017L245.489 68.4062L245.489 68.4106L245.489 68.4151L245.489 68.4196L245.489 68.424L245.489 68.4285L245.489 68.4329L245.489 68.4374L245.489 68.4418L245.489 68.4463L245.489 68.4508L245.489 68.4552L245.489 68.4597L245.489 68.4641L245.489 68.4686L245.489 68.4731L245.489 68.4775L245.489 68.482L245.489 68.4865L245.489 68.4909L245.489 68.4954L245.489 68.4998L245.489 68.5043L245.489 68.5088L245.489 68.5132L245.489 68.5177L245.489 68.5222L245.489 68.5266L245.489 68.5311L245.489 68.5356L245.489 68.54L245.489 68.5445L245.489 68.549L245.489 68.5534L245.489 68.5579L245.489 68.5624L245.489 68.5668L245.489 68.5713L245.489 68.5758L245.489 68.5802L245.489 68.5847L245.489 68.5892L245.489 68.5936L245.489 68.5981L245.489 68.6026L245.489 68.607L245.489 68.6115L245.489 68.616L245.489 68.6205L245.489 68.6249L245.489 68.6294L245.489 68.6339L245.489 68.6384L245.489 68.6428L245.489 68.6473L245.489 68.6518L245.489 68.6563L245.489 68.6607L245.489 68.6652L245.489 68.6697L245.489 68.6742L245.489 68.6786L245.489 68.6831L245.489 68.6876L245.489 68.6921L245.489 68.6966L245.489 68.701L245.489 68.7055L245.489 68.71L245.489 68.7145L245.489 68.719L245.489 68.7234L245.489 68.7279L245.489 68.7324L245.489 68.7369L245.489 68.7414L245.489 68.7459L245.489 68.7503L245.489 68.7548L245.489 68.7593L245.489 68.7638L245.489 68.7683L245.489 68.7728L245.489 68.7773L245.489 68.7817L245.489 68.7862L245.489 68.7907L245.489 68.7952L245.489 68.7997L245.489 68.8042L245.489 68.8087L245.489 68.8132L245.489 68.8176L245.489 68.8221L245.489 68.8266L245.489 68.8311L245.489 68.8356L245.489 68.8401L245.489 68.8446L245.489 68.8491L245.489 68.8536L245.489 68.8581L245.489 68.8626L245.489 68.8671L245.489 68.8716L245.489 68.8761L245.489 68.8806L245.489 68.885L245.489 68.8895L245.489 68.894L245.489 68.8985L245.489 68.903L245.489 68.9075L245.489 68.912L245.489 68.9165L245.489 68.921L245.489 68.9255L245.489 68.93L245.489 68.9345L245.489 68.939L245.489 68.9435L245.489 68.948L245.489 68.9525L245.489 68.957L245.489 68.9616L245.489 68.9661L245.489 68.9706L245.489 68.9751L245.489 68.9796L245.489 68.9841L245.489 68.9886L245.489 68.9931L245.489 68.9976L245.489 69.0021L245.489 69.0066L245.489 69.0111L245.489 69.0156L245.489 69.0201L245.489 69.0247L245.489 69.0292L245.489 69.0337L245.489 69.0382L245.489 69.0427L245.489 69.0472L245.489 69.0517L245.489 69.0562L245.489 69.0608L245.489 69.0653L245.489 69.0698L245.489 69.0743L245.489 69.0788L245.489 69.0833L245.489 69.0878L245.489 69.0924L245.489 69.0969L245.489 69.1014L245.489 69.1059L245.489 69.1104L245.489 69.115L245.489 69.1195L245.489 69.124L245.489 69.1285L245.489 69.133L245.489 69.1376L245.489 69.1421L245.489 69.1466L245.489 69.1511L245.489 69.1557L245.489 69.1602L245.489 69.1647L245.489 69.1692L245.489 69.1738L245.489 69.1783L245.489 69.1828L245.489 69.1873L245.489 69.1919L245.489 69.1964L245.489 69.2009L245.489 69.2055L245.489 69.21L245.489 69.2145L245.489 69.219L245.489 69.2236L245.489 69.2281L245.489 69.2326L245.489 69.2372L245.489 69.2417L245.489 69.2462L245.489 69.2508L245.489 69.2553L245.489 69.2598L245.489 69.2644L245.489 69.2689L245.489 69.2735L245.489 69.278L245.489 69.2852C245.697 83.8205 243.019 98.2524 237.611 111.742C232.202 125.231 224.17 137.509 213.983 147.862C203.795 158.214 191.654 166.435 178.267 172.046C164.88 177.657 150.512 180.547 136 180.547C121.488 180.547 107.12 177.657 93.733 172.046C80.3456 166.435 68.2052 158.214 58.0175 147.862C47.8298 137.509 39.798 125.231 34.3893 111.742C28.9805 98.2524 26.3026 83.8205 26.5114 69.2852Z" stroke="#193F3F"/>
<circle cx="58.5" cy="58.5" r="58.5" fill="#70C1A0"/>
</svg>
