<svg width="335" height="318" viewBox="0 0 335 318" fill="none" xmlns="http://www.w3.org/2000/svg">
<rect x="14.5" y="64.6094" width="145" height="145" stroke="#193F3F"/>
<path d="M116.315 132.277C116.919 131.673 117.398 130.98 117.984 130.393C129.394 118.984 144.9 112.606 161.093 112.663C177.285 112.72 192.837 119.208 204.328 130.698C215.818 142.188 222.305 157.74 222.362 173.933C222.419 190.125 216.042 205.632 204.632 217.041C204.028 217.645 203.442 218.231 202.766 218.728L246.001 261.963C246.605 261.359 247.191 260.773 247.777 260.186C259.327 248.966 268.516 235.546 274.808 220.706C281.1 205.866 284.371 189.903 284.43 173.744C284.489 157.585 281.336 141.553 275.153 126.579C268.97 111.606 259.88 97.9897 248.413 86.5227C236.946 75.0557 223.33 65.9664 208.357 59.7833C193.383 53.6002 177.351 50.4466 161.192 50.5058C145.033 50.565 129.07 53.8358 114.23 60.1281C99.3902 66.4205 85.97 75.6087 74.7496 87.1589C74.1457 87.7628 73.5596 88.3489 72.9734 88.9351L116.315 132.277Z" fill="#688595"/>
<circle cx="58.5" cy="258.609" r="58.5" fill="#70C1A0"/>
</svg>
