<svg width="209" height="257" viewBox="0 0 209 257" fill="none" xmlns="http://www.w3.org/2000/svg">
<rect x="56.5" y="104.5" width="152" height="152" stroke="#70C1A0"/>
<path d="M114.047 164.886C113.272 164.886 112.521 165.023 111.769 165.023C97.1363 165.023 83.1031 159.22 72.7563 148.89C62.4096 138.561 56.5968 124.551 56.5968 109.943C56.5968 95.3351 62.4096 81.3254 72.7563 70.996C83.1031 60.6665 97.1363 54.8635 111.769 54.8635C112.543 54.8635 113.295 54.8636 114.047 54.9773L114.047 0.0113628C113.272 0.0113628 112.521 0.0113629 111.769 0.0113629C97.1674 -0.198246 82.6699 2.49183 69.119 7.92521C55.5681 13.3586 43.2343 21.4269 32.8345 31.6611C22.4346 41.8952 14.1763 54.0911 8.53953 67.5398C2.90275 80.9884 -5.4455e-06 95.4215 -4.80825e-06 110C-4.17101e-06 124.578 2.90275 139.012 8.53953 152.46C14.1763 165.909 22.4346 178.105 32.8345 188.339C43.2343 198.573 55.5681 206.641 69.119 212.075C82.6699 217.508 97.1674 220.198 111.769 219.989C112.543 219.989 113.295 219.989 114.047 219.989L114.047 164.886Z" fill="#70C1A0"/>
</svg>
