<svg width="280" height="237" viewBox="0 0 280 237" fill="none" xmlns="http://www.w3.org/2000/svg">
<path d="M277.229 79.389L277.234 79.3941L277.238 79.3972L277.241 79.4003L277.244 79.4035L277.247 79.4066L277.25 79.4097L277.253 79.4128L277.256 79.4159L277.259 79.419L277.262 79.4221L277.266 79.4253L277.269 79.4284L277.272 79.4315L277.275 79.4346L277.278 79.4377L277.281 79.4408L277.284 79.4439L277.287 79.4471L277.29 79.4502L277.294 79.4533L277.297 79.4564L277.3 79.4595L277.303 79.4626L277.306 79.4657L277.309 79.4689L277.312 79.472L277.315 79.4751L277.319 79.4782L277.322 79.4813L277.325 79.4844L277.328 79.4875L277.331 79.4907L277.334 79.4938L277.337 79.4969L277.34 79.5L277.343 79.5031L277.347 79.5062L277.35 79.5094L277.353 79.5125L277.356 79.5156L277.359 79.5187L277.362 79.5218L277.365 79.5249L277.368 79.528L277.371 79.5312L277.375 79.5343L277.378 79.5374L277.381 79.5405L277.384 79.5436L277.387 79.5467L277.39 79.5498L277.393 79.553L277.396 79.5561L277.4 79.5592L277.403 79.5623L277.406 79.5654L277.409 79.5685L277.412 79.5717L277.415 79.5748L277.418 79.5779L277.421 79.581L277.424 79.5841L277.428 79.5872L277.431 79.5904L277.434 79.5935L277.437 79.5966L277.44 79.5997L277.443 79.6028L277.446 79.6059L277.449 79.6091L277.452 79.6122L277.456 79.6153L277.459 79.6184L277.462 79.6215L277.465 79.6246L277.468 79.6278L277.471 79.6309L277.474 79.634L277.477 79.6371L277.481 79.6402L277.484 79.6433L277.487 79.6464L277.49 79.6496L277.493 79.6527L277.496 79.6558L277.499 79.6589L277.502 79.662L277.505 79.6652L277.509 79.6683L277.512 79.6714L277.515 79.6745L277.518 79.6776L277.521 79.6807L277.524 79.6839L277.527 79.687L277.53 79.6901L277.534 79.6932L277.537 79.6963L277.54 79.6994L277.543 79.7026L277.546 79.7057L277.549 79.7088L277.552 79.7119L277.555 79.715L277.558 79.7182L277.562 79.7213L277.565 79.7244L277.568 79.7275L277.571 79.7306L277.574 79.7337L277.577 79.7369L277.58 79.74L277.583 79.7431L277.587 79.7462L277.59 79.7493L277.593 79.7525L277.596 79.7556L277.599 79.7587L277.602 79.7618L277.605 79.7649L277.608 79.7681L277.612 79.7712L277.615 79.7743L277.618 79.7774L277.621 79.7805L277.624 79.7837L277.627 79.7868L277.63 79.7899L277.633 79.793L277.636 79.7961L277.64 79.7993L277.643 79.8024L277.646 79.8055L277.649 79.8086L277.652 79.8117L277.655 79.8149L277.658 79.818L277.661 79.8211L277.665 79.8242L277.668 79.8274L277.671 79.8305L277.674 79.8336L277.677 79.8367L277.68 79.8398L277.683 79.843L277.686 79.8461L277.69 79.8492L277.693 79.8523L277.696 79.8554L277.699 79.8586L277.702 79.8617L277.705 79.8648L277.708 79.8679L277.711 79.8711L277.715 79.8742L277.718 79.8773L277.721 79.8804L277.724 79.8836L277.727 79.8867L277.73 79.8898L277.733 79.8929L277.736 79.896L277.739 79.8992L277.743 79.9023L277.746 79.9054L277.749 79.9085L277.752 79.9117L277.755 79.9148L277.758 79.9179L277.761 79.921L277.764 79.9242L277.768 79.9273L277.771 79.9304L277.774 79.9335L277.777 79.9367L277.78 79.9398L277.783 79.9429L277.786 79.946L277.789 79.9492L277.793 79.9523L277.796 79.9554L277.799 79.9586L277.802 79.9617L277.805 79.9648L277.808 79.9679L277.811 79.9711L277.815 79.9742L277.818 79.9773L277.821 79.9804L277.824 79.9836L277.827 79.9867L277.83 79.9898L277.833 79.993L277.836 79.9961L277.84 79.9992L277.843 80.0023L277.846 80.0055L277.849 80.0086L277.852 80.0117L277.855 80.0148L277.858 80.018L277.861 80.0211L277.865 80.0242L277.868 80.0274L277.871 80.0305L277.874 80.0336L277.877 80.0368L277.88 80.0399L277.883 80.043L277.886 80.0461L277.89 80.0493L277.893 80.0524L277.896 80.0555L277.899 80.0587L277.902 80.0618L277.905 80.0649L277.908 80.0681L277.912 80.0712L277.915 80.0743L277.918 80.0775L277.921 80.0806L277.924 80.0837L277.927 80.0868L277.93 80.09L277.933 80.0931L277.937 80.0962L277.94 80.0994L277.943 80.1025L277.946 80.1056L277.949 80.1088L277.952 80.1119L277.955 80.115L277.958 80.1182L277.962 80.1213L277.965 80.1244L277.968 80.1276L277.971 80.1307L277.974 80.1339L277.977 80.137L277.98 80.1401L277.984 80.1433L277.987 80.1464L277.99 80.1495L277.993 80.1527L277.996 80.1558L277.999 80.1589L278.002 80.1621L278.006 80.1652L278.009 80.1683L278.012 80.1715L278.015 80.1746L278.018 80.1778L278.021 80.1809L278.024 80.184L278.027 80.1872L278.031 80.1903L278.034 80.1934L278.037 80.1966L278.04 80.1997L278.043 80.2029L278.046 80.206L278.049 80.2091L278.053 80.2123L278.056 80.2154L278.059 80.2186L278.062 80.2217L278.065 80.2248L278.068 80.228L278.071 80.2311L278.075 80.2343L278.078 80.2374L278.081 80.2405L278.084 80.2437L278.087 80.2468L278.09 80.25L278.093 80.2531L278.097 80.2562L278.1 80.2594L278.103 80.2625L278.106 80.2657L278.109 80.2688L278.112 80.272L278.115 80.2751L278.119 80.2782L278.122 80.2814L278.125 80.2845L278.128 80.2877L278.131 80.2908L278.134 80.294L278.137 80.2971L278.141 80.3003L278.144 80.3034L278.147 80.3065L278.15 80.3097L278.153 80.3128L278.156 80.316L278.159 80.3191L278.163 80.3223L278.166 80.3254L278.169 80.3286L278.172 80.3317L278.175 80.3349L278.178 80.338L278.181 80.3412L278.185 80.3443L278.188 80.3474L278.191 80.3506L278.194 80.3537L278.197 80.3569L278.2 80.36L278.204 80.3632L278.207 80.3663L278.21 80.3695L278.213 80.3726L278.216 80.3758L278.219 80.3789L278.222 80.3821L278.226 80.3852L278.229 80.3884L278.232 80.3915L278.235 80.3947L278.238 80.3978L278.241 80.401L278.244 80.4041L278.248 80.4073L278.251 80.4105L278.254 80.4136L278.257 80.4168L278.26 80.4199L278.263 80.4231L278.267 80.4262L278.27 80.4294L278.273 80.4325L278.276 80.4357L278.279 80.4388L278.282 80.442L278.285 80.4451L278.289 80.4483L278.292 80.4515L278.295 80.4546L278.298 80.4578L278.301 80.4609L278.304 80.4641L278.308 80.4672L278.311 80.4704L278.314 80.4736L278.317 80.4767L278.32 80.4799L278.323 80.483L278.327 80.4862L278.33 80.4893L278.333 80.4925L278.336 80.4957L278.339 80.4988L278.342 80.502L278.345 80.5051L278.349 80.5083L278.352 80.5115L278.355 80.5146L278.358 80.5178L278.361 80.5209L278.364 80.5241L278.368 80.5273L278.371 80.5304L278.374 80.5336L278.377 80.5368L278.38 80.5399L278.383 80.5431L278.387 80.5462L278.39 80.5494L278.393 80.5526L278.396 80.5557L278.399 80.5589L278.402 80.5621L278.406 80.5652L278.409 80.5684L278.412 80.5716L278.415 80.5747L278.418 80.5779L278.421 80.5811L278.425 80.5842L278.428 80.5874L278.431 80.5906L278.434 80.5937L278.437 80.5969L278.44 80.6001L278.444 80.6032L278.447 80.6064L278.45 80.6096L278.453 80.6127L278.456 80.6159L278.459 80.6191L278.463 80.6222L278.466 80.6254L278.469 80.6286L278.472 80.6317L278.475 80.6349L278.478 80.6381L278.482 80.6413L278.485 80.6444L278.488 80.6476L278.491 80.6508L278.492 80.6513L240.376 118.767C239.992 118.31 239.576 117.894 239.167 117.486L239.155 117.473C228.715 107.033 214.562 101.161 199.809 101.148C185.056 101.136 170.912 106.985 160.488 117.408C150.065 127.831 144.216 141.975 144.229 156.728C144.241 171.481 150.113 185.634 160.554 196.075C160.834 196.355 161.136 196.607 161.42 196.844L161.434 196.856C161.593 196.989 161.747 197.117 161.895 197.248L123.651 235.492L123.65 235.49L123.647 235.487L123.643 235.484L123.64 235.481L123.637 235.477L123.634 235.474L123.631 235.471L123.628 235.468L123.625 235.465L123.622 235.462L123.618 235.459L123.615 235.456L123.612 235.452L123.609 235.449L123.606 235.446L123.603 235.443L123.6 235.44L123.597 235.437L123.593 235.434L123.59 235.431L123.587 235.428L123.584 235.424L123.581 235.421L123.578 235.418L123.575 235.415L123.572 235.412L123.569 235.409L123.565 235.406L123.562 235.403L123.559 235.399L123.556 235.396L123.553 235.393L123.55 235.39L123.547 235.387L123.544 235.384L123.54 235.381L123.537 235.378L123.534 235.374L123.531 235.371L123.528 235.368L123.525 235.365L123.522 235.362L123.519 235.359L123.515 235.356L123.512 235.353L123.509 235.349L123.506 235.346L123.503 235.343L123.5 235.34L123.497 235.337L123.494 235.334L123.49 235.331L123.487 235.328L123.484 235.324L123.481 235.321L123.478 235.318L123.475 235.315L123.472 235.312L123.469 235.309L123.465 235.306L123.462 235.303L123.459 235.299L123.456 235.296L123.453 235.293L123.45 235.29L123.447 235.287L123.444 235.284L123.44 235.281L123.437 235.278L123.434 235.274L123.431 235.271L123.428 235.268L123.425 235.265L123.422 235.262L123.419 235.259L123.415 235.256L123.412 235.253L123.409 235.249L123.406 235.246L123.403 235.243L123.4 235.24L123.397 235.237L123.394 235.234L123.39 235.231L123.387 235.228L123.384 235.224L123.381 235.221L123.378 235.218L123.375 235.215L123.372 235.212L123.368 235.209L123.365 235.206L123.362 235.203L123.359 235.199L123.356 235.196L123.353 235.193L123.35 235.19L123.347 235.187L123.343 235.184L123.34 235.181L123.337 235.177L123.334 235.174L123.331 235.171L123.328 235.168L123.325 235.165L123.322 235.162L123.318 235.159L123.315 235.156L123.312 235.152L123.309 235.149L123.306 235.146L123.303 235.143L123.3 235.14L123.296 235.137L123.293 235.134L123.29 235.13L123.287 235.127L123.284 235.124L123.281 235.121L123.278 235.118L123.275 235.115L123.271 235.112L123.268 235.109L123.265 235.105L123.262 235.102L123.259 235.099L123.256 235.096L123.253 235.093L123.249 235.09L123.246 235.087L123.243 235.083L123.24 235.08L123.237 235.077L123.234 235.074L123.231 235.071L123.227 235.068L123.224 235.065L123.221 235.062L123.218 235.058L123.215 235.055L123.212 235.052L123.209 235.049L123.206 235.046L123.202 235.043L123.199 235.04L123.196 235.036L123.193 235.033L123.19 235.03L123.187 235.027L123.184 235.024L123.18 235.021L123.177 235.018L123.174 235.014L123.171 235.011L123.168 235.008L123.165 235.005L123.162 235.002L123.158 234.999L123.155 234.996L123.152 234.992L123.149 234.989L123.146 234.986L123.143 234.983L123.14 234.98L123.136 234.977L123.133 234.974L123.13 234.97L123.127 234.967L123.124 234.964L123.121 234.961L123.118 234.958L123.114 234.955L123.111 234.952L123.108 234.948L123.105 234.945L123.102 234.942L123.099 234.939L123.096 234.936L123.092 234.933L123.089 234.93L123.086 234.926L123.083 234.923L123.08 234.92L123.077 234.917L123.074 234.914L123.07 234.911L123.067 234.908L123.064 234.904L123.061 234.901L123.058 234.898L123.055 234.895L123.052 234.892L123.048 234.889L123.045 234.886L123.042 234.882L123.039 234.879L123.036 234.876L123.033 234.873L123.029 234.87L123.026 234.867L123.023 234.863L123.02 234.86L123.017 234.857L123.014 234.854L123.011 234.851L123.007 234.848L123.004 234.845L123.001 234.841L122.998 234.838L122.995 234.835L122.992 234.832L122.989 234.829L122.985 234.826L122.982 234.823L122.979 234.819L122.976 234.816L122.973 234.813L122.97 234.81L122.966 234.807L122.963 234.804L122.96 234.8L122.957 234.797L122.954 234.794L122.951 234.791L122.948 234.788L122.944 234.785L122.941 234.782L122.938 234.778L122.935 234.775L122.932 234.772L122.929 234.769L122.925 234.766L122.922 234.763L122.919 234.759L122.916 234.756L122.913 234.753L122.91 234.75L122.906 234.747L122.903 234.744L122.9 234.74L122.897 234.737L122.894 234.734L122.891 234.731L122.888 234.728L122.884 234.725L122.881 234.721L122.878 234.718L122.875 234.715L122.872 234.712L122.869 234.709L122.865 234.706L122.862 234.703L122.859 234.699L122.856 234.696L122.853 234.693L122.85 234.69L122.846 234.687L122.843 234.684L122.84 234.68L122.837 234.677L122.834 234.674L122.831 234.671L122.827 234.668L122.824 234.665L122.821 234.661L122.818 234.658L122.815 234.655L122.812 234.652L122.808 234.649L122.805 234.646L122.802 234.642L122.799 234.639L122.796 234.636L122.793 234.633L122.789 234.63L122.786 234.627L122.783 234.623L122.78 234.62L122.777 234.617L122.774 234.614L122.77 234.611L122.767 234.608L122.764 234.604L122.761 234.601L122.758 234.598L122.755 234.595L122.751 234.592L122.748 234.588L122.745 234.585L122.742 234.582L122.739 234.579L122.736 234.576L122.732 234.573L122.729 234.569L122.726 234.566L122.723 234.563L122.72 234.56L122.716 234.557L122.713 234.554L122.71 234.55L122.707 234.547L122.704 234.544L122.701 234.541L122.697 234.538L122.694 234.535L122.691 234.531L122.688 234.528L122.685 234.525L122.682 234.522L122.678 234.519L122.675 234.515L122.672 234.512L122.669 234.509L122.666 234.506L122.662 234.503L122.659 234.5L122.656 234.496L122.653 234.493L122.65 234.49L122.647 234.487L122.643 234.484L122.64 234.48L122.637 234.477L122.634 234.474L122.631 234.471L122.627 234.468L122.624 234.465L122.621 234.461L122.618 234.458L122.615 234.455L122.612 234.452L122.608 234.449L122.605 234.445L122.602 234.442L122.599 234.439L122.596 234.436L122.592 234.433L122.589 234.429L122.586 234.426L122.583 234.423L122.58 234.42L122.576 234.417L122.573 234.414L122.57 234.41L122.567 234.407L122.564 234.404L122.561 234.401L122.557 234.398L122.554 234.394L122.551 234.391L122.548 234.388L122.545 234.385L122.541 234.382L122.538 234.378L122.535 234.375L122.532 234.372L122.529 234.369L122.525 234.366L122.522 234.362L122.519 234.359L122.516 234.356L122.513 234.353L122.509 234.35L122.506 234.347L122.503 234.343L122.5 234.34L122.497 234.337L122.493 234.334L122.49 234.331L122.487 234.327L122.484 234.324L122.481 234.321L122.477 234.318L122.474 234.315L122.471 234.311L122.468 234.308L122.465 234.305L122.461 234.302L122.458 234.299L122.455 234.295L122.452 234.292L122.449 234.289L122.445 234.286L122.442 234.283L122.439 234.279L122.436 234.276L122.433 234.273L122.429 234.27L122.426 234.266L122.423 234.263L122.42 234.26L122.417 234.257L122.413 234.254L122.41 234.25L122.407 234.247L122.404 234.244L122.401 234.241L122.397 234.238L122.394 234.234L122.389 234.229C111.963 224.099 103.652 212 97.9382 198.637C92.2243 185.274 89.2218 170.913 89.1052 156.389C88.9886 141.865 91.7602 127.467 97.2589 114.033C102.758 100.599 110.874 88.3969 121.135 78.1353C131.397 67.8737 143.599 59.7576 157.033 54.2589C170.467 48.7602 184.865 45.9886 199.389 46.1052C213.913 46.2218 228.274 49.2243 241.637 54.9382C255 60.6521 267.099 68.9634 277.229 79.389Z" stroke="#193F3F"/>
<circle cx="58.5" cy="117.5" r="58.5" fill="#70C1A0"/>
</svg>
