<svg width="316" height="148" viewBox="0 0 316 148" fill="none" xmlns="http://www.w3.org/2000/svg">
<path d="M11.7278 91.5542C4.37899 109.296 0.565944 128.3 0.500867 147.5L147.5 147.5L147.5 0.500847C128.3 0.565928 109.296 4.37899 91.5542 11.7278C73.6587 19.1403 57.3984 30.0051 43.7018 43.7018C30.0051 57.3984 19.1404 73.6587 11.7278 91.5542Z" stroke="#193F3F"/>
<path d="M254.095 43C248.938 51.0449 241.827 57.6668 233.419 62.254C225.011 66.8413 215.577 69.246 205.988 69.246C196.4 69.246 186.965 66.8413 178.557 62.254C170.149 57.6668 163.039 51.0449 157.882 43H96C102.728 66.8818 117.119 87.919 136.978 102.904C156.838 117.889 181.077 126 206 126C230.923 126 255.162 117.889 275.022 102.904C294.881 87.919 309.272 66.8818 316 43H254.095Z" fill="#688595"/>
</svg>
