<svg width="270" height="198" viewBox="0 0 270 198" fill="none" xmlns="http://www.w3.org/2000/svg">
<circle cx="43.5" cy="55.5" r="43.5" fill="#70C1A0"/>
<path d="M55.7695 141.454C51.034 152.886 48.5661 165.129 48.5013 177.5L143.5 177.5L143.5 82.5013C131.129 82.5661 118.886 85.034 107.454 89.7695C95.8671 94.5688 85.3393 101.603 76.4713 110.471C67.6033 119.339 60.5688 129.867 55.7695 141.454Z" stroke="#70C1A0"/>
<path d="M169.028 38.2272C169.561 38.5346 170.132 38.7384 170.649 39.0368C180.71 44.8455 188.035 54.4412 191.013 65.713C193.99 76.9849 192.377 89.0095 186.527 99.1416C180.677 109.274 171.071 116.683 159.82 119.74C148.569 122.798 136.597 121.252 126.536 115.443C126.003 115.136 125.487 114.837 125.015 114.46L103.004 152.584C103.537 152.892 104.054 153.19 104.57 153.488C114.526 159.43 125.571 163.319 137.064 164.93C148.557 166.541 160.269 165.841 171.517 162.871C182.766 159.901 193.328 154.72 202.59 147.63C211.851 140.539 219.626 131.681 225.464 121.569C231.302 111.458 235.086 100.295 236.596 88.729C238.106 77.1634 237.311 65.4261 234.259 54.1993C231.207 42.9724 225.957 32.4801 218.816 23.3323C211.674 14.1844 202.784 6.5635 192.66 0.91256C192.128 0.605107 191.611 0.306695 191.094 0.00828626L169.028 38.2272Z" fill="#688595"/>
</svg>
