<svg aria-hidden="true" style="position: absolute; width: 0; height: 0; overflow: hidden;" version="1.1" xmlns="http://www.w3.org/2000/svg" xmlns:xlink="http://www.w3.org/1999/xlink">
<defs>
<symbol id="i-call" viewBox="0 0 32 32">
<path fill="none" stroke="currentColor" stroke-linejoin="round" stroke-linecap="round" stroke-miterlimit="4" stroke-width="1.2" d="M13.508 18.492c-1.56-1.56-2.736-3.307-3.517-5.079-0.164-0.375-0.068-0.813 0.221-1.103l1.092-1.092c0.895-0.895 0.895-2.16 0.113-2.941l-1.564-1.564c-1.041-1.041-2.729-1.041-3.771 0l-0.869 0.868c-0.988 0.988-1.4 2.413-1.133 3.827 0.659 3.484 2.683 7.299 5.948 10.564s7.080 5.289 10.564 5.948c1.413 0.267 2.839-0.145 3.827-1.133l0.868-0.868c1.041-1.041 1.041-2.729 0-3.771l-1.564-1.564c-0.781-0.781-2.048-0.781-2.828 0l-1.204 1.205c-0.289 0.289-0.728 0.387-1.103 0.221-1.772-0.783-3.52-1.96-5.080-3.519z"></path>
<path fill="none" stroke="currentColor" stroke-linejoin="round" stroke-linecap="round" stroke-miterlimit="4" stroke-width="1.2" d="M28 12v-8h-8"></path>
<path fill="none" stroke="currentColor" stroke-linejoin="round" stroke-linecap="round" stroke-miterlimit="4" stroke-width="1.2" d="M20 12l8-8"></path>
</symbol>
<symbol id="i-call-2" viewBox="0 0 32 32">
<path fill="none" stroke="currentColor" stroke-linejoin="round" stroke-linecap="round" stroke-miterlimit="4" stroke-width="1.2" d="M13.508 18.492c-1.56-1.56-2.736-3.307-3.517-5.079-0.164-0.375-0.068-0.813 0.221-1.103l1.092-1.092c0.895-0.895 0.895-2.16 0.113-2.941l-1.564-1.564c-1.041-1.041-2.729-1.041-3.771 0l-0.869 0.868c-0.988 0.988-1.4 2.413-1.133 3.827 0.659 3.484 2.683 7.299 5.948 10.564s7.080 5.289 10.564 5.948c1.413 0.267 2.839-0.145 3.827-1.133l0.868-0.868c1.041-1.041 1.041-2.729 0-3.771l-1.564-1.564c-0.781-0.781-2.048-0.781-2.828 0l-1.204 1.205c-0.289 0.289-0.728 0.387-1.103 0.221-1.772-0.783-3.52-1.96-5.080-3.519z"></path>
<path fill="none" stroke="currentColor" stroke-linejoin="round" stroke-linecap="round" stroke-miterlimit="4" stroke-width="1.2" d="M20 4v8h8"></path>
<path fill="none" stroke="currentColor" stroke-linejoin="round" stroke-linecap="round" stroke-miterlimit="4" stroke-width="1.2" d="M28 4l-8 8"></path>
</symbol>
<symbol id="i-letter" viewBox="0 0 32 32">
<path fill="none" stroke="currentColor" stroke-linejoin="round" stroke-linecap="round" stroke-miterlimit="4" stroke-width="1.2" d="M26.955 11.697l-9.333-7.147c-0.465-0.356-1.035-0.549-1.621-0.549s-1.156 0.193-1.621 0.549l-9.333 7.147c-0.325 0.249-0.589 0.569-0.77 0.937s-0.276 0.771-0.276 1.181v11.519c0 0.707 0.281 1.386 0.781 1.886s1.178 0.781 1.886 0.781h18.667c0.707 0 1.386-0.281 1.886-0.781s0.781-1.178 0.781-1.886v-11.519c0-0.41-0.094-0.814-0.276-1.181s-0.445-0.688-0.77-0.937z"></path>
<path fill="none" stroke="currentColor" stroke-linejoin="round" stroke-linecap="round" stroke-miterlimit="4" stroke-width="1.2" d="M4.25 12.689l10.129 7.756c0.465 0.356 1.035 0.549 1.621 0.549s1.156-0.193 1.621-0.549l10.13-7.758"></path>
<path fill="none" stroke="currentColor" stroke-linejoin="round" stroke-linecap="round" stroke-miterlimit="4" stroke-width="1.2" d="M18 12.334l-2.667 2-1.333-1"></path>
</symbol>
<symbol id="i-mess" viewBox="0 0 32 32">
<path fill="none" stroke="currentColor" stroke-linejoin="round" stroke-linecap="round" stroke-miterlimit="4" stroke-width="1.2" d="M18.727 18.666h-2.727v-2.727c-0-0.138 0.027-0.276 0.080-0.404s0.131-0.244 0.229-0.342l4.218-4.218c0.098-0.098 0.214-0.176 0.342-0.229s0.265-0.080 0.403-0.081 0.275 0.027 0.403 0.080c0.128 0.053 0.244 0.13 0.342 0.228l0.001 0.002 1.673 1.672c0.098 0.098 0.176 0.214 0.229 0.342s0.080 0.265 0.081 0.403c0 0.138-0.027 0.275-0.080 0.403s-0.13 0.244-0.228 0.342l-4.22 4.22c-0.198 0.198-0.466 0.309-0.746 0.309v0z"></path>
<path fill="none" stroke="currentColor" stroke-linejoin="round" stroke-linecap="round" stroke-miterlimit="4" stroke-width="1.2" d="M19.219 25.333h4.781c1.061 0 2.078-0.421 2.828-1.172s1.172-1.768 1.172-2.828v-13.333c0-1.061-0.421-2.078-1.172-2.828s-1.768-1.172-2.828-1.172h-16c-1.061 0-2.078 0.421-2.828 1.172s-1.172 1.768-1.172 2.828v13.333c0 1.061 0.421 2.078 1.172 2.828s1.768 1.172 2.828 1.172h4.781"></path>
<path fill="none" stroke="currentColor" stroke-linejoin="round" stroke-linecap="round" stroke-miterlimit="4" stroke-width="1.2" d="M19.219 25.334l-2.276 2.276c-0.25 0.25-0.589 0.391-0.943 0.391s-0.693-0.14-0.943-0.391l-2.276-2.276"></path>
<path fill="none" stroke="currentColor" stroke-linejoin="round" stroke-linecap="round" stroke-miterlimit="4" stroke-width="1.2" d="M8.067 18.667c0 0.013-0.004 0.026-0.011 0.037s-0.018 0.019-0.030 0.024c-0.012 0.005-0.026 0.006-0.038 0.004s-0.025-0.009-0.034-0.018c-0.009-0.009-0.016-0.021-0.018-0.034s-0.001-0.026 0.004-0.038 0.014-0.023 0.025-0.030c0.011-0.007 0.024-0.011 0.037-0.011 0.009 0 0.018 0.002 0.026 0.005s0.015 0.008 0.022 0.014c0.006 0.006 0.011 0.014 0.014 0.022s0.005 0.017 0.005 0.026"></path>
<path fill="none" stroke="currentColor" stroke-linejoin="round" stroke-linecap="round" stroke-miterlimit="4" stroke-width="1.2" d="M12.067 18.667c0 0.013-0.004 0.026-0.011 0.037s-0.018 0.019-0.030 0.024c-0.012 0.005-0.026 0.006-0.038 0.004s-0.025-0.009-0.034-0.018c-0.009-0.009-0.016-0.021-0.018-0.034s-0.001-0.026 0.004-0.038 0.014-0.023 0.025-0.030c0.011-0.007 0.024-0.011 0.037-0.011 0.009 0 0.018 0.002 0.026 0.005s0.015 0.008 0.022 0.014c0.006 0.006 0.011 0.014 0.014 0.022s0.005 0.017 0.005 0.026"></path>
</symbol>
<symbol id="i-bag" viewBox="0 0 32 32">
<path fill="none" stroke="currentColor" stroke-linejoin="round" stroke-linecap="round" stroke-miterlimit="4" stroke-width="1.2" d="M5.333 9.334v-2.667c0-0.354 0.14-0.693 0.391-0.943s0.589-0.391 0.943-0.391h18.667c0.354 0 0.693 0.14 0.943 0.391s0.39 0.589 0.39 0.943v2.667"></path>
<path fill="none" stroke="currentColor" stroke-linejoin="round" stroke-linecap="round" stroke-miterlimit="4" stroke-width="1.2" d="M26.667 9.334h-21.333c-0.354 0-0.693 0.14-0.943 0.39s-0.391 0.589-0.391 0.943v14.667c0 0.707 0.281 1.386 0.781 1.886s1.178 0.781 1.886 0.781h18.667c0.707 0 1.386-0.281 1.886-0.781s0.781-1.178 0.781-1.886v-14.667c0-0.354-0.14-0.693-0.391-0.943s-0.589-0.39-0.943-0.39z"></path>
<path fill="none" stroke="currentColor" stroke-linejoin="round" stroke-linecap="round" stroke-miterlimit="4" stroke-width="1.2" d="M21.333 14.666c0 1.414-0.562 2.771-1.562 3.771s-2.357 1.562-3.771 1.562-2.771-0.562-3.771-1.562c-1-1-1.562-2.357-1.562-3.771"></path>
</symbol>
<symbol id="i-support" viewBox="0 0 32 32">
<path fill="none" stroke="currentColor" stroke-linejoin="round" stroke-linecap="round" stroke-miterlimit="4" stroke-width="1.2" d="M25.333 22.667h-1.333c-0.736 0-1.333-0.597-1.333-1.333v-6.667c0-0.736 0.597-1.333 1.333-1.333h1.333c1.473 0 2.667 1.193 2.667 2.667v4c0 1.473-1.193 2.667-2.667 2.667z"></path>
<path fill="none" stroke="currentColor" stroke-linejoin="round" stroke-linecap="round" stroke-miterlimit="4" stroke-width="1.2" d="M8 22.667h-1.333c-1.473 0-2.667-1.193-2.667-2.667v-4c0-1.473 1.193-2.667 2.667-2.667h1.333c0.736 0 1.333 0.597 1.333 1.333v6.667c0 0.736-0.597 1.333-1.333 1.333z"></path>
<path fill="none" stroke="currentColor" stroke-linejoin="round" stroke-linecap="round" stroke-miterlimit="4" stroke-width="1.2" d="M24.667 13.333v-0.667c0-4.787-3.88-8.667-8.667-8.667s-8.667 3.88-8.667 8.667v0.667"></path>
<path fill="none" stroke="currentColor" stroke-linejoin="round" stroke-linecap="round" stroke-miterlimit="4" stroke-width="1.2" d="M16.833 28.333h-1.667c-0.92 0-1.667-0.747-1.667-1.667s0.747-1.667 1.667-1.667h1.667c0.92 0 1.667 0.747 1.667 1.667s-0.747 1.667-1.667 1.667z"></path>
<path fill="none" stroke="currentColor" stroke-linejoin="round" stroke-linecap="round" stroke-miterlimit="4" stroke-width="1.2" d="M18.5 26.666h2.833c1.473 0 2.667-1.193 2.667-2.667v-1.333"></path>
</symbol>
<symbol id="i-user-sup" viewBox="0 0 32 32">
<path fill="none" stroke="currentColor" stroke-linejoin="round" stroke-linecap="round" stroke-miterlimit="4" stroke-width="1.2" d="M7.333 16.333c0.005-0.658 0.205-1.3 0.574-1.845s0.892-0.968 1.501-1.217c0.609-0.248 1.279-0.311 1.924-0.179s1.236 0.451 1.7 0.918c0.464 0.467 0.779 1.061 0.905 1.707s0.059 1.315-0.194 1.922c-0.253 0.608-0.68 1.127-1.228 1.492s-1.191 0.56-1.849 0.56c-0.44-0.001-0.875-0.089-1.28-0.258s-0.774-0.417-1.083-0.729c-0.31-0.312-0.555-0.682-0.721-1.089s-0.251-0.843-0.249-1.282z"></path>
<path fill="none" stroke="currentColor" stroke-linejoin="round" stroke-linecap="round" stroke-miterlimit="4" stroke-width="1.2" d="M18.667 13c-0.066-0-0.131 0.019-0.186 0.055s-0.098 0.088-0.124 0.149-0.032 0.128-0.020 0.193c0.013 0.065 0.044 0.124 0.091 0.171s0.106 0.079 0.171 0.092c0.065 0.013 0.132 0.006 0.193-0.019s0.113-0.068 0.15-0.123 0.056-0.119 0.056-0.185c0-0.044-0.008-0.087-0.025-0.128s-0.041-0.077-0.072-0.108c-0.031-0.031-0.068-0.056-0.108-0.072s-0.084-0.025-0.127-0.025z"></path>
<path fill="none" stroke="currentColor" stroke-linejoin="round" stroke-linecap="round" stroke-miterlimit="4" stroke-width="1.2" d="M22.816 13c-0.066-0-0.131 0.019-0.186 0.055s-0.098 0.088-0.124 0.149c-0.025 0.061-0.032 0.128-0.020 0.193s0.044 0.124 0.091 0.171c0.047 0.047 0.106 0.079 0.171 0.092s0.132 0.006 0.193-0.019c0.061-0.025 0.113-0.068 0.15-0.123s0.056-0.119 0.056-0.185c0-0.044-0.008-0.087-0.024-0.128s-0.041-0.077-0.072-0.108-0.068-0.056-0.108-0.072c-0.040-0.017-0.084-0.025-0.127-0.025"></path>
<path fill="none" stroke="currentColor" stroke-linejoin="round" stroke-linecap="round" stroke-miterlimit="4" stroke-width="1.2" d="M4 27.167v-0.833c0.003-0.883 0.355-1.73 0.979-2.354s1.471-0.977 2.354-0.979h6.667c0.883 0.003 1.73 0.355 2.354 0.979s0.977 1.471 0.979 2.354v0.833c-0.001 0.221-0.089 0.432-0.245 0.589s-0.368 0.244-0.589 0.245h-11.667c-0.221-0.001-0.432-0.089-0.589-0.245s-0.244-0.368-0.245-0.589v0z"></path>
<path fill="none" stroke="currentColor" stroke-linejoin="round" stroke-linecap="round" stroke-miterlimit="4" stroke-width="1.2" d="M11.036 8c0.852-1.22 1.985-2.218 3.302-2.911s2.781-1.060 4.27-1.072c1.488-0.011 2.958 0.334 4.285 1.007s2.475 1.654 3.346 2.861c0.871 1.207 1.44 2.605 1.66 4.077s0.084 2.975-0.396 4.384c-0.48 1.409-1.291 2.682-2.364 3.714s-2.378 1.791-3.804 2.215"></path>
</symbol>
<symbol id="i-headphones" viewBox="0 0 32 32">
<path fill="none" stroke="currentColor" stroke-linejoin="round" stroke-linecap="round" stroke-miterlimit="4" stroke-width="1.2" d="M28 16c0 3.183-1.264 6.235-3.515 8.485s-5.303 3.515-8.485 3.515"></path>
<path fill="none" stroke="currentColor" stroke-linejoin="round" stroke-linecap="round" stroke-miterlimit="4" stroke-width="1.2" d="M4 16c0-3.183 1.264-6.235 3.515-8.485s5.303-3.515 8.485-3.515"></path>
<path fill="none" stroke="currentColor" stroke-linejoin="round" stroke-linecap="round" stroke-miterlimit="4" stroke-width="1.2" d="M4 16c0 1.406 0.25 2.8 0.738 4.118 0.108 0.297 0.317 0.546 0.59 0.704s0.593 0.216 0.904 0.162l1.315-0.232c0.511-0.090 0.967-0.376 1.272-0.796s0.434-0.943 0.36-1.457l-0.396-2.77c-0.038-0.265-0.129-0.52-0.267-0.75s-0.322-0.429-0.539-0.586c-0.217-0.157-0.464-0.269-0.725-0.33s-0.532-0.067-0.796-0.021l-2.347 0.414"></path>
<path fill="none" stroke="currentColor" stroke-linejoin="round" stroke-linecap="round" stroke-miterlimit="4" stroke-width="1.2" d="M28 16c0-3.183-1.264-6.235-3.515-8.485s-5.303-3.515-8.485-3.515"></path>
<path fill="none" stroke="currentColor" stroke-linejoin="round" stroke-linecap="round" stroke-miterlimit="4" stroke-width="1.2" d="M28 16c-0 1.406-0.25 2.8-0.738 4.118-0.108 0.297-0.317 0.546-0.59 0.704s-0.593 0.216-0.904 0.162l-1.315-0.232c-0.511-0.090-0.967-0.376-1.272-0.796s-0.434-0.943-0.36-1.457l0.396-2.77c0.038-0.265 0.129-0.52 0.267-0.75s0.322-0.429 0.539-0.586 0.464-0.269 0.725-0.33c0.261-0.060 0.532-0.067 0.796-0.021l2.347 0.414"></path>
<path fill="none" stroke="currentColor" stroke-linejoin="round" stroke-linecap="round" stroke-miterlimit="4" stroke-width="1.2" d="M17.99 16.655c-0.002 0-0.004 0.001-0.006 0.002s-0.003 0.003-0.004 0.004c-0.001 0.002-0.001 0.004-0.001 0.006s0.001 0.004 0.003 0.005c0.001 0.001 0.003 0.002 0.005 0.003s0.004 0 0.006-0.001c0.002-0.001 0.003-0.002 0.004-0.004s0.002-0.004 0.002-0.006c0-0.001-0-0.003-0.001-0.004s-0.001-0.002-0.002-0.003c-0.001-0.001-0.002-0.002-0.003-0.002s-0.003-0.001-0.004-0.001"></path>
<path fill="none" stroke="currentColor" stroke-linejoin="round" stroke-linecap="round" stroke-miterlimit="4" stroke-width="1.2" d="M14.010 16.659c-0.002 0-0.004 0.001-0.006 0.002s-0.003 0.003-0.004 0.004c-0.001 0.002-0.001 0.004-0.001 0.006s0.001 0.004 0.003 0.005c0.001 0.001 0.003 0.002 0.005 0.003s0.004 0 0.006-0.001c0.002-0.001 0.003-0.002 0.004-0.004s0.002-0.004 0.002-0.006c0-0.001-0-0.003-0.001-0.004s-0.001-0.002-0.002-0.003c-0.001-0.001-0.002-0.002-0.003-0.002s-0.003-0.001-0.004-0.001"></path>
</symbol>
<symbol id="i-teamwork" viewBox="0 0 32 32">
<path fill="none" stroke="currentColor" stroke-linejoin="round" stroke-linecap="round" stroke-miterlimit="4" stroke-width="1.2" d="M12.3 8.602c0-2.043 1.656-3.7 3.7-3.7 2.043 0 3.7 1.656 3.7 3.7 0 2.043-1.656 3.7-3.7 3.7-2.044-0.003-3.7-1.659-3.7-3.7z"></path>
<path fill="none" stroke="currentColor" stroke-linejoin="round" stroke-linecap="round" stroke-miterlimit="4" stroke-width="1.2" d="M3.333 23.398c0-2.043 1.656-3.7 3.7-3.7 2.043 0 3.7 1.656 3.7 3.7-0.001 2.043-1.656 3.7-3.7 3.7s-3.7-1.656-3.7-3.7v0z"></path>
<path fill="none" stroke="currentColor" stroke-linejoin="round" stroke-linecap="round" stroke-miterlimit="4" stroke-width="1.2" d="M21.268 23.398c0-2.043 1.656-3.7 3.7-3.7 2.043 0 3.7 1.656 3.7 3.7 0 2.043-1.656 3.7-3.7 3.7-2.045 0-3.7-1.656-3.7-3.7v0z"></path>
<path fill="none" stroke="currentColor" stroke-linejoin="round" stroke-linecap="round" stroke-miterlimit="4" stroke-width="1.2" d="M11.32 15.893l-2.68 4.187"></path>
<path fill="none" stroke="currentColor" stroke-linejoin="round" stroke-linecap="round" stroke-miterlimit="4" stroke-width="1.2" d="M18 11.707l2.68 4.187"></path>
<path fill="none" stroke="currentColor" stroke-linejoin="round" stroke-linecap="round" stroke-miterlimit="4" stroke-width="1.2" d="M21.267 23.4h-5.267"></path>
</symbol>
<symbol id="i-two" viewBox="0 0 32 32">
<path fill="none" stroke="currentColor" stroke-linejoin="round" stroke-linecap="round" stroke-miterlimit="4" stroke-width="1.2" d="M11.6 18.096c0-0.379 0.14-0.743 0.391-1.011s0.589-0.419 0.943-0.419 0.693 0.151 0.943 0.419c0.25 0.268 0.391 0.632 0.391 1.011 0 1.787-2.667 1.787-2.667 3.904h2.667"></path>
<path fill="none" stroke="currentColor" stroke-linejoin="round" stroke-linecap="round" stroke-miterlimit="4" stroke-width="1.2" d="M12.843 28c4.884 0 8.843-3.959 8.843-8.843s-3.959-8.843-8.843-8.843c-4.884 0-8.843 3.959-8.843 8.843s3.959 8.843 8.843 8.843z"></path>
<path fill="none" stroke="currentColor" stroke-linejoin="round" stroke-linecap="round" stroke-miterlimit="4" stroke-width="1.2" d="M12.906 6.591c3.452-3.453 9.051-3.452 12.504 0s3.453 9.051 0 12.504"></path>
</symbol>
<symbol id="i-mail" viewBox="0 0 32 32">
<path fill="none" stroke="currentColor" stroke-linejoin="round" stroke-linecap="round" stroke-miterlimit="4" stroke-width="1.2" d="M19.426 8.973c0.468 0.468 0.673 1.136 0.548 1.785l-1.488 7.747c-0.36 1.876-1.827 3.343-3.703 3.703l-7.749 1.488c-0.649 0.124-1.317-0.080-1.785-0.548-0.779-0.779-0.779-2.040 0-2.819l11.357-11.357c0.78-0.777 2.041-0.777 2.82 0.001v0z"></path>
<path fill="none" stroke="currentColor" stroke-linejoin="round" stroke-linecap="round" stroke-miterlimit="4" stroke-width="1.2" d="M4 28.027h24"></path>
<path fill="none" stroke="currentColor" stroke-linejoin="round" stroke-linecap="round" stroke-miterlimit="4" stroke-width="1.2" d="M4 9.373v-4"></path>
<path fill="none" stroke="currentColor" stroke-linejoin="round" stroke-linecap="round" stroke-miterlimit="4" stroke-width="1.2" d="M8 6.707v-1.333"></path>
<path fill="none" stroke="currentColor" stroke-linejoin="round" stroke-linecap="round" stroke-miterlimit="4" stroke-width="1.2" d="M19.426 8.973l6.943 6.943c1.041 1.041 1.041 2.729 0 3.771l-8.345 8.345"></path>
<path fill="none" stroke="currentColor" stroke-linejoin="round" stroke-linecap="round" stroke-miterlimit="4" stroke-width="1.2" d="M5.253 23.147l4.88 4.88"></path>
<path fill="#70c1a0" style="fill: var(--color1, #70c1a0)" d="M12.64 5.32c0 0.376-0.304 0.68-0.68 0.68s-0.68-0.304-0.68-0.68c0-0.376 0.304-0.68 0.68-0.68s0.68 0.304 0.68 0.68z"></path>
</symbol>
<symbol id="i-serving" viewBox="0 0 32 32">
<path fill="none" stroke="currentColor" stroke-linejoin="round" stroke-linecap="round" stroke-miterlimit="4" stroke-width="1.2" d="M15.666 24.667h2.721c0.505 0 0.996-0.163 1.4-0.467l2.819-2.115c0.704-0.528 1.688-0.457 2.311 0.164 0.691 0.691 0.691 1.809 0 2.499l-2.419 2.419c-0.651 0.651-1.481 1.096-2.384 1.276l-3.419 0.684c-0.677 0.135-1.377 0.119-2.048-0.049l-3.092-0.771c-0.369-0.093-0.749-0.14-1.131-0.14h-1.759"></path>
<path fill="none" stroke="currentColor" stroke-linejoin="round" stroke-linecap="round" stroke-miterlimit="4" stroke-width="1.2" d="M15.666 24.667h1.732c0.976 0 1.768-0.791 1.768-1.768v-0.353c0-0.811-0.552-1.517-1.339-1.713l-2.673-0.668c-0.435-0.109-0.881-0.164-1.329-0.164-1.081 0-2.14 0.32-3.039 0.92l-2.12 1.413"></path>
<path fill="none" stroke="currentColor" stroke-linejoin="round" stroke-linecap="round" stroke-miterlimit="4" stroke-width="1.2" d="M28 16h-21.333"></path>
<path fill="none" stroke="currentColor" stroke-linejoin="round" stroke-linecap="round" stroke-miterlimit="4" stroke-width="1.2" d="M26.667 16c0-5.155-4.179-9.333-9.333-9.333s-9.333 4.179-9.333 9.333"></path>
<path fill="none" stroke="currentColor" stroke-linejoin="round" stroke-linecap="round" stroke-miterlimit="4" stroke-width="1.2" d="M18.748 3.252c0.781 0.781 0.781 2.047 0 2.828s-2.047 0.781-2.828 0-0.781-2.047 0-2.828c0.781-0.781 2.047-0.781 2.828 0z"></path>
<path fill="none" stroke="currentColor" stroke-linejoin="round" stroke-linecap="round" stroke-miterlimit="4" stroke-width="1.2" d="M7.5 29.333h-2.333c-0.644 0-1.167-0.523-1.167-1.167v-7c0-0.644 0.523-1.167 1.167-1.167h2.333c0.644 0 1.167 0.523 1.167 1.167v7c0 0.644-0.523 1.167-1.167 1.167z"></path>
</symbol>
<symbol id="i-hours" viewBox="0 0 32 32">
<path fill="none" stroke="currentColor" stroke-linejoin="round" stroke-linecap="round" stroke-miterlimit="4" stroke-width="1.2" d="M26.347 17.341l1.661 1.661 1.661-1.661"></path>
<path fill="none" stroke="currentColor" stroke-linejoin="round" stroke-linecap="round" stroke-miterlimit="4" stroke-width="1.2" d="M5.652 14.659l-1.661-1.661-1.661 1.661"></path>
<path fill="none" stroke="currentColor" stroke-linejoin="round" stroke-linecap="round" stroke-miterlimit="4" stroke-width="1.2207" d="M10.116 14.306c0-1.081 0.877-1.959 1.959-1.959s1.959 0.877 1.959 1.959c0 2.448-3.916 2.448-3.916 5.347h3.916"></path>
<path fill="none" stroke="currentColor" stroke-linejoin="round" stroke-linecap="round" stroke-miterlimit="4" stroke-width="1.2207" d="M21.192 16.040l-3.349-0.036c-0.189-0.003-0.343-0.156-0.343-0.347v-3.309"></path>
<path fill="none" stroke="currentColor" stroke-linejoin="round" stroke-linecap="round" stroke-miterlimit="4" stroke-width="1.2207" d="M21.186 12.427v7.227"></path>
<path fill="none" stroke="currentColor" stroke-linejoin="round" stroke-linecap="round" stroke-miterlimit="4" stroke-width="1.2" d="M25.364 23.504c-2.201 2.739-5.573 4.496-9.361 4.496h-0.005c-6.632 0-12.007-5.373-12.007-12.003 0-0.925 0.115-1.823 0.313-2.688"></path>
<path fill="none" stroke="currentColor" stroke-linejoin="round" stroke-linecap="round" stroke-miterlimit="4" stroke-width="1.2" d="M6.641 8.496c2.2-2.739 5.573-4.496 9.361-4.496 6.632 0 12.007 5.373 12.007 12.003 0 0.925-0.115 1.823-0.313 2.688"></path>
</symbol>
<symbol id="i-like" viewBox="0 0 32 32">
<path fill="none" stroke="currentColor" stroke-linejoin="round" stroke-linecap="round" stroke-miterlimit="4" stroke-width="1.2" d="M10.334 15.228v4.491"></path>
<path fill="none" stroke="currentColor" stroke-linejoin="round" stroke-linecap="round" stroke-miterlimit="4" stroke-width="1.2" d="M13.527 18.877c0 0.298 0.118 0.583 0.329 0.794s0.496 0.329 0.794 0.329h4.696c0.185 0 0.367-0.046 0.53-0.133s0.302-0.213 0.404-0.367l1.2-1.803c0.123-0.185 0.188-0.402 0.188-0.624v-2.196c0-0.147-0.029-0.293-0.085-0.43s-0.139-0.26-0.243-0.364c-0.104-0.104-0.228-0.187-0.364-0.243s-0.282-0.085-0.43-0.085h-2.077v-1.909c0-0.313-0.124-0.612-0.345-0.833s-0.521-0.345-0.833-0.345h-0.673c-0.194-0-0.385 0.050-0.554 0.145s-0.31 0.233-0.41 0.4l-1.804 3.008c-0.209 0.349-0.32 0.748-0.32 1.155v3.503z"></path>
<path fill="none" stroke="currentColor" stroke-linejoin="round" stroke-linecap="round" stroke-miterlimit="4" stroke-width="1.2" d="M6.175 22.878l-0.842 3.789 3.789-0.842c2.462 1.725 5.482 2.465 8.462 2.073s5.706-1.887 7.639-4.189 2.932-5.246 2.801-8.25c-0.131-3.004-1.383-5.849-3.509-7.975s-4.971-3.378-7.975-3.509c-3.004-0.131-5.947 0.869-8.25 2.801s-3.798 4.659-4.189 7.639c-0.392 2.981 0.348 6 2.073 8.462v0z"></path>
</symbol>
<symbol id="i-set" viewBox="0 0 32 32">
<path fill="none" stroke="currentColor" stroke-linejoin="round" stroke-linecap="round" stroke-miterlimit="4" stroke-width="1.2" d="M18.828 13.172c1.562 1.562 1.562 4.095 0 5.657s-4.095 1.562-5.657 0c-1.562-1.562-1.562-4.095 0-5.657s4.095-1.562 5.657 0z"></path>
<path fill="none" stroke="currentColor" stroke-linejoin="round" stroke-linecap="round" stroke-miterlimit="4" stroke-width="1.2" d="M21.573 24.967c0.671 0.671 1.76 0.671 2.431 0l0.963-0.963c0.671-0.671 0.671-1.76 0-2.431-0.509-0.509-0.659-1.273-0.379-1.937 0.029-0.071 0.059-0.141 0.087-0.213 0.244-0.621 0.849-1.021 1.516-1.021h0.089c0.949 0 1.719-0.769 1.719-1.719v-1.361c0-0.949-0.769-1.719-1.719-1.719h-0.089c-0.667 0-1.272-0.401-1.516-1.021-0.028-0.072-0.057-0.143-0.087-0.213-0.28-0.664-0.131-1.428 0.379-1.937 0.671-0.671 0.671-1.76 0-2.431l-0.963-0.963c-0.671-0.671-1.76-0.671-2.431 0-0.509 0.509-1.273 0.659-1.937 0.379-0.071-0.029-0.141-0.059-0.213-0.087-0.621-0.248-1.023-0.855-1.023-1.521v-0.089c0-0.949-0.769-1.719-1.719-1.719h-1.361c-0.951 0-1.72 0.769-1.72 1.719v0.089c0 0.667-0.401 1.272-1.021 1.516-0.072 0.029-0.143 0.057-0.213 0.088-0.664 0.28-1.428 0.131-1.937-0.379-0.671-0.671-1.76-0.671-2.431 0l-0.964 0.963c-0.671 0.671-0.671 1.76 0 2.431 0.509 0.509 0.659 1.273 0.379 1.937-0.031 0.072-0.059 0.143-0.087 0.215-0.244 0.62-0.851 1.021-1.517 1.021h-0.089c-0.949 0-1.719 0.769-1.719 1.719v1.361c0 0.951 0.769 1.72 1.719 1.72h0.089c0.667 0 1.272 0.401 1.516 1.021 0.028 0.072 0.057 0.143 0.087 0.213 0.28 0.664 0.131 1.428-0.379 1.937-0.671 0.671-0.671 1.76 0 2.431l0.963 0.963c0.671 0.671 1.76 0.671 2.431 0 0.509-0.509 1.273-0.659 1.937-0.379 0.071 0.029 0.141 0.059 0.213 0.087 0.621 0.244 1.021 0.849 1.021 1.516v0.089c0 0.949 0.769 1.719 1.719 1.719h1.361c0.949 0 1.719-0.769 1.719-1.719v-0.089c0-0.667 0.401-1.272 1.021-1.516 0.072-0.028 0.143-0.057 0.213-0.087 0.668-0.279 1.432-0.129 1.943 0.38v0z"></path>
</symbol>
</defs>
</svg>
