<svg aria-hidden="true" style="position: absolute; width: 0; height: 0; overflow: hidden;" version="1.1" xmlns="http://www.w3.org/2000/svg" xmlns:xlink="http://www.w3.org/1999/xlink">
<defs>
<symbol id="i-call" viewBox="0 0 32 32">
<path fill="none" stroke="#688595" style="stroke: var(--color1, #688595)" stroke-linejoin="round" stroke-linecap="round" stroke-miterlimit="4" stroke-width="1.2" d="M13.508 18.492c-1.56-1.56-2.736-3.307-3.517-5.079-0.164-0.375-0.068-0.813 0.221-1.103l1.092-1.092c0.895-0.895 0.895-2.16 0.113-2.941l-1.564-1.564c-1.041-1.041-2.729-1.041-3.771 0l-0.869 0.868c-0.988 0.988-1.4 2.413-1.133 3.827 0.659 3.484 2.683 7.299 5.948 10.564s7.080 5.289 10.564 5.948c1.413 0.267 2.839-0.145 3.827-1.133l0.868-0.868c1.041-1.041 1.041-2.729 0-3.771l-1.564-1.564c-0.781-0.781-2.048-0.781-2.828 0l-1.204 1.205c-0.289 0.289-0.728 0.387-1.103 0.221-1.772-0.783-3.52-1.96-5.080-3.519z"></path>
<path fill="none" stroke="#688595" style="stroke: var(--color1, #688595)" stroke-linejoin="round" stroke-linecap="round" stroke-miterlimit="4" stroke-width="1.2" d="M28 12v-8h-8"></path>
<path fill="none" stroke="#688595" style="stroke: var(--color1, #688595)" stroke-linejoin="round" stroke-linecap="round" stroke-miterlimit="4" stroke-width="1.2" d="M20 12l8-8"></path>
</symbol>
<symbol id="i-call-2" viewBox="0 0 32 32">
<path fill="none" stroke="#688595" style="stroke: var(--color1, #688595)" stroke-linejoin="round" stroke-linecap="round" stroke-miterlimit="4" stroke-width="1.2" d="M13.508 18.492c-1.56-1.56-2.736-3.307-3.517-5.079-0.164-0.375-0.068-0.813 0.221-1.103l1.092-1.092c0.895-0.895 0.895-2.16 0.113-2.941l-1.564-1.564c-1.041-1.041-2.729-1.041-3.771 0l-0.869 0.868c-0.988 0.988-1.4 2.413-1.133 3.827 0.659 3.484 2.683 7.299 5.948 10.564s7.080 5.289 10.564 5.948c1.413 0.267 2.839-0.145 3.827-1.133l0.868-0.868c1.041-1.041 1.041-2.729 0-3.771l-1.564-1.564c-0.781-0.781-2.048-0.781-2.828 0l-1.204 1.205c-0.289 0.289-0.728 0.387-1.103 0.221-1.772-0.783-3.52-1.96-5.080-3.519z"></path>
<path fill="none" stroke="#688595" style="stroke: var(--color1, #688595)" stroke-linejoin="round" stroke-linecap="round" stroke-miterlimit="4" stroke-width="1.2" d="M20 4v8h8"></path>
<path fill="none" stroke="#688595" style="stroke: var(--color1, #688595)" stroke-linejoin="round" stroke-linecap="round" stroke-miterlimit="4" stroke-width="1.2" d="M28 4l-8 8"></path>
</symbol>
<symbol id="i-letter" viewBox="0 0 32 32">
<path fill="none" stroke="#688595" style="stroke: var(--color1, #688595)" stroke-linejoin="round" stroke-linecap="round" stroke-miterlimit="4" stroke-width="1.2" d="M26.955 11.697l-9.333-7.147c-0.465-0.356-1.035-0.549-1.621-0.549s-1.156 0.193-1.621 0.549l-9.333 7.147c-0.325 0.249-0.589 0.569-0.77 0.937s-0.276 0.771-0.276 1.181v11.519c0 0.707 0.281 1.386 0.781 1.886s1.178 0.781 1.886 0.781h18.667c0.707 0 1.386-0.281 1.886-0.781s0.781-1.178 0.781-1.886v-11.519c0-0.41-0.094-0.814-0.276-1.181s-0.445-0.688-0.77-0.937z"></path>
<path fill="none" stroke="#688595" style="stroke: var(--color1, #688595)" stroke-linejoin="round" stroke-linecap="round" stroke-miterlimit="4" stroke-width="1.2" d="M4.25 12.689l10.129 7.756c0.465 0.356 1.035 0.549 1.621 0.549s1.156-0.193 1.621-0.549l10.13-7.758"></path>
<path fill="none" stroke="#688595" style="stroke: var(--color1, #688595)" stroke-linejoin="round" stroke-linecap="round" stroke-miterlimit="4" stroke-width="1.2" d="M18 12.334l-2.667 2-1.333-1"></path>
</symbol>
<symbol id="i-mess" viewBox="0 0 32 32">
<path fill="none" stroke="#688595" style="stroke: var(--color1, #688595)" stroke-linejoin="round" stroke-linecap="round" stroke-miterlimit="4" stroke-width="1.2" d="M18.727 18.666h-2.727v-2.727c-0-0.138 0.027-0.276 0.080-0.404s0.131-0.244 0.229-0.342l4.218-4.218c0.098-0.098 0.214-0.176 0.342-0.229s0.265-0.080 0.403-0.081 0.275 0.027 0.403 0.080c0.128 0.053 0.244 0.13 0.342 0.228l0.001 0.002 1.673 1.672c0.098 0.098 0.176 0.214 0.229 0.342s0.080 0.265 0.081 0.403c0 0.138-0.027 0.275-0.080 0.403s-0.13 0.244-0.228 0.342l-4.22 4.22c-0.198 0.198-0.466 0.309-0.746 0.309v0z"></path>
<path fill="none" stroke="#688595" style="stroke: var(--color1, #688595)" stroke-linejoin="round" stroke-linecap="round" stroke-miterlimit="4" stroke-width="1.2" d="M19.219 25.333h4.781c1.061 0 2.078-0.421 2.828-1.172s1.172-1.768 1.172-2.828v-13.333c0-1.061-0.421-2.078-1.172-2.828s-1.768-1.172-2.828-1.172h-16c-1.061 0-2.078 0.421-2.828 1.172s-1.172 1.768-1.172 2.828v13.333c0 1.061 0.421 2.078 1.172 2.828s1.768 1.172 2.828 1.172h4.781"></path>
<path fill="none" stroke="#688595" style="stroke: var(--color1, #688595)" stroke-linejoin="round" stroke-linecap="round" stroke-miterlimit="4" stroke-width="1.2" d="M19.219 25.334l-2.276 2.276c-0.25 0.25-0.589 0.391-0.943 0.391s-0.693-0.14-0.943-0.391l-2.276-2.276"></path>
<path fill="none" stroke="#688595" style="stroke: var(--color1, #688595)" stroke-linejoin="round" stroke-linecap="round" stroke-miterlimit="4" stroke-width="1.2" d="M8.067 18.667c0 0.013-0.004 0.026-0.011 0.037s-0.018 0.019-0.030 0.024c-0.012 0.005-0.026 0.006-0.038 0.004s-0.025-0.009-0.034-0.018c-0.009-0.009-0.016-0.021-0.018-0.034s-0.001-0.026 0.004-0.038 0.014-0.023 0.025-0.030c0.011-0.007 0.024-0.011 0.037-0.011 0.009 0 0.018 0.002 0.026 0.005s0.015 0.008 0.022 0.014c0.006 0.006 0.011 0.014 0.014 0.022s0.005 0.017 0.005 0.026"></path>
<path fill="none" stroke="#688595" style="stroke: var(--color1, #688595)" stroke-linejoin="round" stroke-linecap="round" stroke-miterlimit="4" stroke-width="1.2" d="M12.067 18.667c0 0.013-0.004 0.026-0.011 0.037s-0.018 0.019-0.030 0.024c-0.012 0.005-0.026 0.006-0.038 0.004s-0.025-0.009-0.034-0.018c-0.009-0.009-0.016-0.021-0.018-0.034s-0.001-0.026 0.004-0.038 0.014-0.023 0.025-0.030c0.011-0.007 0.024-0.011 0.037-0.011 0.009 0 0.018 0.002 0.026 0.005s0.015 0.008 0.022 0.014c0.006 0.006 0.011 0.014 0.014 0.022s0.005 0.017 0.005 0.026"></path>
</symbol>
<symbol id="i-bag" viewBox="0 0 32 32">
<path fill="none" stroke="#688595" style="stroke: var(--color1, #688595)" stroke-linejoin="round" stroke-linecap="round" stroke-miterlimit="4" stroke-width="1.2" d="M5.333 9.334v-2.667c0-0.354 0.14-0.693 0.391-0.943s0.589-0.391 0.943-0.391h18.667c0.354 0 0.693 0.14 0.943 0.391s0.39 0.589 0.39 0.943v2.667"></path>
<path fill="none" stroke="#688595" style="stroke: var(--color1, #688595)" stroke-linejoin="round" stroke-linecap="round" stroke-miterlimit="4" stroke-width="1.2" d="M26.667 9.334h-21.333c-0.354 0-0.693 0.14-0.943 0.39s-0.391 0.589-0.391 0.943v14.667c0 0.707 0.281 1.386 0.781 1.886s1.178 0.781 1.886 0.781h18.667c0.707 0 1.386-0.281 1.886-0.781s0.781-1.178 0.781-1.886v-14.667c0-0.354-0.14-0.693-0.391-0.943s-0.589-0.39-0.943-0.39z"></path>
<path fill="none" stroke="#688595" style="stroke: var(--color1, #688595)" stroke-linejoin="round" stroke-linecap="round" stroke-miterlimit="4" stroke-width="1.2" d="M21.333 14.666c0 1.414-0.562 2.771-1.562 3.771s-2.357 1.562-3.771 1.562-2.771-0.562-3.771-1.562c-1-1-1.562-2.357-1.562-3.771"></path>
</symbol>
<symbol id="i-support" viewBox="0 0 32 32">
<path fill="none" stroke="#688595" style="stroke: var(--color1, #688595)" stroke-linejoin="round" stroke-linecap="round" stroke-miterlimit="4" stroke-width="1.2" d="M25.333 22.667h-1.333c-0.736 0-1.333-0.597-1.333-1.333v-6.667c0-0.736 0.597-1.333 1.333-1.333h1.333c1.473 0 2.667 1.193 2.667 2.667v4c0 1.473-1.193 2.667-2.667 2.667z"></path>
<path fill="none" stroke="#688595" style="stroke: var(--color1, #688595)" stroke-linejoin="round" stroke-linecap="round" stroke-miterlimit="4" stroke-width="1.2" d="M8 22.667h-1.333c-1.473 0-2.667-1.193-2.667-2.667v-4c0-1.473 1.193-2.667 2.667-2.667h1.333c0.736 0 1.333 0.597 1.333 1.333v6.667c0 0.736-0.597 1.333-1.333 1.333z"></path>
<path fill="none" stroke="#688595" style="stroke: var(--color1, #688595)" stroke-linejoin="round" stroke-linecap="round" stroke-miterlimit="4" stroke-width="1.2" d="M24.667 13.333v-0.667c0-4.787-3.88-8.667-8.667-8.667s-8.667 3.88-8.667 8.667v0.667"></path>
<path fill="none" stroke="#688595" style="stroke: var(--color1, #688595)" stroke-linejoin="round" stroke-linecap="round" stroke-miterlimit="4" stroke-width="1.2" d="M16.833 28.333h-1.667c-0.92 0-1.667-0.747-1.667-1.667s0.747-1.667 1.667-1.667h1.667c0.92 0 1.667 0.747 1.667 1.667s-0.747 1.667-1.667 1.667z"></path>
<path fill="none" stroke="#688595" style="stroke: var(--color1, #688595)" stroke-linejoin="round" stroke-linecap="round" stroke-miterlimit="4" stroke-width="1.2" d="M18.5 26.666h2.833c1.473 0 2.667-1.193 2.667-2.667v-1.333"></path>
</symbol>
<symbol id="i-user-sup" viewBox="0 0 32 32">
<path fill="none" stroke="#688595" style="stroke: var(--color1, #688595)" stroke-linejoin="round" stroke-linecap="round" stroke-miterlimit="4" stroke-width="1.2" d="M7.333 16.333c0.005-0.658 0.205-1.3 0.574-1.845s0.892-0.968 1.501-1.217c0.609-0.248 1.279-0.311 1.924-0.179s1.236 0.451 1.7 0.918c0.464 0.467 0.779 1.061 0.905 1.707s0.059 1.315-0.194 1.922c-0.253 0.608-0.68 1.127-1.228 1.492s-1.191 0.56-1.849 0.56c-0.44-0.001-0.875-0.089-1.28-0.258s-0.774-0.417-1.083-0.729c-0.31-0.312-0.555-0.682-0.721-1.089s-0.251-0.843-0.249-1.282z"></path>
<path fill="none" stroke="#688595" style="stroke: var(--color1, #688595)" stroke-linejoin="round" stroke-linecap="round" stroke-miterlimit="4" stroke-width="1.2" d="M18.667 13c-0.066-0-0.131 0.019-0.186 0.055s-0.098 0.088-0.124 0.149-0.032 0.128-0.020 0.193c0.013 0.065 0.044 0.124 0.091 0.171s0.106 0.079 0.171 0.092c0.065 0.013 0.132 0.006 0.193-0.019s0.113-0.068 0.15-0.123 0.056-0.119 0.056-0.185c0-0.044-0.008-0.087-0.025-0.128s-0.041-0.077-0.072-0.108c-0.031-0.031-0.068-0.056-0.108-0.072s-0.084-0.025-0.127-0.025z"></path>
<path fill="none" stroke="#688595" style="stroke: var(--color1, #688595)" stroke-linejoin="round" stroke-linecap="round" stroke-miterlimit="4" stroke-width="1.2" d="M22.816 13c-0.066-0-0.131 0.019-0.186 0.055s-0.098 0.088-0.124 0.149c-0.025 0.061-0.032 0.128-0.020 0.193s0.044 0.124 0.091 0.171c0.047 0.047 0.106 0.079 0.171 0.092s0.132 0.006 0.193-0.019c0.061-0.025 0.113-0.068 0.15-0.123s0.056-0.119 0.056-0.185c0-0.044-0.008-0.087-0.024-0.128s-0.041-0.077-0.072-0.108-0.068-0.056-0.108-0.072c-0.040-0.017-0.084-0.025-0.127-0.025"></path>
<path fill="none" stroke="#688595" style="stroke: var(--color1, #688595)" stroke-linejoin="round" stroke-linecap="round" stroke-miterlimit="4" stroke-width="1.2" d="M4 27.167v-0.833c0.003-0.883 0.355-1.73 0.979-2.354s1.471-0.977 2.354-0.979h6.667c0.883 0.003 1.73 0.355 2.354 0.979s0.977 1.471 0.979 2.354v0.833c-0.001 0.221-0.089 0.432-0.245 0.589s-0.368 0.244-0.589 0.245h-11.667c-0.221-0.001-0.432-0.089-0.589-0.245s-0.244-0.368-0.245-0.589v0z"></path>
<path fill="none" stroke="#688595" style="stroke: var(--color1, #688595)" stroke-linejoin="round" stroke-linecap="round" stroke-miterlimit="4" stroke-width="1.2" d="M11.036 8c0.852-1.22 1.985-2.218 3.302-2.911s2.781-1.060 4.27-1.072c1.488-0.011 2.958 0.334 4.285 1.007s2.475 1.654 3.346 2.861c0.871 1.207 1.44 2.605 1.66 4.077s0.084 2.975-0.396 4.384c-0.48 1.409-1.291 2.682-2.364 3.714s-2.378 1.791-3.804 2.215"></path>
</symbol>
<symbol id="i-headphones" viewBox="0 0 32 32">
<path fill="none" stroke="#70c1a0" style="stroke: var(--color2, #70c1a0)" stroke-linejoin="round" stroke-linecap="round" stroke-miterlimit="4" stroke-width="1.2" d="M28 16c0 3.183-1.264 6.235-3.515 8.485s-5.303 3.515-8.485 3.515"></path>
<path fill="none" stroke="#70c1a0" style="stroke: var(--color2, #70c1a0)" stroke-linejoin="round" stroke-linecap="round" stroke-miterlimit="4" stroke-width="1.2" d="M4 16c0-3.183 1.264-6.235 3.515-8.485s5.303-3.515 8.485-3.515"></path>
<path fill="none" stroke="#70c1a0" style="stroke: var(--color2, #70c1a0)" stroke-linejoin="round" stroke-linecap="round" stroke-miterlimit="4" stroke-width="1.2" d="M4 16c0 1.406 0.25 2.8 0.738 4.118 0.108 0.297 0.317 0.546 0.59 0.704s0.593 0.216 0.904 0.162l1.315-0.232c0.511-0.090 0.967-0.376 1.272-0.796s0.434-0.943 0.36-1.457l-0.396-2.77c-0.038-0.265-0.129-0.52-0.267-0.75s-0.322-0.429-0.539-0.586c-0.217-0.157-0.464-0.269-0.725-0.33s-0.532-0.067-0.796-0.021l-2.347 0.414"></path>
<path fill="none" stroke="#70c1a0" style="stroke: var(--color2, #70c1a0)" stroke-linejoin="round" stroke-linecap="round" stroke-miterlimit="4" stroke-width="1.2" d="M28 16c0-3.183-1.264-6.235-3.515-8.485s-5.303-3.515-8.485-3.515"></path>
<path fill="none" stroke="#70c1a0" style="stroke: var(--color2, #70c1a0)" stroke-linejoin="round" stroke-linecap="round" stroke-miterlimit="4" stroke-width="1.2" d="M28 16c-0 1.406-0.25 2.8-0.738 4.118-0.108 0.297-0.317 0.546-0.59 0.704s-0.593 0.216-0.904 0.162l-1.315-0.232c-0.511-0.090-0.967-0.376-1.272-0.796s-0.434-0.943-0.36-1.457l0.396-2.77c0.038-0.265 0.129-0.52 0.267-0.75s0.322-0.429 0.539-0.586 0.464-0.269 0.725-0.33c0.261-0.060 0.532-0.067 0.796-0.021l2.347 0.414"></path>
<path fill="none" stroke="#70c1a0" style="stroke: var(--color2, #70c1a0)" stroke-linejoin="round" stroke-linecap="round" stroke-miterlimit="4" stroke-width="1.2" d="M17.99 16.655c-0.002 0-0.004 0.001-0.006 0.002s-0.003 0.003-0.004 0.004c-0.001 0.002-0.001 0.004-0.001 0.006s0.001 0.004 0.003 0.005c0.001 0.001 0.003 0.002 0.005 0.003s0.004 0 0.006-0.001c0.002-0.001 0.003-0.002 0.004-0.004s0.002-0.004 0.002-0.006c0-0.001-0-0.003-0.001-0.004s-0.001-0.002-0.002-0.003c-0.001-0.001-0.002-0.002-0.003-0.002s-0.003-0.001-0.004-0.001"></path>
<path fill="none" stroke="#70c1a0" style="stroke: var(--color2, #70c1a0)" stroke-linejoin="round" stroke-linecap="round" stroke-miterlimit="4" stroke-width="1.2" d="M14.010 16.659c-0.002 0-0.004 0.001-0.006 0.002s-0.003 0.003-0.004 0.004c-0.001 0.002-0.001 0.004-0.001 0.006s0.001 0.004 0.003 0.005c0.001 0.001 0.003 0.002 0.005 0.003s0.004 0 0.006-0.001c0.002-0.001 0.003-0.002 0.004-0.004s0.002-0.004 0.002-0.006c0-0.001-0-0.003-0.001-0.004s-0.001-0.002-0.002-0.003c-0.001-0.001-0.002-0.002-0.003-0.002s-0.003-0.001-0.004-0.001"></path>
</symbol>
<symbol id="i-teamwork" viewBox="0 0 32 32">
<path fill="none" stroke="#70c1a0" style="stroke: var(--color2, #70c1a0)" stroke-linejoin="round" stroke-linecap="round" stroke-miterlimit="4" stroke-width="1.2" d="M12.3 8.602c0-2.043 1.656-3.7 3.7-3.7 2.043 0 3.7 1.656 3.7 3.7 0 2.043-1.656 3.7-3.7 3.7-2.044-0.003-3.7-1.659-3.7-3.7z"></path>
<path fill="none" stroke="#70c1a0" style="stroke: var(--color2, #70c1a0)" stroke-linejoin="round" stroke-linecap="round" stroke-miterlimit="4" stroke-width="1.2" d="M3.333 23.398c0-2.043 1.656-3.7 3.7-3.7 2.043 0 3.7 1.656 3.7 3.7-0.001 2.043-1.656 3.7-3.7 3.7s-3.7-1.656-3.7-3.7v0z"></path>
<path fill="none" stroke="#70c1a0" style="stroke: var(--color2, #70c1a0)" stroke-linejoin="round" stroke-linecap="round" stroke-miterlimit="4" stroke-width="1.2" d="M21.268 23.398c0-2.043 1.656-3.7 3.7-3.7 2.043 0 3.7 1.656 3.7 3.7 0 2.043-1.656 3.7-3.7 3.7-2.045 0-3.7-1.656-3.7-3.7v0z"></path>
<path fill="none" stroke="#70c1a0" style="stroke: var(--color2, #70c1a0)" stroke-linejoin="round" stroke-linecap="round" stroke-miterlimit="4" stroke-width="1.2" d="M11.32 15.893l-2.68 4.187"></path>
<path fill="none" stroke="#70c1a0" style="stroke: var(--color2, #70c1a0)" stroke-linejoin="round" stroke-linecap="round" stroke-miterlimit="4" stroke-width="1.2" d="M18 11.707l2.68 4.187"></path>
<path fill="none" stroke="#70c1a0" style="stroke: var(--color2, #70c1a0)" stroke-linejoin="round" stroke-linecap="round" stroke-miterlimit="4" stroke-width="1.2" d="M21.267 23.4h-5.267"></path>
</symbol>
<symbol id="i-two" viewBox="0 0 32 32">
<path fill="none" stroke="#70c1a0" style="stroke: var(--color2, #70c1a0)" stroke-linejoin="round" stroke-linecap="round" stroke-miterlimit="4" stroke-width="1.2" d="M11.6 18.096c0-0.379 0.14-0.743 0.391-1.011s0.589-0.419 0.943-0.419 0.693 0.151 0.943 0.419c0.25 0.268 0.391 0.632 0.391 1.011 0 1.787-2.667 1.787-2.667 3.904h2.667"></path>
<path fill="none" stroke="#70c1a0" style="stroke: var(--color2, #70c1a0)" stroke-linejoin="round" stroke-linecap="round" stroke-miterlimit="4" stroke-width="1.2" d="M12.843 28c4.884 0 8.843-3.959 8.843-8.843s-3.959-8.843-8.843-8.843c-4.884 0-8.843 3.959-8.843 8.843s3.959 8.843 8.843 8.843z"></path>
<path fill="none" stroke="#70c1a0" style="stroke: var(--color2, #70c1a0)" stroke-linejoin="round" stroke-linecap="round" stroke-miterlimit="4" stroke-width="1.2" d="M12.906 6.591c3.452-3.453 9.051-3.452 12.504 0s3.453 9.051 0 12.504"></path>
</symbol>
</defs>
</svg>
