<svg width="961" height="747" viewBox="0 0 961 747" fill="none" xmlns="http://www.w3.org/2000/svg">
<g opacity="0.14">
<path d="M746.879 994.569L995.505 994.569L995.505 746L746.879 746L746.879 994.569Z" stroke="#688595" stroke-miterlimit="10"/>
<path d="M498.253 994.569L746.879 994.569L746.879 746L498.253 746L498.253 994.569Z" stroke="#688595" stroke-miterlimit="10"/>
<path d="M746.879 745.999L995.505 745.999L995.505 497.429L746.879 497.429L746.879 745.999Z" stroke="#688595" stroke-miterlimit="10"/>
<path d="M498.253 745.999L746.879 745.999L746.879 497.429L498.253 497.429L498.253 745.999Z" stroke="#688595" stroke-miterlimit="10"/>
<path d="M249.627 994.807L498.253 994.807L498.253 746.238L249.627 746.237L249.627 994.807Z" stroke="#688595" stroke-miterlimit="10"/>
<path d="M249.627 746.237L498.253 746.237L498.253 497.668L249.627 497.668L249.627 746.237Z" stroke="#688595" stroke-miterlimit="10"/>
<path d="M249.627 497.667L498.253 497.667L498.253 249.098L249.627 249.098L249.627 497.667Z" stroke="#688595" stroke-miterlimit="10"/>
<path d="M1.00003 994.569L249.626 994.569L249.626 746L1.00005 745.999L1.00003 994.569Z" stroke="#688595" stroke-miterlimit="10"/>
<path d="M1.00003 745.999L249.626 745.999L249.626 497.429L1.00005 497.429L1.00003 745.999Z" stroke="#688595" stroke-miterlimit="10"/>
<path d="M1.00003 497.429L249.626 497.429L249.626 248.859L1.00005 248.859L1.00003 497.429Z" stroke="#688595" stroke-miterlimit="10"/>
<path d="M746.879 497.429L995.505 497.429L995.505 248.859L746.879 248.859L746.879 497.429Z" stroke="#688595" stroke-miterlimit="10"/>
<path d="M498.253 497.429L746.879 497.429L746.879 248.859L498.253 248.859L498.253 497.429Z" stroke="#688595" stroke-miterlimit="10"/>
<path d="M498.366 746.082L746.754 746.082C746.752 811.841 720.661 874.915 674.205 921.467C627.749 968.019 564.721 994.249 498.947 994.403L498.366 746.082Z" stroke="#688595" stroke-miterlimit="10"/>
<path d="M498.366 0.414035L746.754 0.414057C746.752 66.1734 720.661 129.247 674.205 175.799C627.749 222.352 564.721 248.581 498.947 248.735L498.366 0.414035Z" stroke="#688595" stroke-miterlimit="10"/>
<path d="M125.308 746.248C56.6547 746.248 1.00018 801.89 1.00018 870.528C1.00017 939.165 56.6547 994.807 125.308 994.807C193.962 994.807 249.616 939.165 249.616 870.528C249.616 801.89 193.962 746.248 125.308 746.248Z" stroke="#688595" stroke-miterlimit="10"/>
<path d="M1.65339 496.776L248.973 425.281L73.1649 249.513L1.65339 496.776Z" stroke="#688595" stroke-miterlimit="10"/>
<path d="M746.216 745.346L674.705 498.082L498.907 673.851L746.216 745.346Z" stroke="#688595" stroke-miterlimit="10"/>
<path d="M249.626 248.859L1.00006 0.289548" stroke="#688595" stroke-miterlimit="10"/>
<path d="M995.505 248.859L746.879 497.429" stroke="#688595" stroke-miterlimit="10"/>
<path d="M1.00002 0.289688L1 248.859L249.627 248.859L249.627 0.28971L1.00002 0.289688Z" stroke="#688595" stroke-miterlimit="10"/>
<path d="M249.626 0.289597L249.626 248.859L498.253 248.859L498.253 0.289618L249.626 0.289597Z" stroke="#688595" stroke-miterlimit="10"/>
<path d="M498.253 0.299835L498.253 248.87L746.879 248.87L746.879 0.299857L498.253 0.299835Z" stroke="#688595" stroke-miterlimit="10"/>
<path d="M746.879 0.299988L746.879 248.87L995.505 248.87L995.505 0.30001L746.879 0.299988Z" stroke="#688595" stroke-miterlimit="10"/>
</g>
</svg>
