<svg width="192" height="220" viewBox="0 0 192 220" fill="none" xmlns="http://www.w3.org/2000/svg">
<rect x="0.5" y="34.5" width="152" height="152" stroke="#70C1A0"/>
<path d="M191.047 164.886C190.272 164.886 189.521 165.023 188.769 165.023C174.136 165.023 160.103 159.22 149.756 148.89C139.41 138.561 133.597 124.551 133.597 109.943C133.597 95.3351 139.41 81.3254 149.756 70.996C160.103 60.6665 174.136 54.8635 188.769 54.8635C189.543 54.8635 190.295 54.8636 191.047 54.9773L191.047 0.0113628C190.272 0.0113628 189.521 0.0113629 188.769 0.0113629C174.167 -0.198246 159.67 2.49183 146.119 7.92521C132.568 13.3586 120.234 21.4269 109.834 31.6611C99.4346 41.8952 91.1763 54.0911 85.5395 67.5398C79.9028 80.9884 77 95.4215 77 110C77 124.578 79.9028 139.012 85.5395 152.46C91.1763 165.909 99.4346 178.105 109.834 188.339C120.234 198.573 132.568 206.641 146.119 212.075C159.67 217.508 174.167 220.198 188.769 219.989C189.543 219.989 190.295 219.989 191.047 219.989L191.047 164.886Z" fill="#688595"/>
</svg>
