<svg width="263" height="156" viewBox="0 0 263 156" fill="none" xmlns="http://www.w3.org/2000/svg">
<path d="M262.489 152.762V152.769V152.773V152.778V152.782V152.786V152.791V152.795V152.8V152.804V152.809V152.813V152.817V152.822V152.826V152.831V152.835V152.839V152.844V152.848V152.853V152.857V152.861V152.866V152.87V152.875V152.879V152.883V152.888V152.892V152.897V152.901V152.905V152.91V152.914V152.919V152.923V152.927V152.932V152.936V152.941V152.945V152.949V152.954V152.958V152.963V152.967V152.972V152.976V152.98V152.985V152.989V152.994V152.998V153.002V153.007V153.011V153.016V153.02V153.024V153.029V153.033V153.038V153.042V153.046V153.051V153.055V153.06V153.064V153.068V153.073V153.077V153.082V153.086V153.09V153.095V153.099V153.104V153.108V153.113V153.117V153.121V153.126V153.13V153.135V153.139V153.143V153.148V153.152V153.157V153.161V153.165V153.17V153.174V153.179V153.183V153.187V153.192V153.196V153.201V153.205V153.21V153.214V153.218V153.223V153.227V153.232V153.236V153.24V153.245V153.249V153.254V153.258V153.262V153.267V153.271V153.276V153.28V153.284V153.289V153.293V153.298V153.302V153.307V153.311V153.315V153.32V153.324V153.329V153.333V153.337V153.342V153.346V153.351V153.355V153.36V153.364V153.368V153.373V153.377V153.382V153.386V153.39V153.395V153.399V153.404V153.408V153.412V153.417V153.421V153.426V153.43V153.435V153.439V153.443V153.448V153.452V153.457V153.461V153.465V153.47V153.474V153.479V153.483V153.488V153.492V153.496V153.501V153.505V153.51V153.514V153.518V153.523V153.527V153.532V153.536V153.541V153.545V153.549V153.554V153.558V153.563V153.567V153.572V153.576V153.58V153.585V153.589V153.594V153.598V153.602V153.607V153.611V153.616V153.62V153.625V153.629V153.633V153.638V153.642V153.647V153.651V153.656V153.66V153.664V153.669V153.673V153.678V153.682V153.687V153.691V153.695V153.7V153.704V153.709V153.713V153.718V153.722V153.726V153.731V153.735V153.74V153.744V153.749V153.753V153.757V153.762V153.766V153.771V153.775V153.78V153.784V153.788V153.793V153.797V153.802V153.806V153.811V153.815V153.819V153.824V153.828V153.833V153.837V153.842V153.846V153.851V153.855V153.859V153.864V153.868V153.873V153.877V153.882V153.886V153.89V153.895V153.899V153.904V153.908V153.913V153.917V153.922V153.926V153.93V153.935V153.939V153.944V153.948V153.953V153.957V153.961V153.966V153.97V153.975V153.979V153.984V153.988V153.993V153.997V154.001V154.006V154.01V154.015V154.019V154.024V154.028V154.033V154.037V154.041V154.046V154.05V154.055V154.059V154.064V154.068V154.073V154.077V154.081V154.086V154.09V154.095V154.099V154.104V154.108V154.113V154.117V154.122V154.126V154.13V154.135V154.139V154.144V154.148V154.153V154.157V154.162V154.166V154.171V154.175V154.179V154.184V154.188V154.193V154.197V154.202V154.206V154.211V154.215V154.22V154.224V154.229V154.233V154.237V154.242V154.246V154.251V154.255V154.26V154.264V154.269V154.273V154.278V154.282V154.287V154.291V154.295V154.3V154.304V154.309V154.313V154.318V154.322V154.327V154.331V154.336V154.34V154.345V154.349V154.354V154.358V154.362V154.367V154.371V154.376V154.38V154.385V154.389V154.394V154.398V154.403V154.407V154.412V154.416V154.421V154.425V154.43V154.434V154.439V154.443V154.447V154.452V154.456V154.461V154.465V154.47V154.474V154.479V154.483V154.488V154.492V154.497V154.501V154.506V154.51V154.515V154.519V154.524V154.528V154.533V154.537V154.542V154.546V154.547H208.585C208.636 153.952 208.636 153.363 208.636 152.786V152.769C208.636 138.004 202.781 123.844 192.358 113.403C181.935 102.962 167.798 97.0968 153.057 97.0968C138.316 97.0968 124.179 102.962 113.756 113.403C103.333 123.844 97.4773 138.004 97.4773 152.769C97.4773 153.165 97.5126 153.557 97.5458 153.926L97.5475 153.944C97.5661 154.15 97.5839 154.35 97.5963 154.547H43.5114V154.544V154.54V154.536V154.531V154.527V154.522V154.518V154.514V154.509V154.505V154.5V154.496V154.492V154.487V154.483V154.478V154.474V154.469V154.465V154.461V154.456V154.452V154.447V154.443V154.439V154.434V154.43V154.425V154.421V154.416V154.412V154.408V154.403V154.399V154.394V154.39V154.386V154.381V154.377V154.372V154.368V154.363V154.359V154.355V154.35V154.346V154.341V154.337V154.333V154.328V154.324V154.319V154.315V154.31V154.306V154.302V154.297V154.293V154.288V154.284V154.28V154.275V154.271V154.266V154.262V154.257V154.253V154.249V154.244V154.24V154.235V154.231V154.226V154.222V154.218V154.213V154.209V154.204V154.2V154.196V154.191V154.187V154.182V154.178V154.173V154.169V154.165V154.16V154.156V154.151V154.147V154.142V154.138V154.134V154.129V154.125V154.12V154.116V154.111V154.107V154.103V154.098V154.094V154.089V154.085V154.08V154.076V154.072V154.067V154.063V154.058V154.054V154.049V154.045V154.041V154.036V154.032V154.027V154.023V154.018V154.014V154.01V154.005V154.001V153.996V153.992V153.987V153.983V153.978V153.974V153.97V153.965V153.961V153.956V153.952V153.947V153.943V153.939V153.934V153.93V153.925V153.921V153.916V153.912V153.908V153.903V153.899V153.894V153.89V153.885V153.881V153.876V153.872V153.868V153.863V153.859V153.854V153.85V153.845V153.841V153.836V153.832V153.828V153.823V153.819V153.814V153.81V153.805V153.801V153.796V153.792V153.788V153.783V153.779V153.774V153.77V153.765V153.761V153.756V153.752V153.748V153.743V153.739V153.734V153.73V153.725V153.721V153.716V153.712V153.707V153.703V153.699V153.694V153.69V153.685V153.681V153.676V153.672V153.667V153.663V153.659V153.654V153.65V153.645V153.641V153.636V153.632V153.627V153.623V153.618V153.614V153.609V153.605V153.601V153.596V153.592V153.587V153.583V153.578V153.574V153.569V153.565V153.56V153.556V153.552V153.547V153.543V153.538V153.534V153.529V153.525V153.52V153.516V153.511V153.507V153.502V153.498V153.493V153.489V153.485V153.48V153.476V153.471V153.467V153.462V153.458V153.453V153.449V153.444V153.44V153.435V153.431V153.426V153.422V153.417V153.413V153.409V153.404V153.4V153.395V153.391V153.386V153.382V153.377V153.373V153.368V153.364V153.359V153.355V153.35V153.346V153.341V153.337V153.332V153.328V153.323V153.319V153.314V153.31V153.306V153.301V153.297V153.292V153.288V153.283V153.279V153.274V153.27V153.265V153.261V153.256V153.252V153.247V153.243V153.238V153.234V153.229V153.225V153.22V153.216V153.211V153.207V153.202V153.198V153.193V153.189V153.184V153.18V153.175V153.171V153.166V153.162V153.157V153.153V153.148V153.144V153.139V153.135V153.13V153.126V153.121V153.117V153.112V153.108V153.103V153.099V153.094V153.09V153.085V153.081V153.076V153.072V153.067V153.063V153.058V153.054V153.049V153.045V153.04V153.036V153.031V153.027V153.022V153.018V153.013V153.009V153.004V153V152.995V152.991V152.986V152.982V152.977V152.973V152.968V152.964V152.959V152.955V152.95V152.945V152.941V152.936V152.932V152.927V152.923V152.918V152.914V152.909V152.905V152.9V152.896V152.891V152.887V152.882V152.878V152.873V152.869V152.864V152.86V152.855V152.85V152.846V152.841V152.837V152.832V152.828V152.823V152.819V152.814V152.81V152.805V152.801V152.796V152.792V152.787V152.782V152.778V152.773L43.5114 152.769L43.5113 152.762C43.3027 138.226 45.9806 123.795 51.3893 110.305C56.7981 96.8156 64.8298 84.5378 75.0175 74.1852C85.2052 63.8326 97.3456 55.6118 110.733 50.0007C124.12 44.3895 138.488 41.5 153 41.5C167.512 41.5 181.88 44.3895 195.267 50.0007C208.654 55.6118 220.795 63.8326 230.983 74.1852C241.17 84.5378 249.202 96.8156 254.611 110.305C260.019 123.795 262.697 138.226 262.489 152.762Z" stroke="#193F3F"/>
<circle cx="58.5" cy="58.5" r="58.5" fill="#70C1A0"/>
</svg>
