<svg width="315" height="205" viewBox="0 0 315 205" fill="none" xmlns="http://www.w3.org/2000/svg">
<path d="M2.52885 105.898L2.52545 105.892L2.52337 105.888L2.52128 105.884L2.5192 105.88L2.51711 105.876L2.51503 105.873L2.51294 105.869L2.51086 105.865L2.50877 105.861L2.50669 105.857L2.5046 105.853L2.50252 105.849L2.50043 105.845L2.49835 105.842L2.49626 105.838L2.49418 105.834L2.4921 105.83L2.49001 105.826L2.48793 105.822L2.48584 105.818L2.48375 105.814L2.48167 105.81L2.47959 105.807L2.4775 105.803L2.47542 105.799L2.47333 105.795L2.47125 105.791L2.46916 105.787L2.46708 105.783L2.46499 105.779L2.46291 105.776L2.46082 105.772L2.45874 105.768L2.45665 105.764L2.45457 105.76L2.45248 105.756L2.4504 105.752L2.44831 105.748L2.44623 105.744L2.44414 105.741L2.44206 105.737L2.43997 105.733L2.43789 105.729L2.4358 105.725L2.43372 105.721L2.43163 105.717L2.42955 105.713L2.42746 105.71L2.42538 105.706L2.42329 105.702L2.4212 105.698L2.41912 105.694L2.41703 105.69L2.41495 105.686L2.41286 105.682L2.41078 105.679L2.40869 105.675L2.4066 105.671L2.40452 105.667L2.40243 105.663L2.40035 105.659L2.39826 105.655L2.39618 105.651L2.39409 105.647L2.39201 105.644L2.38992 105.64L2.38783 105.636L2.38575 105.632L2.38366 105.628L2.38158 105.624L2.37949 105.62L2.37741 105.616L2.37532 105.613L2.37324 105.609L2.37115 105.605L2.36906 105.601L2.36698 105.597L2.36489 105.593L2.3628 105.589L2.36072 105.585L2.35863 105.581L2.35655 105.578L2.35446 105.574L2.35237 105.57L2.35029 105.566L2.3482 105.562L2.34611 105.558L2.34403 105.554L2.34194 105.55L2.33985 105.547L2.33777 105.543L2.33568 105.539L2.33359 105.535L2.33151 105.531L2.32942 105.527L2.32733 105.523L2.32524 105.519L2.32316 105.515L2.32107 105.512L2.31898 105.508L2.3169 105.504L2.31481 105.5L2.31272 105.496L2.31063 105.492L2.30855 105.488L2.30646 105.484L2.30437 105.48L2.30229 105.477L2.3002 105.473L2.29811 105.469L2.29602 105.465L2.29394 105.461L2.29185 105.457L2.28976 105.453L2.28767 105.449L2.28558 105.446L2.2835 105.442L2.28141 105.438L2.27932 105.434L2.27723 105.43L2.27515 105.426L2.27305 105.422L2.27097 105.418L2.26888 105.414L2.26679 105.411L2.2647 105.407L2.26261 105.403L2.26052 105.399L2.25844 105.395L2.25635 105.391L2.25426 105.387L2.25217 105.383L2.25008 105.379L2.24799 105.376L2.2459 105.372L2.24381 105.368L2.24172 105.364L2.23963 105.36L2.23755 105.356L2.23546 105.352L2.23337 105.348L2.23128 105.344L2.22919 105.341L2.2271 105.337L2.22501 105.333L2.22292 105.329L2.22083 105.325L2.21874 105.321L2.21665 105.317L2.21456 105.313L2.21247 105.309L2.21038 105.306L2.20829 105.302L2.2062 105.298L2.20411 105.294L2.20202 105.29L2.19993 105.286L2.19784 105.282L2.19575 105.278L2.19365 105.274L2.19156 105.271L2.18947 105.267L2.18738 105.263L2.18529 105.259L2.1832 105.255L2.18111 105.251L2.17902 105.247L2.17692 105.243L2.17483 105.239L2.17274 105.236L2.17065 105.232L2.16856 105.228L2.16647 105.224L2.16438 105.22L2.16228 105.216L2.16019 105.212L2.1581 105.208L2.15601 105.204L2.15392 105.2L2.15182 105.197L2.14973 105.193L2.14764 105.189L2.14554 105.185L2.14345 105.181L2.14136 105.177L2.13927 105.173L2.13717 105.169L2.13508 105.165L2.13299 105.162L2.13089 105.158L2.1288 105.154L2.12671 105.15L2.12461 105.146L2.12252 105.142L2.12043 105.138L2.11833 105.134L2.11624 105.13L2.11414 105.126L2.11205 105.123L2.10995 105.119L2.10786 105.115L2.10577 105.111L2.10367 105.107L2.10158 105.103L2.09948 105.099L2.09739 105.095L2.09529 105.091L2.0932 105.087L2.0911 105.084L2.08901 105.08L2.08691 105.076L2.08482 105.072L2.08272 105.068L2.08063 105.064L2.07853 105.06L2.07643 105.056L2.07434 105.052L2.07224 105.048L2.07015 105.045L2.06805 105.041L2.06595 105.037L2.06386 105.033L2.06176 105.029L2.05966 105.025L2.05757 105.021L2.05547 105.017L2.05337 105.013L2.05128 105.009L2.04918 105.006L2.04708 105.002L2.04498 104.998L2.04289 104.994L2.04079 104.99L2.03869 104.986L2.03659 104.982L2.03449 104.978L2.0324 104.974L2.0303 104.97L2.0282 104.966L2.0261 104.963L2.024 104.959L2.0219 104.955L2.0198 104.951L2.01771 104.947L2.01561 104.943L2.01351 104.939L2.01141 104.935L2.00931 104.931L2.00721 104.927L2.00511 104.924L2.00301 104.92L2.00091 104.916L1.99881 104.912L1.99671 104.908L1.99461 104.904L1.99251 104.9L1.99041 104.896L1.98831 104.892L1.98621 104.888L1.98411 104.884L1.98201 104.881L1.97991 104.877L1.9778 104.873L1.9757 104.869L1.9736 104.865L1.9715 104.861L1.9694 104.857L1.9673 104.853L1.9652 104.849L1.96309 104.845L1.96099 104.841L1.95889 104.837L1.95678 104.834L1.95468 104.83L1.95258 104.826L1.95048 104.822L1.94837 104.818L1.94627 104.814L1.94417 104.81L1.94206 104.806L1.93996 104.802L1.93786 104.798L1.93575 104.794L1.93365 104.791L1.93154 104.787L1.92944 104.783L1.92734 104.779L1.92523 104.775L1.92313 104.771L1.92102 104.767L1.91892 104.763L1.91681 104.759L1.91471 104.755L1.9126 104.751L1.9105 104.747L1.90839 104.744L1.90628 104.74L1.90418 104.736L1.90207 104.732L1.89997 104.728L1.89786 104.724L1.89575 104.72L1.89365 104.716L1.89154 104.712L1.88943 104.708L1.88733 104.704L1.88522 104.7L1.88311 104.696L1.881 104.693L1.87889 104.689L1.87679 104.685L1.87468 104.681L1.87257 104.677L1.87046 104.673L1.86835 104.669L1.86625 104.665L1.86414 104.661L1.86203 104.657L1.85992 104.653L1.85781 104.649L1.8557 104.645L1.85359 104.642L1.85148 104.638L1.84937 104.634L1.84726 104.63L1.84515 104.626L1.84304 104.622L1.84093 104.618L1.83882 104.614L1.83671 104.61L1.8346 104.606L1.83249 104.602L1.83038 104.598L1.82827 104.594L1.82616 104.59L1.82404 104.587L1.82193 104.583L1.81982 104.579L1.81771 104.575L1.81559 104.571L1.81348 104.567L1.81137 104.563L1.80926 104.559L1.80714 104.555L1.80503 104.551L1.80292 104.547L1.8008 104.543L1.79869 104.539L1.79658 104.535L1.79446 104.531L1.79235 104.528L1.79023 104.524L1.78812 104.52L1.786 104.516L1.78389 104.512L1.78178 104.508L1.77966 104.504L1.77754 104.5L1.77543 104.496L1.77331 104.492L1.7712 104.488L1.76908 104.484L1.76696 104.48L1.76485 104.476L1.76273 104.472L1.76062 104.468L1.7585 104.465L1.75638 104.461L1.75426 104.457L1.75215 104.453L1.75003 104.449L1.74791 104.445L1.74579 104.441L1.74368 104.437L1.74156 104.433L1.73944 104.429L1.73732 104.425L1.7352 104.421L1.73308 104.417L1.73096 104.413L1.72884 104.409L1.72672 104.405L1.7246 104.401L1.72248 104.397L1.72036 104.394L1.71824 104.39L1.71612 104.386L1.714 104.382L1.71188 104.378L1.70976 104.374L1.70764 104.37L1.70551 104.366L1.70339 104.362L1.70127 104.358L1.69915 104.354L1.69703 104.35L1.69491 104.346L1.69278 104.342L1.69066 104.338L1.68854 104.334L1.68641 104.33L1.68429 104.326L1.68393 104.326L49.1678 78.8127C49.4035 79.3608 49.6824 79.8797 49.9555 80.3882L49.9637 80.4034C56.952 93.4097 68.8123 103.112 82.9356 107.376C97.0589 111.64 112.288 110.116 125.274 103.139C138.259 96.1617 147.936 84.3035 152.176 70.1731C156.416 56.0426 154.872 40.7974 147.884 27.7911C147.696 27.4425 147.48 27.1138 147.276 26.8044L147.265 26.789C147.152 26.6162 147.041 26.4488 146.937 26.2812L194.581 0.682484L194.582 0.684581L194.584 0.688472L194.586 0.692356L194.588 0.696241L194.59 0.700126L194.592 0.704017L194.594 0.707901L194.596 0.711786L194.598 0.715671L194.6 0.719562L194.603 0.723446L194.605 0.727338L194.607 0.731222L194.609 0.735107L194.611 0.738998L194.613 0.742883L194.615 0.746774L194.617 0.750659L194.619 0.75455L194.621 0.758435L194.623 0.762326L194.626 0.76621L194.628 0.770102L194.63 0.773986L194.632 0.777878L194.634 0.781762L194.636 0.785653L194.638 0.789545L194.64 0.793429L194.642 0.797321L194.644 0.801212L194.646 0.805096L194.649 0.808988L194.651 0.812879L194.653 0.81677L194.655 0.820662L194.657 0.824546L194.659 0.828438L194.661 0.832329L194.663 0.83622L194.665 0.840111L194.667 0.844003L194.669 0.847894L194.672 0.851785L194.674 0.855677L194.676 0.859568L194.678 0.863459L194.68 0.86735L194.682 0.871242L194.684 0.875133L194.686 0.879024L194.688 0.882916L194.69 0.886807L194.692 0.890698L194.695 0.894596L194.697 0.898488L194.699 0.902379L194.701 0.90627L194.703 0.910168L194.705 0.914059L194.707 0.917951L194.709 0.921849L194.711 0.92574L194.713 0.929631L194.715 0.933529L194.718 0.937421L194.72 0.941319L194.722 0.94521L194.724 0.949108L194.726 0.952999L194.728 0.956897L194.73 0.960795L194.732 0.964687L194.734 0.968585L194.736 0.972476L194.738 0.976374L194.741 0.980272L194.743 0.98417L194.745 0.988061L194.747 0.991959L194.749 0.995857L194.751 0.999755L194.753 1.00365L194.755 1.00755L194.757 1.01145L194.759 1.01535L194.762 1.01925L194.764 1.02314L194.766 1.02704L194.768 1.03094L194.77 1.03484L194.772 1.03874L194.774 1.04263L194.776 1.04653L194.778 1.05043L194.78 1.05433L194.782 1.05823L194.785 1.06213L194.787 1.06603L194.789 1.06993L194.791 1.07383L194.793 1.07774L194.795 1.08163L194.797 1.08553L194.799 1.08944L194.801 1.09333L194.803 1.09724L194.806 1.10114L194.808 1.10504L194.81 1.10895L194.812 1.11284L194.814 1.11675L194.816 1.12065L194.818 1.12456L194.82 1.12846L194.822 1.13236L194.824 1.13627L194.826 1.14017L194.829 1.14408L194.831 1.14798L194.833 1.15189L194.835 1.15579L194.837 1.1597L194.839 1.1636L194.841 1.1675L194.843 1.17141L194.845 1.17531L194.847 1.17922L194.85 1.18313L194.852 1.18703L194.854 1.19094L194.856 1.19484L194.858 1.19876L194.86 1.20266L194.862 1.20657L194.864 1.21048L194.866 1.21438L194.868 1.21829L194.871 1.2222L194.873 1.22611L194.875 1.23002L194.877 1.23393L194.879 1.23784L194.881 1.24175L194.883 1.24565L194.885 1.24956L194.887 1.25348L194.889 1.25739L194.892 1.2613L194.894 1.26521L194.896 1.26912L194.898 1.27303L194.9 1.27694L194.902 1.28086L194.904 1.28477L194.906 1.28868L194.908 1.29259L194.91 1.2965L194.913 1.30042L194.915 1.30433L194.917 1.30824L194.919 1.31216L194.921 1.31607L194.923 1.31998L194.925 1.3239L194.927 1.32781L194.929 1.33173L194.932 1.33564L194.934 1.33956L194.936 1.34348L194.938 1.34739L194.94 1.35131L194.942 1.35523L194.944 1.35915L194.946 1.36306L194.948 1.36698L194.95 1.37089L194.953 1.37481L194.955 1.37873L194.957 1.38265L194.959 1.38657L194.961 1.39049L194.963 1.39441L194.965 1.39833L194.967 1.40225L194.969 1.40616L194.972 1.41009L194.974 1.41401L194.976 1.41793L194.978 1.42185L194.98 1.42577L194.982 1.42969L194.984 1.43361L194.986 1.43754L194.988 1.44146L194.99 1.44538L194.993 1.4493L194.995 1.45323L194.997 1.45715L194.999 1.46107L195.001 1.465L195.003 1.46892L195.005 1.47285L195.007 1.47677L195.009 1.4807L195.012 1.48462L195.014 1.48855L195.016 1.49248L195.018 1.4964L195.02 1.50033L195.022 1.50425L195.024 1.50818L195.026 1.51211L195.028 1.51604L195.031 1.51997L195.033 1.5239L195.035 1.52782L195.037 1.53175L195.039 1.53568L195.041 1.53961L195.043 1.54354L195.045 1.54747L195.047 1.55141L195.05 1.55533L195.052 1.55926L195.054 1.56319L195.056 1.56713L195.058 1.57106L195.06 1.57499L195.062 1.57893L195.064 1.58286L195.066 1.58679L195.069 1.59072L195.071 1.59466L195.073 1.59859L195.075 1.60253L195.077 1.60646L195.079 1.6104L195.081 1.61433L195.083 1.61827L195.085 1.6222L195.088 1.62614L195.09 1.63008L195.092 1.63402L195.094 1.63795L195.096 1.64189L195.098 1.64582L195.1 1.64976L195.102 1.6537L195.105 1.65764L195.107 1.66158L195.109 1.66552L195.111 1.66946L195.113 1.6734L195.115 1.67734L195.117 1.68128L195.119 1.68522L195.121 1.68917L195.124 1.6931L195.126 1.69705L195.128 1.701L195.13 1.70493L195.132 1.70888L195.134 1.71282L195.136 1.71677L195.138 1.72071L195.141 1.72466L195.143 1.7286L195.145 1.73255L195.147 1.73649L195.149 1.74044L195.151 1.74438L195.153 1.74833L195.155 1.75228L195.157 1.75623L195.16 1.76017L195.162 1.76412L195.164 1.76807L195.166 1.77202L195.168 1.77596L195.17 1.77992L195.172 1.78387L195.174 1.78781L195.177 1.79177L195.179 1.79572L195.181 1.79967L195.183 1.80362L195.185 1.80757L195.187 1.81152L195.189 1.81548L195.191 1.81943L195.194 1.82339L195.196 1.82734L195.198 1.83129L195.2 1.83525L195.202 1.8392L195.204 1.84316L195.206 1.84711L195.208 1.85107L195.211 1.85503L195.213 1.85898L195.215 1.86294L195.217 1.8669L195.219 1.87085L195.221 1.87481L195.223 1.87877L195.225 1.88273L195.228 1.88669L195.23 1.89065L195.232 1.89461L195.234 1.89857L195.236 1.90253L195.238 1.90649L195.24 1.91045L195.242 1.91441L195.245 1.91838L195.247 1.92234L195.249 1.9263L195.251 1.93027L195.253 1.93423L195.255 1.9382L195.257 1.94216L195.26 1.94613L195.262 1.95009L195.264 1.95406L195.266 1.95802L195.268 1.96199L195.27 1.96595L195.272 1.96992L195.274 1.97389L195.277 1.97786L195.279 1.98183L195.281 1.9858L195.283 1.98976L195.285 1.99374L195.287 1.99771L195.289 2.00168L195.291 2.00565L195.294 2.00962L195.296 2.01359L195.298 2.01756L195.3 2.02153L195.302 2.02551L195.304 2.02948L195.306 2.03346L195.309 2.03743L195.311 2.04141L195.313 2.04538L195.315 2.04936L195.317 2.05333L195.319 2.05731L195.321 2.06129L195.324 2.06526L195.326 2.06924L195.328 2.07322L195.33 2.07719L195.332 2.08117L195.334 2.08515L195.336 2.08914L195.338 2.09312L195.341 2.09709L195.343 2.10108L195.345 2.10506L195.347 2.10904L195.349 2.11302L195.351 2.11701L195.353 2.12099L195.356 2.12497L195.358 2.12896L195.36 2.13294L195.362 2.13692L195.364 2.14091L195.366 2.1449L195.368 2.14888L195.371 2.15287L195.373 2.15685L195.375 2.16084L195.377 2.16483L195.379 2.16882L195.381 2.17281L195.383 2.1768L195.386 2.18079L195.388 2.18478L195.39 2.18876L195.392 2.19276L195.394 2.19675L195.396 2.20074L195.398 2.20473L195.401 2.20873L195.403 2.21272L195.405 2.21672L195.407 2.22071L195.409 2.2247L195.411 2.2287L195.413 2.23269L195.416 2.23669L195.418 2.24069L195.42 2.24468L195.422 2.2487L195.426 2.25498C202.489 14.9604 206.961 28.9408 208.581 43.3836C210.201 57.8264 208.937 72.4434 204.863 86.3849C200.788 100.326 193.985 113.314 184.847 124.593C175.71 135.873 164.422 145.218 151.638 152.087C138.854 158.956 124.83 163.21 110.382 164.604C95.933 165.997 81.3475 164.502 67.4732 160.204C53.599 155.906 40.7127 148.892 29.5635 139.57C18.4143 130.247 9.22465 118.801 2.52885 105.898Z" stroke="#70C1A0"/>
<path d="M315 61.0002C315 78.3347 311.586 95.4995 304.952 111.514C298.318 127.529 288.595 142.081 276.338 154.338C264.081 166.596 249.529 176.319 233.514 182.952C217.499 189.586 200.334 193 183 193L183 61.0002L315 61.0002Z" fill="#193F3F"/>
</svg>
