<svg width="430" height="258" viewBox="0 0 430 258" fill="none" xmlns="http://www.w3.org/2000/svg">
<circle cx="371.5" cy="58.5" r="58" stroke="#70C1A0"/>
<path d="M7.76951 176.454C3.03399 187.886 0.566093 200.129 0.501328 212.5L95.5 212.5L95.5 117.501C83.1288 117.566 70.8863 120.034 59.4537 124.77C47.8671 129.569 37.3393 136.603 28.4713 145.471C19.6033 154.339 12.5688 164.867 7.76951 176.454Z" stroke="#70C1A0"/>
<path d="M184.114 258C184.114 257.226 183.977 256.474 183.977 255.723C183.977 241.096 189.78 227.069 200.11 216.726C210.439 206.384 224.449 200.574 239.057 200.574C253.665 200.574 267.675 206.384 278.004 216.726C288.333 227.069 294.136 241.096 294.136 255.723C294.136 256.497 294.136 257.249 294.023 258H348.989C348.989 257.226 348.989 256.474 348.989 255.723C349.198 241.127 346.508 226.636 341.075 213.091C335.641 199.545 327.573 187.217 317.339 176.821C307.105 166.425 294.909 158.17 281.46 152.536C268.012 146.902 253.579 144 239 144C224.422 144 209.988 146.902 196.54 152.536C183.091 158.17 170.895 166.425 160.661 176.821C150.427 187.217 142.359 199.545 136.925 213.091C131.492 226.636 128.802 241.127 129.011 255.723C129.011 256.497 129.011 257.249 129.011 258H184.114Z" fill="#70C1A0"/>
</svg>
