<svg width="960" height="699" viewBox="0 0 960 699" fill="none" xmlns="http://www.w3.org/2000/svg">
<g opacity="0.12">
<path d="M214.16 -47.1308L-34.2734 -47.1309L-34.2735 201.246L214.16 201.246L214.16 -47.1308Z" stroke="#688595" stroke-miterlimit="10"/>
<path d="M462.589 -47.1308L214.156 -47.1309L214.156 201.246L462.589 201.246L462.589 -47.1308Z" stroke="#688595" stroke-miterlimit="10"/>
<path d="M711.023 -47.3691L462.59 -47.3691L462.59 201.008L711.023 201.008L711.023 -47.3691Z" stroke="#688595" stroke-miterlimit="10"/>
<path d="M711.023 201.008L462.59 201.008L462.59 449.385L711.023 449.385L711.023 201.008Z" stroke="#688595" stroke-miterlimit="10"/>
<path d="M959.457 -47.1308L711.023 -47.1309L711.023 201.246L959.457 201.246L959.457 -47.1308Z" stroke="#688595" stroke-miterlimit="10"/>
<path d="M959.457 201.246L711.023 201.246L711.023 449.623L959.457 449.623L959.457 201.246Z" stroke="#688595" stroke-miterlimit="10"/>
<path d="M214.159 201.246L-34.2744 201.246L-34.2745 449.623L214.159 449.623L214.159 201.246Z" stroke="#688595" stroke-miterlimit="10"/>
<path d="M462.589 201.246L214.156 201.246L214.156 449.623L462.589 449.623L462.589 201.246Z" stroke="#688595" stroke-miterlimit="10"/>
<path d="M462.477 697.874L214.282 697.874C214.285 632.166 240.355 569.141 286.775 522.625C333.195 476.109 396.174 449.9 461.897 449.746L462.477 697.874Z" stroke="#688595" stroke-miterlimit="10"/>
<path d="M958.804 201.898L711.676 273.338L887.348 448.97L958.804 201.898Z" stroke="#688595" stroke-miterlimit="10"/>
<path d="M214.82 -46.4785L286.276 200.593L461.938 24.9614L214.82 -46.4785Z" stroke="#688595" stroke-miterlimit="10"/>
<path d="M711.023 449.623L959.457 698" stroke="#688595" stroke-miterlimit="10"/>
<path d="M-34.2745 449.623L214.159 201.246" stroke="#688595" stroke-miterlimit="10"/>
<path d="M959.457 698L959.457 449.623L711.023 449.623L711.023 698L959.457 698Z" stroke="#688595" stroke-miterlimit="10"/>
<path d="M711.023 698L711.023 449.623L462.59 449.623L462.59 698L711.023 698Z" stroke="#688595" stroke-miterlimit="10"/>
<path d="M462.59 697.988L462.59 449.611L214.157 449.611L214.157 697.988L462.59 697.988Z" stroke="#688595" stroke-miterlimit="10"/>
<path d="M214.156 697.988L214.156 449.611L-34.2771 449.611L-34.2771 697.988L214.156 697.988Z" stroke="#688595" stroke-miterlimit="10"/>
</g>
</svg>
