<svg width="401" height="129" viewBox="0 0 401 129" fill="none" xmlns="http://www.w3.org/2000/svg">
<path d="M393.23 69.5463C397.966 58.1137 400.434 45.8712 400.499 33.5L305.5 33.5V128.499C317.871 128.434 330.114 125.966 341.546 121.23C353.133 116.431 363.661 109.397 372.529 100.529C381.397 91.6607 388.431 81.1329 393.23 69.5463Z" stroke="#70C1A0"/>
<path d="M164.886 2.77064e-05C164.886 0.774213 165.023 1.52563 165.023 2.27705C165.023 16.9036 159.22 30.931 148.89 41.2736C138.561 51.6161 124.551 57.4264 109.943 57.4264C95.3351 57.4264 81.3254 51.6161 70.996 41.2736C60.6666 30.931 54.8635 16.9036 54.8635 2.27706C54.8635 1.50288 54.8635 0.751456 54.9773 3.73149e-05L0.0113578 4.21202e-05C0.0113579 0.774227 0.011358 1.52565 0.011358 2.27707C-0.198251 16.8725 2.49183 31.3641 7.92521 44.9094C13.3586 58.4547 21.4269 70.7835 31.6611 81.179C41.8952 91.5746 54.0911 99.8295 67.5398 105.464C80.9884 111.098 95.4215 114 110 114C124.578 114 139.012 111.098 152.46 105.464C165.909 99.8295 178.105 91.5746 188.339 81.179C198.573 70.7835 206.641 58.4547 212.075 44.9094C217.508 31.3641 220.198 16.8725 219.989 2.27705C219.989 1.50286 219.989 0.751442 219.989 2.28892e-05L164.886 2.77064e-05Z" fill="#70C1A0"/>
</svg>
