<svg aria-hidden="true" style="position: absolute; width: 0; height: 0; overflow: hidden;" version="1.1" xmlns="http://www.w3.org/2000/svg" xmlns:xlink="http://www.w3.org/1999/xlink">
<defs>
<symbol id="i-book" viewBox="0 0 32 32">
<path fill="none" stroke="currentColor" stroke-linejoin="round" stroke-linecap="round" stroke-miterlimit="4" stroke-width="1.2" d="M16 26.667c-0.406-0.811-1.029-1.494-1.801-1.971s-1.661-0.73-2.568-0.73h-4.272c-0.537 0-1.052-0.213-1.432-0.593s-0.593-0.895-0.593-1.432v-13.249c0-0.537 0.213-1.052 0.593-1.432s0.895-0.593 1.432-0.593h3.24c1.472 0.092 2.853 0.746 3.858 1.826s1.557 2.505 1.543 3.98v14.194z"></path>
<path fill="none" stroke="currentColor" stroke-linejoin="round" stroke-linecap="round" stroke-miterlimit="4" stroke-width="1.2" d="M16 26.667c0.406-0.811 1.029-1.494 1.801-1.971s1.661-0.73 2.568-0.73h4.272c0.537 0 1.052-0.213 1.432-0.593s0.593-0.895 0.593-1.432v-13.249c0-0.537-0.213-1.052-0.593-1.432s-0.895-0.593-1.432-0.593h-3.241c-1.472 0.092-2.853 0.746-3.858 1.826s-1.557 2.505-1.543 3.98v14.194z"></path>
</symbol>
<symbol id="i-db" viewBox="0 0 32 32">
<path fill="none" stroke="currentColor" stroke-linejoin="round" stroke-linecap="round" stroke-miterlimit="4" stroke-width="1.2" d="M22.667 12.667v-5.333c0-1.841-4.179-3.333-9.333-3.333s-9.333 1.492-9.333 3.333v10.667c0 1.841 4.179 3.333 9.333 3.333 0.932 0 1.831-0.051 2.681-0.141"></path>
<path fill="none" stroke="currentColor" stroke-linejoin="round" stroke-linecap="round" stroke-miterlimit="4" stroke-width="1.2" d="M27.381 16.62c2.603 2.603 2.603 6.825 0 9.428s-6.825 2.603-9.428 0c-2.603-2.604-2.603-6.825 0-9.428s6.825-2.604 9.428 0"></path>
<path fill="none" stroke="currentColor" stroke-linejoin="round" stroke-linecap="round" stroke-miterlimit="4" stroke-width="1.2" d="M25.63 19.852l-3.704 3.704-2.221-2.223"></path>
<path fill="none" stroke="currentColor" stroke-linejoin="round" stroke-linecap="round" stroke-miterlimit="4" stroke-width="1.2" d="M22.667 7.333c0 1.841-4.179 3.333-9.333 3.333s-9.333-1.492-9.333-3.333"></path>
<path fill="none" stroke="currentColor" stroke-linejoin="round" stroke-linecap="round" stroke-miterlimit="4" stroke-width="1.2" d="M22.667 12.667c0 1.841-4.179 3.333-9.333 3.333s-9.333-1.492-9.333-3.333"></path>
</symbol>
<symbol id="i-edit" viewBox="0 0 32 32">
<path fill="none" stroke="currentColor" stroke-linejoin="round" stroke-linecap="round" stroke-miterlimit="4" stroke-width="1.2" d="M17.333 4h-10.667c-1.473 0-2.667 1.193-2.667 2.667v18.667c0 1.473 1.193 2.667 2.667 2.667h14.896c0.707 0 1.385-0.281 1.885-0.781l3.771-3.771c0.5-0.5 0.781-1.179 0.781-1.885v-6.896"></path>
<path fill="none" stroke="currentColor" stroke-linejoin="round" stroke-linecap="round" stroke-miterlimit="4" stroke-width="1.2" d="M21.333 27.999v-5.333c0-0.736 0.597-1.333 1.333-1.333h5.333"></path>
<path fill="none" stroke="currentColor" stroke-linejoin="round" stroke-linecap="round" stroke-miterlimit="4" stroke-width="1.2" d="M12 20l4.2-0.519c0.295-0.036 0.569-0.171 0.78-0.38l10.175-10.175c1.127-1.127 1.127-2.953 0-4.081-1.127-1.127-2.953-1.127-4.081 0l-10.080 10.080c-0.204 0.204-0.336 0.468-0.377 0.755l-0.616 4.32z"></path>
</symbol>
<symbol id="i-profile" viewBox="0 0 32 32">
<path fill="none" stroke="currentColor" stroke-linejoin="round" stroke-linecap="round" stroke-miterlimit="4" stroke-width="1.2" d="M6.88 8.213c0.615-0.72 1.315-1.361 2.083-1.917"></path>
<path fill="none" stroke="currentColor" stroke-linejoin="round" stroke-linecap="round" stroke-miterlimit="4" stroke-width="1.2" d="M22.667 25.977c-1.907 1.277-4.199 2.024-6.667 2.024-1.216 0-2.388-0.184-3.493-0.52"></path>
<path fill="none" stroke="currentColor" stroke-linejoin="round" stroke-linecap="round" stroke-miterlimit="4" stroke-width="1.2" d="M8.466 25.333c-1.708-1.38-3.020-3.223-3.768-5.333"></path>
<path fill="none" stroke="currentColor" stroke-linejoin="round" stroke-linecap="round" stroke-miterlimit="4" stroke-width="1.2" d="M4.697 12c-0.444 1.253-0.697 2.595-0.697 4"></path>
<path fill="none" stroke="currentColor" stroke-linejoin="round" stroke-linecap="round" stroke-miterlimit="4" stroke-width="1.2" d="M25.951 22.667c1.285-1.908 2.049-4.193 2.049-6.667 0-6.628-5.372-12-12-12"></path>
<path fill="none" stroke="currentColor" stroke-linejoin="round" stroke-linecap="round" stroke-miterlimit="4" stroke-width="1.2" d="M18.358 10.309c1.301 1.301 1.301 3.412 0 4.715s-3.412 1.301-4.715 0c-1.303-1.301-1.301-3.412 0-4.715s3.412-1.301 4.715 0z"></path>
<path fill="none" stroke="currentColor" stroke-linejoin="round" stroke-linecap="round" stroke-miterlimit="4" stroke-width="1.2" d="M22 21.333c-0.175-0.439-0.445-0.833-0.792-1.155-0.585-0.544-1.352-0.845-2.152-0.845-1.333 0-4.779 0-6.112 0-0.8 0-1.565 0.303-2.152 0.845-0.347 0.321-0.617 0.716-0.792 1.155"></path>
</symbol>
<symbol id="i-settings" viewBox="0 0 32 32">
<path fill="none" stroke="currentColor" stroke-linejoin="round" stroke-linecap="round" stroke-miterlimit="4" stroke-width="1.2" d="M18.828 13.172c1.562 1.562 1.562 4.095 0 5.657s-4.095 1.562-5.657 0c-1.562-1.562-1.562-4.095 0-5.657s4.095-1.562 5.657 0z"></path>
<path fill="none" stroke="currentColor" stroke-linejoin="round" stroke-linecap="round" stroke-miterlimit="4" stroke-width="1.2" d="M21.573 24.967c0.671 0.671 1.76 0.671 2.431 0l0.963-0.963c0.671-0.671 0.671-1.76 0-2.431-0.509-0.509-0.659-1.273-0.379-1.937 0.029-0.071 0.059-0.141 0.087-0.213 0.244-0.621 0.849-1.021 1.516-1.021h0.089c0.949 0 1.719-0.769 1.719-1.719v-1.361c0-0.949-0.769-1.719-1.719-1.719h-0.089c-0.667 0-1.272-0.401-1.516-1.021-0.028-0.072-0.057-0.143-0.087-0.213-0.28-0.664-0.131-1.428 0.379-1.937 0.671-0.671 0.671-1.76 0-2.431l-0.963-0.963c-0.671-0.671-1.76-0.671-2.431 0-0.509 0.509-1.273 0.659-1.937 0.379-0.071-0.029-0.141-0.059-0.213-0.087-0.621-0.248-1.023-0.855-1.023-1.521v-0.089c0-0.949-0.769-1.719-1.719-1.719h-1.361c-0.951 0-1.72 0.769-1.72 1.719v0.089c0 0.667-0.401 1.272-1.021 1.516-0.072 0.029-0.143 0.057-0.213 0.088-0.664 0.28-1.428 0.131-1.937-0.379-0.671-0.671-1.76-0.671-2.431 0l-0.964 0.963c-0.671 0.671-0.671 1.76 0 2.431 0.509 0.509 0.659 1.273 0.379 1.937-0.031 0.072-0.059 0.143-0.087 0.215-0.244 0.62-0.851 1.021-1.517 1.021h-0.089c-0.949 0-1.719 0.769-1.719 1.719v1.361c0 0.951 0.769 1.72 1.719 1.72h0.089c0.667 0 1.272 0.401 1.516 1.021 0.028 0.072 0.057 0.143 0.087 0.213 0.28 0.664 0.131 1.428-0.379 1.937-0.671 0.671-0.671 1.76 0 2.431l0.963 0.963c0.671 0.671 1.76 0.671 2.431 0 0.509-0.509 1.273-0.659 1.937-0.379 0.071 0.029 0.141 0.059 0.213 0.087 0.621 0.244 1.021 0.849 1.021 1.516v0.089c0 0.949 0.769 1.719 1.719 1.719h1.361c0.949 0 1.719-0.769 1.719-1.719v-0.089c0-0.667 0.401-1.272 1.021-1.516 0.072-0.028 0.143-0.057 0.213-0.087 0.668-0.279 1.432-0.129 1.943 0.38v0z"></path>
</symbol>
<symbol id="i-support" viewBox="0 0 32 32">
<path fill="none" stroke="currentColor" stroke-linejoin="round" stroke-linecap="round" stroke-miterlimit="4" stroke-width="1.2" d="M25.333 22.666h-1.333c-0.736 0-1.333-0.597-1.333-1.333v-6.667c0-0.736 0.597-1.333 1.333-1.333h1.333c1.473 0 2.667 1.193 2.667 2.667v4c0 1.473-1.193 2.667-2.667 2.667z"></path>
<path fill="none" stroke="currentColor" stroke-linejoin="round" stroke-linecap="round" stroke-miterlimit="4" stroke-width="1.2" d="M8 22.666h-1.333c-1.473 0-2.667-1.193-2.667-2.667v-4c0-1.473 1.193-2.667 2.667-2.667h1.333c0.736 0 1.333 0.597 1.333 1.333v6.667c0 0.736-0.597 1.333-1.333 1.333z"></path>
<path fill="none" stroke="currentColor" stroke-linejoin="round" stroke-linecap="round" stroke-miterlimit="4" stroke-width="1.2" d="M24.667 13.333v-0.667c0-4.787-3.88-8.667-8.667-8.667s-8.667 3.88-8.667 8.667v0.667"></path>
<path fill="none" stroke="currentColor" stroke-linejoin="round" stroke-linecap="round" stroke-miterlimit="4" stroke-width="1.2" d="M16.833 28.333h-1.667c-0.92 0-1.667-0.747-1.667-1.667s0.747-1.667 1.667-1.667h1.667c0.92 0 1.667 0.747 1.667 1.667s-0.747 1.667-1.667 1.667z"></path>
<path fill="none" stroke="currentColor" stroke-linejoin="round" stroke-linecap="round" stroke-miterlimit="4" stroke-width="1.2" d="M18.5 26.667h2.833c1.473 0 2.667-1.193 2.667-2.667v-1.333"></path>
</symbol>
<symbol id="i-map" viewBox="0 0 32 32">
<path fill="none" stroke="currentColor" stroke-linejoin="round" stroke-linecap="round" stroke-miterlimit="4" stroke-width="1.2" d="M16.507 19.021l5.609 6.544c0.405 0.473-0.001 1.193-0.616 1.092l-5.5-0.917-5.5 0.916c-0.615 0.103-1.021-0.619-0.616-1.092l5.609-6.544c0.267-0.309 0.747-0.309 1.013 0.001z"></path>
<path fill="none" stroke="currentColor" stroke-linejoin="round" stroke-linecap="round" stroke-miterlimit="4" stroke-width="1.2" d="M9.94 18.746c-0.381-0.84-0.607-1.764-0.607-2.747 0-3.681 2.985-6.667 6.667-6.667s6.667 2.985 6.667 6.667c0 0.983-0.225 1.907-0.607 2.747"></path>
<path fill="none" stroke="currentColor" stroke-linejoin="round" stroke-linecap="round" stroke-miterlimit="4" stroke-width="1.2" d="M25.981 22.667c3.279-4.897 2.569-11.673-2.136-15.753-4.431-3.843-11.26-3.843-15.691 0-4.705 4.080-5.415 10.856-2.136 15.753"></path>
</symbol>
<symbol id="i-plan" viewBox="0 0 32 32">
<path fill="none" stroke="currentColor" stroke-linejoin="round" stroke-linecap="round" stroke-miterlimit="4" stroke-width="1.2" d="M13.333 10.667h-4"></path>
<path fill="none" stroke="currentColor" stroke-linejoin="round" stroke-linecap="round" stroke-miterlimit="4" stroke-width="1.2" d="M4 24.667v-17.333c0-0.884 0.351-1.732 0.976-2.357s1.473-0.976 2.357-0.976h0.667c0.354 0 0.693 0.14 0.943 0.391s0.391 0.589 0.391 0.943v14.667c0 0.354-0.14 0.693-0.391 0.943s-0.589 0.391-0.943 0.391h-0.667c-0.884 0-1.732 0.351-2.357 0.976s-0.976 1.473-0.976 2.357v0zM4 24.667c0 0.884 0.351 1.732 0.976 2.357s1.473 0.976 2.357 0.976h18c0.707 0 1.386-0.281 1.886-0.781s0.781-1.178 0.781-1.886v-10.667"></path>
<path fill="none" stroke="currentColor" stroke-linejoin="round" stroke-linecap="round" stroke-miterlimit="4" stroke-width="1.2" d="M19.666 16.911l-2.905 0.415c-0.102 0.015-0.206 0.006-0.305-0.026s-0.187-0.087-0.261-0.159c-0.073-0.073-0.129-0.162-0.162-0.259s-0.043-0.202-0.028-0.304c0.119-0.832 0.297-2.077 0.416-2.911 0.082-0.571 0.346-1.1 0.754-1.508l7.33-7.33c0.263-0.263 0.574-0.471 0.917-0.613s0.711-0.215 1.082-0.215 0.739 0.073 1.082 0.215c0.343 0.142 0.655 0.35 0.917 0.613v0c0.53 0.53 0.828 1.249 0.828 1.999s-0.298 1.469-0.828 1.999l-7.33 7.33c-0.408 0.408-0.937 0.673-1.508 0.754v0z"></path>
</symbol>
<symbol id="i-puzzle" viewBox="0 0 32 32">
<path fill="none" stroke="currentColor" stroke-linejoin="round" stroke-linecap="round" stroke-miterlimit="4" stroke-width="1.2" d="M28 20.892v4.293"></path>
<path fill="none" stroke="currentColor" stroke-linejoin="round" stroke-linecap="round" stroke-miterlimit="4" stroke-width="1.2" d="M27.999 9.703v4.293h0.001c-0.622-0.126-1.266-0.084-1.867 0.121v0c-1.116 0.382-1.963 1.303-2.249 2.447v0c-0.482 1.886 0.656 3.807 2.543 4.289 0.284 0.073 0.576 0.11 0.869 0.11v0c0.236-0 0.472-0.024 0.704-0.071v4.294c0 1.554-1.26 2.814-2.814 2.814-0 0-0 0-0 0l-4.293 0.001c0.126-0.622 0.084-1.266-0.121-1.867v0c-0.382-1.116-1.303-1.963-2.447-2.249v0c-1.886-0.482-3.807 0.656-4.289 2.543-0.073 0.284-0.11 0.576-0.11 0.869v0c0 0.236 0.024 0.472 0.071 0.704l-4.292-0.001c-1.554 0-2.814-1.259-2.815-2.813v-4.293c-0.232 0.047-0.468 0.070-0.704 0.071v0c-1.947-0.002-3.524-1.582-3.522-3.529 0-0.293 0.037-0.585 0.11-0.869v0c0.287-1.144 1.133-2.065 2.249-2.447v0c0.601-0.205 1.245-0.247 1.867-0.121h-0.001v-4.294c0-1.554 1.26-2.814 2.814-2.814 0 0 0 0 0 0h4.293c-0.047-0.232-0.070-0.468-0.071-0.704v0c0.002-1.947 1.582-3.524 3.529-3.522 0.293 0 0.585 0.037 0.869 0.11v0c1.144 0.287 2.064 1.134 2.447 2.249v0c0.205 0.601 0.247 1.245 0.121 1.867h4.293c1.554-0 2.815 1.26 2.815 2.814 0 0 0 0 0 0.001"></path>
</symbol>
<symbol id="i-rotate" viewBox="0 0 32 32">
<path fill="none" stroke="currentColor" stroke-linejoin="round" stroke-linecap="round" stroke-miterlimit="4" stroke-width="1.2" d="M25.984 6.184v4.715"></path>
<path fill="none" stroke="currentColor" stroke-linejoin="round" stroke-linecap="round" stroke-miterlimit="4" stroke-width="1.2" d="M25.369 10.899c-1.809-3.316-5.327-5.567-9.369-5.567-5.891 0-10.667 4.776-10.667 10.667s4.776 10.667 10.667 10.667c5.891 0 10.667-4.776 10.667-10.667"></path>
</symbol>
<symbol id="i-serving" viewBox="0 0 32 32">
<path fill="none" stroke="currentColor" stroke-linejoin="round" stroke-linecap="round" stroke-miterlimit="4" stroke-width="1.2" d="M15.667 24.666h2.721c0.505 0 0.996-0.163 1.4-0.467l2.819-2.115c0.704-0.528 1.688-0.457 2.311 0.164 0.691 0.691 0.691 1.809 0 2.499l-2.419 2.419c-0.651 0.651-1.481 1.096-2.384 1.276l-3.419 0.684c-0.677 0.135-1.377 0.119-2.048-0.049l-3.092-0.771c-0.369-0.093-0.749-0.14-1.131-0.14h-1.759"></path>
<path fill="none" stroke="currentColor" stroke-linejoin="round" stroke-linecap="round" stroke-miterlimit="4" stroke-width="1.2" d="M15.667 24.667h1.732c0.976 0 1.768-0.791 1.768-1.768v-0.353c0-0.811-0.552-1.517-1.339-1.713l-2.673-0.668c-0.435-0.109-0.881-0.164-1.329-0.164-1.081 0-2.14 0.32-3.039 0.92l-2.12 1.413"></path>
<path fill="none" stroke="currentColor" stroke-linejoin="round" stroke-linecap="round" stroke-miterlimit="4" stroke-width="1.2" d="M28 16h-21.333"></path>
<path fill="none" stroke="currentColor" stroke-linejoin="round" stroke-linecap="round" stroke-miterlimit="4" stroke-width="1.2" d="M26.667 16.001c0-5.155-4.179-9.333-9.333-9.333s-9.333 4.179-9.333 9.333"></path>
<path fill="none" stroke="currentColor" stroke-linejoin="round" stroke-linecap="round" stroke-miterlimit="4" stroke-width="1.2" d="M18.748 3.253c0.781 0.781 0.781 2.047 0 2.828s-2.047 0.781-2.828 0c-0.781-0.781-0.781-2.047 0-2.828s2.047-0.781 2.828 0z"></path>
<path fill="none" stroke="currentColor" stroke-linejoin="round" stroke-linecap="round" stroke-miterlimit="4" stroke-width="1.2" d="M7.5 29.333h-2.333c-0.644 0-1.167-0.523-1.167-1.167v-7c0-0.644 0.523-1.167 1.167-1.167h2.333c0.644 0 1.167 0.523 1.167 1.167v7c0 0.644-0.523 1.167-1.167 1.167z"></path>
</symbol>
<symbol id="i-submar" viewBox="0 0 32 32">
<path fill="none" stroke="currentColor" stroke-linejoin="round" stroke-linecap="round" stroke-miterlimit="4" stroke-width="1.2" d="M26.667 28h-21.333c-1.473 0-2.667-1.193-2.667-2.667v-1.821c0-1.473 1.193-2.667 2.667-2.667h21.333c1.473 0 2.667 1.193 2.667 2.667v1.821c0 1.473-1.193 2.667-2.667 2.667z"></path>
<path fill="none" stroke="currentColor" stroke-linejoin="round" stroke-linecap="round" stroke-miterlimit="4" stroke-width="1.2" d="M12.621 4.81c1.079 1.079 1.079 2.829 0 3.909s-2.829 1.079-3.909 0c-1.079-1.079-1.079-2.829 0-3.909s2.83-1.079 3.909 0z"></path>
<path fill="none" stroke="currentColor" stroke-linejoin="round" stroke-linecap="round" stroke-miterlimit="4" stroke-width="1.2" d="M5.418 20.845l0.879-5.283c0.213-1.287 1.327-2.229 2.631-2.229h3.505c1.293 0 2.4 0.928 2.625 2.201l0.943 5.311"></path>
<path fill="none" stroke="currentColor" stroke-linejoin="round" stroke-linecap="round" stroke-miterlimit="4" stroke-width="1.2" d="M19.577 20.845v-6.179c0-0.736 0.597-1.333 1.333-1.333h4.423c0.736 0 1.333 0.597 1.333 1.333v6.179"></path>
</symbol>
<symbol id="i-text" viewBox="0 0 32 32">
<path fill="none" stroke="currentColor" stroke-linejoin="round" stroke-linecap="round" stroke-miterlimit="4" stroke-width="1.2" d="M9.333 22.667h5.333"></path>
<path fill="none" stroke="currentColor" stroke-linejoin="round" stroke-linecap="round" stroke-miterlimit="4" stroke-width="1.2" d="M23.333 20.75l-2.501 2.501-1.499-1.5"></path>
<path fill="none" stroke="currentColor" stroke-linejoin="round" stroke-linecap="round" stroke-miterlimit="4" stroke-width="1.2" d="M24 4h-16c-2.209 0-4 1.791-4 4v16c0 2.209 1.791 4 4 4h16c2.209 0 4-1.791 4-4v-16c0-2.209-1.791-4-4-4z"></path>
<path fill="none" stroke="currentColor" stroke-linejoin="round" stroke-linecap="round" stroke-miterlimit="4" stroke-width="1.2" d="M20 18h-10.667"></path>
<path fill="none" stroke="currentColor" stroke-linejoin="round" stroke-linecap="round" stroke-miterlimit="4" stroke-width="1.2" d="M22 9.333h-12c-0.368 0-0.667 0.298-0.667 0.667v2.667c0 0.368 0.298 0.667 0.667 0.667h12c0.368 0 0.667-0.298 0.667-0.667v-2.667c0-0.368-0.298-0.667-0.667-0.667z"></path>
</symbol>
<symbol id="i-user" viewBox="0 0 32 32">
<path fill="none" stroke="currentColor" stroke-linejoin="round" stroke-linecap="round" stroke-miterlimit="4" stroke-width="1.2" d="M7.333 16.333c0.005-0.658 0.205-1.3 0.574-1.845s0.892-0.968 1.501-1.217c0.609-0.248 1.279-0.311 1.924-0.179s1.236 0.451 1.7 0.918c0.464 0.467 0.779 1.061 0.905 1.707s0.059 1.315-0.194 1.922c-0.253 0.608-0.68 1.127-1.228 1.492s-1.191 0.56-1.849 0.56c-0.44-0.001-0.875-0.089-1.28-0.258s-0.774-0.417-1.083-0.729c-0.31-0.312-0.555-0.682-0.721-1.089s-0.251-0.843-0.249-1.282z"></path>
<path fill="none" stroke="currentColor" stroke-linejoin="round" stroke-linecap="round" stroke-miterlimit="4" stroke-width="1.2" d="M18.667 13c-0.066-0-0.131 0.019-0.186 0.055s-0.098 0.088-0.124 0.149-0.032 0.128-0.020 0.193c0.013 0.065 0.044 0.124 0.091 0.171s0.106 0.079 0.171 0.092c0.065 0.013 0.132 0.006 0.193-0.019s0.113-0.068 0.15-0.123 0.056-0.119 0.056-0.185c0-0.044-0.008-0.087-0.025-0.128s-0.041-0.077-0.072-0.108c-0.031-0.031-0.067-0.056-0.108-0.072s-0.084-0.025-0.127-0.025z"></path>
<path fill="none" stroke="currentColor" stroke-linejoin="round" stroke-linecap="round" stroke-miterlimit="4" stroke-width="1.2" d="M22.816 13c-0.066-0-0.131 0.019-0.186 0.055s-0.098 0.088-0.124 0.149-0.032 0.128-0.020 0.193c0.013 0.065 0.044 0.124 0.091 0.171s0.106 0.079 0.171 0.092c0.065 0.013 0.132 0.006 0.193-0.019s0.113-0.068 0.15-0.123 0.056-0.119 0.056-0.185c0-0.044-0.008-0.087-0.025-0.128s-0.041-0.077-0.072-0.108c-0.031-0.031-0.068-0.056-0.108-0.072s-0.084-0.025-0.127-0.025"></path>
<path fill="none" stroke="currentColor" stroke-linejoin="round" stroke-linecap="round" stroke-miterlimit="4" stroke-width="1.2" d="M4 27.167v-0.833c0.003-0.883 0.355-1.73 0.979-2.354s1.471-0.977 2.354-0.979h6.667c0.883 0.003 1.73 0.355 2.354 0.979s0.977 1.471 0.979 2.354v0.833c-0.001 0.221-0.089 0.432-0.245 0.589s-0.368 0.244-0.589 0.245h-11.667c-0.221-0.001-0.432-0.089-0.589-0.245s-0.244-0.368-0.245-0.589v0z"></path>
<path fill="none" stroke="currentColor" stroke-linejoin="round" stroke-linecap="round" stroke-miterlimit="4" stroke-width="1.2" d="M11.036 8c0.852-1.22 1.985-2.218 3.302-2.911s2.781-1.060 4.27-1.072c1.488-0.011 2.958 0.334 4.285 1.007s2.475 1.654 3.346 2.861c0.871 1.207 1.44 2.605 1.66 4.077s0.084 2.975-0.396 4.384c-0.48 1.409-1.291 2.682-2.364 3.714s-2.378 1.791-3.804 2.215"></path>
</symbol>
<symbol id="i-calc" viewBox="0 0 32 32">
<path fill="none" stroke="currentColor" stroke-linejoin="round" stroke-linecap="round" stroke-miterlimit="4" stroke-width="1.2" d="M28 15.333v11.333c0 0.736-0.597 1.333-1.333 1.333h-8c-0.736 0-1.333-0.597-1.333-1.333v0-11.333c0-0.736 0.597-1.333 1.333-1.333h8c0.736 0 1.333 0.597 1.333 1.333 0 0 0 0 0 0v0z"></path>
<path fill="none" stroke="currentColor" stroke-linejoin="round" stroke-linecap="round" stroke-miterlimit="4" stroke-width="1.2" d="M28 18.667h-10.667"></path>
<path fill="none" stroke="currentColor" stroke-linejoin="round" stroke-linecap="round" stroke-miterlimit="4" stroke-width="1.2" d="M8.667 9.333h11.333"></path>
<path fill="none" stroke="currentColor" stroke-linejoin="round" stroke-linecap="round" stroke-miterlimit="4" stroke-width="1.2" d="M8.667 14h3.333"></path>
<path fill="none" stroke="currentColor" stroke-linejoin="round" stroke-linecap="round" stroke-miterlimit="4" stroke-width="1.2" d="M8.667 18.667h3.333"></path>
<path fill="none" stroke="currentColor" stroke-linejoin="round" stroke-linecap="round" stroke-miterlimit="4" stroke-width="1.2" d="M13.333 24h-6.667c-1.473 0-2.667-1.194-2.667-2.667v-14.667c0-1.473 1.194-2.667 2.667-2.667h16c1.473 0 2.667 1.194 2.667 2.667v4"></path>
<path fill="none" stroke="currentColor" stroke-linejoin="round" stroke-linecap="round" stroke-miterlimit="4" stroke-width="1.2" d="M21 21.6v0c-0.037 0-0.067 0.030-0.067 0.067s0.030 0.067 0.067 0.067c0.037 0 0.067-0.030 0.067-0.067v0c0-0.037-0.030-0.067-0.067-0.067v0"></path>
<path fill="none" stroke="currentColor" stroke-linejoin="round" stroke-linecap="round" stroke-miterlimit="4" stroke-width="1.2" d="M24.333 21.6v0c-0.037 0-0.067 0.030-0.067 0.067s0.030 0.067 0.067 0.067 0.067-0.030 0.067-0.067v0c0-0.037-0.030-0.067-0.067-0.067"></path>
<path fill="none" stroke="currentColor" stroke-linejoin="round" stroke-linecap="round" stroke-miterlimit="4" stroke-width="1.2" d="M21 24.933v0c-0.037 0-0.067 0.030-0.067 0.067s0.030 0.067 0.067 0.067c0.037 0 0.067-0.030 0.067-0.067v0c0-0.037-0.030-0.067-0.067-0.067v0"></path>
<path fill="none" stroke="currentColor" stroke-linejoin="round" stroke-linecap="round" stroke-miterlimit="4" stroke-width="1.2" d="M24.333 24.933v0c-0.037 0-0.067 0.030-0.067 0.067s0.030 0.067 0.067 0.067 0.067-0.030 0.067-0.067v0c0-0.037-0.030-0.067-0.067-0.067"></path>
</symbol>
<symbol id="i-call" viewBox="0 0 32 32">
<path fill="none" stroke="currentColor" stroke-linejoin="round" stroke-linecap="round" stroke-miterlimit="4" stroke-width="1.2" d="M13.508 18.492c-1.56-1.56-2.736-3.307-3.517-5.079-0.164-0.375-0.068-0.813 0.221-1.103l1.092-1.092c0.895-0.895 0.895-2.16 0.113-2.941l-1.564-1.564c-1.041-1.041-2.729-1.041-3.771 0l-0.869 0.868c-0.988 0.988-1.4 2.413-1.133 3.827 0.659 3.484 2.683 7.299 5.948 10.564s7.080 5.289 10.564 5.948c1.413 0.267 2.839-0.145 3.827-1.133l0.868-0.868c1.041-1.041 1.041-2.729 0-3.771l-1.564-1.564c-0.781-0.781-2.048-0.781-2.828 0l-1.204 1.205c-0.289 0.289-0.728 0.387-1.103 0.221-1.772-0.783-3.52-1.96-5.080-3.519z"></path>
<path fill="none" stroke="currentColor" stroke-linejoin="round" stroke-linecap="round" stroke-miterlimit="4" stroke-width="1.2" d="M20 4v8h8"></path>
<path fill="none" stroke="currentColor" stroke-linejoin="round" stroke-linecap="round" stroke-miterlimit="4" stroke-width="1.2" d="M28 4l-8 8"></path>
</symbol>
<symbol id="i-call-t" viewBox="0 0 32 32">
<path fill="none" stroke="currentColor" stroke-linejoin="round" stroke-linecap="round" stroke-miterlimit="4" stroke-width="1.2" d="M13.508 18.492c-1.56-1.56-2.736-3.307-3.517-5.079-0.164-0.375-0.068-0.813 0.221-1.103l1.092-1.092c0.895-0.895 0.895-2.16 0.113-2.941l-1.564-1.564c-1.041-1.041-2.729-1.041-3.771 0l-0.869 0.868c-0.988 0.988-1.4 2.413-1.133 3.827 0.659 3.484 2.683 7.299 5.948 10.564s7.080 5.289 10.564 5.948c1.413 0.267 2.839-0.145 3.827-1.133l0.868-0.868c1.041-1.041 1.041-2.729 0-3.771l-1.564-1.564c-0.781-0.781-2.048-0.781-2.828 0l-1.204 1.205c-0.289 0.289-0.728 0.387-1.103 0.221-1.772-0.783-3.52-1.96-5.080-3.519z"></path>
<path fill="none" stroke="currentColor" stroke-linejoin="round" stroke-linecap="round" stroke-miterlimit="4" stroke-width="1.2" d="M24.158 9.333h-2v-2"></path>
<path fill="none" stroke="currentColor" stroke-linejoin="round" stroke-linecap="round" stroke-miterlimit="4" stroke-width="1.2" d="M26.438 5.562c2.083 2.083 2.083 5.46 0 7.542s-5.46 2.083-7.542 0c-2.083-2.083-2.083-5.46 0-7.542s5.46-2.083 7.542 0"></path>
</symbol>
<symbol id="i-check" viewBox="0 0 32 32">
<path fill="none" stroke="currentColor" stroke-linejoin="round" stroke-linecap="round" stroke-miterlimit="4" stroke-width="1.2" d="M12.643 26.322c0.393-0.052 0.791 0.055 1.104 0.296l1.444 1.108c0.477 0.367 1.141 0.367 1.617 0l1.499-1.151c0.28-0.215 0.633-0.309 0.983-0.263l1.875 0.247c0.596 0.079 1.171-0.253 1.401-0.809l0.721-1.744c0.135-0.327 0.393-0.585 0.72-0.72l1.744-0.721c0.556-0.229 0.888-0.805 0.809-1.401l-0.237-1.807c-0.052-0.393 0.055-0.791 0.296-1.104l1.108-1.444c0.367-0.477 0.367-1.141 0-1.617l-1.151-1.499c-0.215-0.28-0.309-0.633-0.263-0.983l0.247-1.875c0.079-0.596-0.253-1.171-0.809-1.401l-1.744-0.721c-0.327-0.135-0.585-0.393-0.72-0.72l-0.721-1.744c-0.229-0.556-0.805-0.888-1.401-0.809l-1.875 0.247c-0.349 0.048-0.703-0.047-0.981-0.26l-1.499-1.151c-0.477-0.367-1.141-0.367-1.617 0l-1.499 1.151c-0.28 0.213-0.633 0.308-0.983 0.263l-1.875-0.247c-0.596-0.079-1.171 0.253-1.401 0.809l-0.72 1.744c-0.136 0.325-0.395 0.584-0.72 0.72l-1.744 0.72c-0.556 0.231-0.888 0.805-0.809 1.401l0.247 1.875c0.045 0.349-0.049 0.703-0.263 0.981l-1.151 1.499c-0.367 0.477-0.367 1.141 0 1.617l1.151 1.499c0.215 0.28 0.309 0.633 0.263 0.983l-0.247 1.875c-0.079 0.596 0.253 1.171 0.809 1.401l1.744 0.721c0.327 0.135 0.585 0.393 0.72 0.72l0.721 1.744c0.229 0.556 0.805 0.888 1.401 0.809l1.805-0.239"></path>
<path fill="none" stroke="currentColor" stroke-linejoin="round" stroke-linecap="round" stroke-miterlimit="4" stroke-width="1.2" d="M19.732 14.134l-4.668 4.668-2.799-2.8"></path>
</symbol>
<symbol id="i-circle" viewBox="0 0 32 32">
<path fill="none" stroke="currentColor" stroke-linejoin="round" stroke-linecap="round" stroke-miterlimit="4" stroke-width="1.2" d="M25.428 6.572c5.207 5.207 5.207 13.649 0 18.856s-13.649 5.207-18.856 0c-5.207-5.207-5.207-13.649 0-18.856s13.649-5.207 18.856 0"></path>
<path fill="none" stroke="currentColor" stroke-linejoin="round" stroke-linecap="round" stroke-miterlimit="4" stroke-width="1.2" d="M12.868 19.128c2.911 2.912 6.599 4.768 8.792 2.584l0.532-0.532c0.709-0.708 0.611-1.881-0.213-2.453-0.519-0.361-1.076-0.749-1.692-1.183-0.637-0.448-1.511-0.377-2.064 0.171l-0.601 0.597c-0.745-0.472-1.483-1.079-2.168-1.763l-0.003-0.003c-0.684-0.684-1.291-1.423-1.763-2.168l0.597-0.601c0.549-0.552 0.617-1.427 0.171-2.064-0.435-0.616-0.823-1.173-1.183-1.692-0.572-0.823-1.745-0.921-2.453-0.213l-0.532 0.532c-2.183 2.193-0.328 5.879 2.583 8.792"></path>
</symbol>
<symbol id="i-clap" viewBox="0 0 32 32">
<path fill="none" stroke="currentColor" stroke-linejoin="round" stroke-linecap="round" stroke-miterlimit="4" stroke-width="1.2" d="M23.186 2.347l-1.44 1.44"></path>
<path fill="none" stroke="currentColor" stroke-linejoin="round" stroke-linecap="round" stroke-miterlimit="4" stroke-width="1.2" d="M11.080 2.347l1.333 1.333"></path>
<path fill="none" stroke="currentColor" stroke-linejoin="round" stroke-linecap="round" stroke-miterlimit="4" stroke-width="1.2" d="M17.133 1.333v1.88"></path>
<path fill="none" stroke="currentColor" stroke-linejoin="round" stroke-linecap="round" stroke-miterlimit="4" stroke-width="1.2" d="M19.443 30.061c2.812 0.339 5.744-0.563 7.901-2.721 2.259-2.259 3.239-5.497 2.613-8.629l-1.656-8.277c-0.193-0.968-1.044-1.665-2.032-1.665-1.144 0-2.072 0.928-2.072 2.072v1.977"></path>
<path fill="none" stroke="currentColor" stroke-linejoin="round" stroke-linecap="round" stroke-miterlimit="4" stroke-width="1.2" d="M20.493 10.719l-2.424-2.424c-0.781-0.781-2.048-0.781-2.828 0-0.781 0.781-0.781 2.048 0 2.828"></path>
<path fill="none" stroke="currentColor" stroke-linejoin="round" stroke-linecap="round" stroke-miterlimit="4" stroke-width="1.2" d="M9.043 10.583c-0.781-0.781-0.781-2.048 0-2.828 0.781-0.781 2.048-0.781 2.828 0l8.013 8.013v-3.585c0-1.144 0.928-2.072 2.072-2.072 0.988 0 1.839 0.697 2.032 1.665l1.492 7.463c0.627 3.132-0.353 6.371-2.613 8.629-3.731 3.731-9.78 3.731-13.511 0l-6.913-6.915c-0.781-0.781-0.781-2.048 0-2.828 0.781-0.781 2.048-0.781 2.828 0"></path>
<path fill="none" stroke="currentColor" stroke-linejoin="round" stroke-linecap="round" stroke-miterlimit="4" stroke-width="1.2" d="M9.515 22.369l-6.128-6.128c-0.781-0.781-0.781-2.048 0-2.828 0.781-0.781 2.048-0.781 2.828 0"></path>
<path fill="none" stroke="currentColor" stroke-linejoin="round" stroke-linecap="round" stroke-miterlimit="4" stroke-width="1.2" d="M12.343 19.538l-8.013-8.013c-0.781-0.781-0.781-2.048 0-2.828 0.781-0.781 2.048-0.781 2.828 0l8.013 8.013"></path>
</symbol>
<symbol id="i-coins" viewBox="0 0 32 32">
<path fill="none" stroke="currentColor" stroke-linejoin="round" stroke-linecap="round" stroke-miterlimit="4" stroke-width="1.2" d="M4.001 12c0 1.473 2.984 2.667 6.667 2.667"></path>
<path fill="none" stroke="currentColor" stroke-linejoin="round" stroke-linecap="round" stroke-miterlimit="4" stroke-width="1.2" d="M10.667 19.999c-3.681 0-6.665-1.193-6.665-2.667"></path>
<path fill="none" stroke="currentColor" stroke-linejoin="round" stroke-linecap="round" stroke-miterlimit="4" stroke-width="1.2" d="M17.332 6.667h0.001v4"></path>
<path fill="none" stroke="currentColor" stroke-linejoin="round" stroke-linecap="round" stroke-miterlimit="4" stroke-width="1.2" d="M14.668 21.333c0 1.473 2.984 2.667 6.667 2.667s6.667-1.193 6.667-2.667"></path>
<path fill="none" stroke="currentColor" stroke-linejoin="round" stroke-linecap="round" stroke-miterlimit="4" stroke-width="1.2" d="M14.668 16c0 1.473 2.984 2.667 6.667 2.667s6.667-1.193 6.667-2.667"></path>
<path fill="none" stroke="currentColor" stroke-linejoin="round" stroke-linecap="round" stroke-miterlimit="4" stroke-width="1.2" d="M21.333 13.333c-3.68 0-6.667 1.193-6.664 2.667"></path>
<path fill="none" stroke="currentColor" stroke-linejoin="round" stroke-linecap="round" stroke-miterlimit="4" stroke-width="1.2" d="M14.668 16v10.667c0 1.473 2.984 2.667 6.667 2.667"></path>
<path fill="none" stroke="currentColor" stroke-linejoin="round" stroke-linecap="round" stroke-miterlimit="4" stroke-width="1.2" d="M21.333 13.333c3.68 0 6.667 1.193 6.664 2.667"></path>
<path fill="none" stroke="currentColor" stroke-linejoin="round" stroke-linecap="round" stroke-miterlimit="4" stroke-width="1.2" d="M28 16v10.667c0 1.473-2.984 2.667-6.667 2.667"></path>
<path fill="none" stroke="currentColor" stroke-linejoin="round" stroke-linecap="round" stroke-miterlimit="4" stroke-width="1.2" d="M10.667 25.334c-3.681 0-6.667-1.193-6.667-2.667"></path>
<path fill="none" stroke="currentColor" stroke-linejoin="round" stroke-linecap="round" stroke-miterlimit="4" stroke-width="1.2" d="M10.667 9.333c3.682 0 6.667-1.194 6.667-2.667s-2.985-2.667-6.667-2.667c-3.682 0-6.667 1.194-6.667 2.667s2.985 2.667 6.667 2.667z"></path>
<path fill="none" stroke="currentColor" stroke-linejoin="round" stroke-linecap="round" stroke-miterlimit="4" stroke-width="1.2" d="M4 6.667v16"></path>
</symbol>
<symbol id="i-hours" viewBox="0 0 32 32">
<path fill="none" stroke="currentColor" stroke-linejoin="round" stroke-linecap="round" stroke-miterlimit="4" stroke-width="1.2" d="M10.177 14.301c0-1.085 0.88-1.965 1.965-1.965s1.965 0.88 1.965 1.965c0 2.456-3.931 2.456-3.931 5.365h3.931"></path>
<path fill="none" stroke="currentColor" stroke-linejoin="round" stroke-linecap="round" stroke-miterlimit="4" stroke-width="1.2" d="M20.709 19.667c0 0 0-1.165 0-1.673h-3.152c-0.565 0-0.921-0.608-0.637-1.097 0.788-1.356 1.7-2.891 2.536-4.243 0.359-0.581 1.253-0.32 1.253 0.363v4.977"></path>
<path fill="none" stroke="currentColor" stroke-linejoin="round" stroke-linecap="round" stroke-miterlimit="4" stroke-width="1.2" d="M27.232 6.405v3.857"></path>
<path fill="none" stroke="currentColor" stroke-linejoin="round" stroke-linecap="round" stroke-miterlimit="4" stroke-width="1.2" d="M26.54 10.261c-2.035-3.729-5.991-6.261-10.54-6.261-6.628 0-12 5.373-12 12s5.372 12 12 12c6.628 0 12-5.373 12-12"></path>
</symbol>
<symbol id="i-iphone" viewBox="0 0 32 32">
<path fill="none" stroke="currentColor" stroke-linejoin="round" stroke-linecap="round" stroke-miterlimit="4" stroke-width="1.2" d="M21.333 28h-10.667c-1.473 0-2.667-1.193-2.667-2.667v-18.667c0-1.473 1.193-2.667 2.667-2.667h10.667c1.473 0 2.667 1.193 2.667 2.667v18.667c0 1.473-1.193 2.667-2.667 2.667z"></path>
<path fill="none" stroke="currentColor" stroke-linejoin="round" stroke-linecap="round" stroke-miterlimit="4" stroke-width="1.2" d="M14.333 8h3.333"></path>
<path fill="currentColor" d="M17.333 23.333c0 0.736-0.597 1.333-1.333 1.333s-1.333-0.597-1.333-1.333c0-0.736 0.597-1.333 1.333-1.333s1.333 0.597 1.333 1.333z"></path>
</symbol>
<symbol id="i-label" viewBox="0 0 32 32">
<path fill="none" stroke="currentColor" stroke-linejoin="round" stroke-linecap="round" stroke-miterlimit="4" stroke-width="1.2" d="M8.653 8.717l-4.095 5.733c-0.663 0.927-0.663 2.173 0 3.1l4.095 5.733c0.5 0.7 1.308 1.116 2.169 1.116h14.511c1.473 0 2.667-1.193 2.667-2.667v-11.467c0-1.473-1.193-2.667-2.667-2.667h-14.511c-0.861 0-1.669 0.416-2.169 1.117v0z"></path>
<path fill="none" stroke="currentColor" stroke-linejoin="round" stroke-linecap="round" stroke-miterlimit="4" stroke-width="1.2" d="M14.097 14.303c0.937 0.937 0.937 2.457 0 3.394s-2.457 0.937-3.394 0-0.937-2.457 0-3.394c0.937-0.937 2.457-0.937 3.394 0z"></path>
</symbol>
<symbol id="i-suitcase" viewBox="0 0 32 32">
<path fill="none" stroke="currentColor" stroke-linejoin="round" stroke-linecap="round" stroke-miterlimit="4" stroke-width="1.2" d="M25.333 28.001h-18.667c-1.473 0-2.667-1.194-2.667-2.667v-12c0-1.473 1.194-2.667 2.667-2.667h18.667c1.473 0 2.667 1.194 2.667 2.667v12c0 1.473-1.194 2.667-2.667 2.667 0 0 0 0 0 0v0z"></path>
<path fill="none" stroke="currentColor" stroke-linejoin="round" stroke-linecap="round" stroke-miterlimit="4" stroke-width="1.2" d="M21.333 27.999v-20c0-1.473-1.194-2.667-2.667-2.667h-5.333c-1.473 0-2.667 1.194-2.667 2.667v0 20"></path>
</symbol>
<symbol id="i-shield" viewBox="0 0 32 32">
<path fill="none" stroke="currentColor" stroke-linejoin="round" stroke-linecap="round" stroke-miterlimit="4" stroke-width="1.2" d="M13.333 16l2 2 4-4"></path>
<path fill="none" stroke="currentColor" stroke-linejoin="round" stroke-linecap="round" stroke-miterlimit="4" stroke-width="1.2" d="M4.667 14.356c0 2.882 0.88 5.694 2.522 8.062s3.968 4.177 6.667 5.187l0.040 0.015c1.357 0.507 2.851 0.507 4.208-0.001l0.032-0.012c2.701-1.012 5.029-2.825 6.673-5.196s2.524-5.187 2.524-8.072v-4.964c0-0.568-0.182-1.122-0.518-1.58s-0.811-0.796-1.353-0.966l-8.667-2.707c-0.518-0.162-1.072-0.162-1.59 0l-8.667 2.707c-0.543 0.169-1.017 0.508-1.353 0.966s-0.518 1.011-0.518 1.58v4.982z"></path>
</symbol>
<symbol id="i-mess" viewBox="0 0 32 32">
<path fill="none" stroke="currentColor" stroke-linejoin="round" stroke-linecap="round" stroke-miterlimit="4" stroke-width="1.2" d="M20 25.334h-5.333c-1.473 0-2.667-1.193-2.667-2.667v-7.333c0-1.473 1.193-2.667 2.667-2.667h10.667c1.473 0 2.667 1.193 2.667 2.667v7.333c0 1.473-1.193 2.667-2.667 2.667h-1.333v2.667l-4-2.667z"></path>
<path fill="none" stroke="currentColor" stroke-linejoin="round" stroke-linecap="round" stroke-miterlimit="4" stroke-width="1.2" d="M23.479 12.667v-5.42c0-1.793-1.453-3.247-3.247-3.247h-12.985c-1.793 0-3.247 1.453-3.247 3.247v8.928c0 1.793 1.453 3.247 3.247 3.247h1.623v3.245l3.131-2.087"></path>
</symbol>
<symbol id="i-magnet" viewBox="0 0 32 32">
<path fill="none" stroke="currentColor" stroke-linejoin="round" stroke-linecap="round" stroke-miterlimit="4" stroke-width="1.2" d="M12 27.999v-2.667"></path>
<path fill="none" stroke="currentColor" stroke-linejoin="round" stroke-linecap="round" stroke-miterlimit="4" stroke-width="1.2" d="M6 26l2-2"></path>
<path fill="none" stroke="currentColor" stroke-linejoin="round" stroke-linecap="round" stroke-miterlimit="4" stroke-width="1.2" d="M14 14l-4-4"></path>
<path fill="none" stroke="currentColor" stroke-linejoin="round" stroke-linecap="round" stroke-miterlimit="4" stroke-width="1.2" d="M18 18l4 4"></path>
<path fill="none" stroke="currentColor" stroke-linejoin="round" stroke-linecap="round" stroke-miterlimit="4" stroke-width="1.2" d="M4 20h2.667"></path>
<path fill="none" stroke="currentColor" stroke-linejoin="round" stroke-linecap="round" stroke-miterlimit="4" stroke-width="1.2" d="M7.791 14.095l2.114 2.114c0.25 0.25 0.589 0.391 0.943 0.391s0.693-0.14 0.943-0.391l5.724-5.724c0.263-0.263 0.574-0.471 0.918-0.613s0.711-0.215 1.082-0.215 0.739 0.073 1.082 0.215c0.343 0.142 0.655 0.35 0.918 0.613v0c0.263 0.263 0.471 0.574 0.613 0.918s0.215 0.711 0.215 1.082-0.073 0.739-0.215 1.082c-0.142 0.343-0.35 0.655-0.613 0.918l-5.724 5.724c-0.25 0.25-0.391 0.589-0.391 0.943s0.14 0.693 0.391 0.943l2.114 2.114c0.25 0.25 0.589 0.391 0.943 0.391s0.693-0.14 0.943-0.391l5.724-5.724c1.591-1.591 2.485-3.75 2.485-6s-0.894-4.409-2.485-6v0c-1.591-1.591-3.75-2.485-6-2.485s-4.409 0.894-6 2.485l-5.724 5.724c-0.25 0.25-0.39 0.589-0.39 0.943s0.141 0.693 0.391 0.943z"></path>
</symbol>
</defs>
</svg>
