<svg width="242" height="146" viewBox="0 0 242 146" fill="none" xmlns="http://www.w3.org/2000/svg">
<rect x="0.5" y="0.5" width="145" height="145" stroke="#70C1A0"/>
<path d="M109.315 100.372C109.315 99.7571 109.206 99.1603 109.206 98.5634C109.206 86.9461 113.853 75.8046 122.126 67.5899C130.399 59.3752 141.619 54.7603 153.319 54.7603C165.018 54.7603 176.239 59.3752 184.511 67.5899C192.784 75.8046 197.432 86.9461 197.432 98.5634C197.432 99.1784 197.432 99.7752 197.341 100.372L241.363 100.372C241.363 99.7571 241.363 99.1603 241.363 98.5634C241.531 86.9708 239.376 75.4606 235.025 64.7021C230.673 53.9436 224.211 44.1513 216.015 35.8945C207.818 27.6376 198.051 21.081 187.28 16.6058C176.509 12.1305 164.949 9.82593 153.273 9.82593C141.597 9.82593 130.038 12.1305 119.267 16.6058C108.496 21.081 98.7282 27.6376 90.5316 35.8945C82.3351 44.1513 75.8732 53.9436 71.5216 64.7021C67.17 75.4606 65.0155 86.9708 65.1834 98.5634C65.1834 99.1784 65.1834 99.7752 65.1834 100.372H109.315Z" fill="#688595"/>
</svg>
