<svg width="59" height="59" viewBox="0 0 59 59" fill="none" xmlns="http://www.w3.org/2000/svg">
<path fill-rule="evenodd" clip-rule="evenodd" d="M24.426 24.9751C25.3738 24.9751 26.141 25.7414 26.141 26.6881C26.141 27.6348 25.3738 28.4012 24.426 28.4012C23.4781 28.4012 22.7109 27.6348 22.7109 26.6881C22.7109 25.7414 23.4781 24.9751 24.426 24.9751ZM30.0226 24.9751C30.9704 24.9751 31.7377 25.7414 31.7377 26.6881C31.7377 27.6348 30.9704 28.4012 30.0226 28.4012C29.0748 28.4012 28.3075 27.6348 28.3075 26.6881C28.3075 25.7414 29.0748 24.9751 30.0226 24.9751ZM35.574 24.9751C36.5219 24.9751 37.2891 25.7414 37.2891 26.6881C37.2891 27.6348 36.5219 28.4012 35.574 28.4012C34.6262 28.4012 33.859 27.6348 33.859 26.6881C33.859 25.7414 34.6262 24.9751 35.574 24.9751ZM30.0226 11C38.8237 11 46 18.1679 46 27.0037C46 31.5118 44.1044 35.6141 41.0353 38.5444C38.1918 41.2943 33.0465 44.5401 29.7518 47.0647C29.3004 45.7573 29.0296 44.3598 28.8491 42.9172C20.5444 42.3312 14 35.4338 14 27.0037C14 18.1679 21.1763 11 30.0226 11Z" fill="#193F3F"/>
</svg>
