<svg width="372" height="336" viewBox="0 0 372 336" fill="none" xmlns="http://www.w3.org/2000/svg">
<path d="M371.557 166.556V166.556C371.557 81.7491 302.807 12.9998 218.001 12.9998V12.9998L218.001 166.556L371.557 166.556Z" fill="#70C1A0"/>
<rect width="153.556" height="153.556" transform="matrix(-1 0 0 1 371.557 167)" fill="#DAE6EA"/>
<path d="M9.74023 69.0767C39.0322 34.0455 76.6946 13.3169 118.555 13.3169C174.212 13.3169 218.146 43.546 218.146 101.923C218.146 158.115 151.61 171.951 151.61 197.879V221.656H74.186L73.7679 187.109C73.7679 147.379 140.304 124.871 140.304 101.094C140.304 84.6836 123.982 80.7797 109.365 80.7797C91.3699 80.7797 69.2273 98.9172 54.9618 116.191L9.74023 69.0767ZM110.594 232.461C140.304 232.461 160.39 253.639 160.39 278.237C160.39 302.42 141.157 322.76 110.594 322.76C83.3925 322.76 62.9308 300.718 62.9308 278.237C62.889 256.662 80.4658 232.461 110.594 232.461Z" fill="#688595"/>
</svg>
