<svg width="205" height="222" viewBox="0 0 205 222" fill="none" xmlns="http://www.w3.org/2000/svg">
<circle cx="161.5" cy="177.768" r="43.5" fill="#70C1A0"/>
<path d="M85.5193 146.892C85.1925 146.371 84.7827 145.924 84.4654 145.418C78.29 135.578 76.304 123.671 78.9445 112.315C81.585 100.959 88.6357 91.0861 98.5453 84.867C108.455 78.6478 120.412 76.5923 131.786 79.1527C143.16 81.713 153.019 88.6795 159.194 98.5195C159.521 99.0403 159.838 99.5458 160.079 100.1L197.366 76.6988C197.039 76.178 196.722 75.6725 196.404 75.167C190.384 65.2586 182.441 56.6546 173.036 49.8552C163.631 43.0557 152.953 38.1965 141.621 35.5599C130.289 32.9233 118.531 32.562 107.029 34.497C95.5266 36.432 84.5105 40.6246 74.6209 46.8312C64.7313 53.0378 56.1653 61.1345 49.4211 70.6507C42.6768 80.1668 37.8888 90.9126 35.3353 102.263C32.7818 113.614 32.5138 125.343 34.5469 136.769C36.58 148.195 40.8736 159.089 47.1781 168.819C47.505 169.34 47.8222 169.845 48.1395 170.351L85.5193 146.892Z" fill="#688595"/>
</svg>
