<svg width="90" height="27" viewBox="0 0 90 27" fill="none" xmlns="http://www.w3.org/2000/svg">
<path d="M12.3748 25.0197C10.4936 25.0524 8.62485 24.7192 6.87974 24.0399C5.36055 23.4492 4.02247 22.4939 2.99207 21.2644L6.62315 18.2855C7.40776 19.1431 8.39281 19.8076 9.49654 20.2239C10.5359 20.6118 11.6406 20.8108 12.7548 20.8108C13.5046 20.846 14.2459 20.6458 14.8681 20.2402C15.1279 20.0596 15.3372 19.8197 15.4775 19.5418C15.6177 19.2639 15.6845 18.9568 15.6718 18.6479C15.679 18.367 15.6132 18.0889 15.4804 17.8389C15.3476 17.5889 15.1521 17.375 14.9117 17.2169C14.4033 16.8911 13.193 16.4834 11.2806 15.994C8.43385 15.2847 6.41658 14.3182 5.22881 13.0945C4.18134 11.9966 3.62008 10.5464 3.66503 9.05397C3.64497 7.83508 4.06046 6.64675 4.8415 5.6892C5.67743 4.6918 6.75959 3.91345 7.98843 3.42575C9.32342 2.87318 10.7627 2.59449 12.215 2.60736C13.9047 2.60043 15.5801 2.90601 17.1509 3.50759C18.6104 4.05085 19.935 4.88502 21.0385 5.95576L17.9134 9.26207C17.1026 8.53887 16.1827 7.93888 15.1852 7.48265C14.3045 7.04774 13.3345 6.8081 12.3457 6.78117C10.3172 6.78117 9.30289 7.46161 9.30289 8.82248C9.31079 9.13577 9.40004 9.44213 9.56246 9.71341C9.72488 9.9847 9.95526 10.2122 10.2324 10.3751C10.7941 10.757 12.0754 11.206 14.0766 11.7219C16.7539 12.4016 18.642 13.2995 19.741 14.4156C20.698 15.3681 21.1765 16.6339 21.1765 18.213C21.1905 19.4725 20.783 20.7027 20.0146 21.7204C19.2044 22.7828 18.1191 23.6207 16.8676 24.1498C15.4529 24.7507 13.9199 25.0475 12.3748 25.0197Z" fill="#193F3F"/>
<path d="M77.923 25.0195C76.0418 25.0522 74.1731 24.7191 72.428 24.0398C70.9088 23.449 69.5707 22.4938 68.5403 21.2642L72.1714 18.2853C72.9553 19.1426 73.9395 19.8071 75.0423 20.2237C76.0825 20.6119 77.188 20.8109 78.3031 20.8106C79.0528 20.8458 79.7942 20.6457 80.4164 20.2401C80.6757 20.0592 80.8845 19.8191 81.0244 19.5413C81.1642 19.2634 81.2306 18.9564 81.2176 18.6477C81.2252 18.3668 81.1596 18.0885 81.0268 17.8384C80.894 17.5884 80.6982 17.3746 80.4575 17.2167C79.9508 16.8909 78.7404 16.4833 76.8264 15.9938C73.9796 15.2845 71.9624 14.318 70.7746 13.0943C69.7282 11.9957 69.1672 10.546 69.2108 9.0538C69.1907 7.8323 69.609 6.64175 70.3946 5.68435C71.2251 4.68945 72.3003 3.9113 73.5221 3.4209C74.857 2.86787 76.2963 2.58916 77.7487 2.60251C79.4436 2.59551 81.1241 2.9027 82.6991 3.50742C84.1588 4.05136 85.4835 4.88634 86.5868 5.95793L83.4592 9.2619C82.6491 8.53889 81.7301 7.93891 80.7335 7.48248C79.8483 7.04562 78.8731 6.80592 77.8794 6.781C75.8509 6.781 74.8366 7.46143 74.8366 8.82231C74.8463 9.13422 74.9367 9.43881 75.0995 9.70836C75.2623 9.9779 75.4923 10.2038 75.7686 10.3656C76.3302 10.7475 77.6115 11.1964 79.6127 11.7124C82.29 12.3921 84.1782 13.29 85.2772 14.4061C86.2342 15.3586 86.7126 16.6243 86.7126 18.2034C86.7267 19.463 86.3191 20.6932 85.5507 21.7108C84.7402 22.773 83.655 23.6108 82.4038 24.1403C80.9937 24.7432 79.4649 25.0432 77.923 25.0195Z" fill="#193F3F"/>
<path d="M40.6947 16.9126C40.1664 17.7126 39.4379 18.3711 38.5765 18.8272C37.715 19.2834 36.7485 19.5225 35.7661 19.5225C34.7838 19.5225 33.8172 19.2834 32.9558 18.8272C32.0944 18.3711 31.3659 17.7126 30.8375 16.9126H24.4977C25.187 19.2874 26.6613 21.3794 28.696 22.8695C30.7306 24.3597 33.214 25.1662 35.7673 25.1662C38.3207 25.1662 40.804 24.3597 42.8387 22.8695C44.8734 21.3794 46.3477 19.2874 47.037 16.9126H40.6947Z" fill="#70C1A0"/>
<path d="M29.9176 14.0953C29.9176 14.0158 29.9031 13.9387 29.9031 13.8615C29.9031 12.3595 30.5208 10.919 31.6203 9.85695C32.7199 8.79488 34.2111 8.19821 35.7661 8.19821C37.3211 8.19821 38.8123 8.79488 39.9119 9.85695C41.0114 10.919 41.6291 12.3595 41.6291 13.8615C41.6291 13.941 41.6291 14.0182 41.617 14.0953H47.4679C47.4679 14.0158 47.4679 13.9387 47.4679 13.8615C47.4902 12.3627 47.2038 10.8746 46.6255 9.48359C46.0471 8.09262 45.1883 6.82658 44.0989 5.75906C43.0095 4.69154 41.7113 3.84384 40.2798 3.26524C38.8482 2.68663 37.3119 2.38867 35.7601 2.38867C34.2082 2.38867 32.6719 2.68663 31.2403 3.26524C29.8088 3.84384 28.5106 4.69154 27.4212 5.75906C26.3318 6.82658 25.473 8.09262 24.8946 9.48359C24.3163 10.8746 24.0299 12.3627 24.0522 13.8615C24.0522 13.941 24.0522 14.0182 24.0522 14.0953H29.9176Z" fill="#70C1A0"/>
<path d="M64.229 2.54155C52.428 1.91256 52.1012 11.2773 52.1012 11.2773V24.6055H57.8916V13.3444C57.8715 12.7066 57.9868 12.0716 58.2304 11.4784C58.4739 10.8853 58.8405 10.3466 59.3077 9.89541C59.7616 9.44935 60.3052 9.09784 60.9052 8.86258C61.5051 8.62732 62.1486 8.51329 62.7959 8.52752C63.2794 8.5277 63.7612 8.58264 64.2314 8.6912C64.6431 8.7751 65.0412 8.91194 65.4152 9.09806L66.979 2.97647C66.0757 2.76146 65.1561 2.61603 64.229 2.54155Z" fill="#193F3F"/>
</svg>
