<svg width="961" height="1408" viewBox="0 0 961 1408" fill="none" xmlns="http://www.w3.org/2000/svg">
<g opacity="0.14">
<path d="M845.505 0.560547L564.004 0.560547V281.998L845.505 281.998V0.560547Z" stroke="#688595" stroke-miterlimit="10"/>
<path d="M1127.01 0.560547L845.504 0.560547V281.998L1127.01 281.998V0.560547Z" stroke="#688595" stroke-miterlimit="10"/>
<path d="M282.501 0.560547L1 0.560547L1 281.998L282.501 281.998L282.501 0.560547Z" stroke="#688595" stroke-miterlimit="10"/>
<path d="M564.003 0.560547L282.502 0.560547L282.502 281.998L564.003 281.998V0.560547Z" stroke="#688595" stroke-miterlimit="10"/>
<path d="M845.505 281.996L564.004 281.996V563.434H845.505V281.996Z" stroke="#688595" stroke-miterlimit="10"/>
<path d="M1127.01 281.996L845.504 281.996V563.434H1127.01V281.996Z" stroke="#688595" stroke-miterlimit="10"/>
<path d="M282.501 281.996L1 281.996L1 563.434H282.501L282.501 281.996Z" stroke="#688595" stroke-miterlimit="10"/>
<path d="M564.003 281.996L282.502 281.996L282.502 563.434H564.003V281.996Z" stroke="#688595" stroke-miterlimit="10"/>
<path d="M845.505 563.435H564.004V844.872H845.505V563.435Z" stroke="#688595" stroke-miterlimit="10"/>
<path d="M1127.01 563.435H845.504V844.872H1127.01V563.435Z" stroke="#688595" stroke-miterlimit="10"/>
<path d="M282.501 563.436H1L1 844.873H282.501L282.501 563.436Z" stroke="#688595" stroke-miterlimit="10"/>
<path d="M564.003 563.435H282.502L282.502 844.872H564.003V563.435Z" stroke="#688595" stroke-miterlimit="10"/>
<path d="M845.505 844.872H564.004V1126.31H845.505V844.872Z" stroke="#688595" stroke-miterlimit="10"/>
<path d="M1127.01 844.872H845.504V1126.31H1127.01V844.872Z" stroke="#688595" stroke-miterlimit="10"/>
<path d="M282.501 844.872H1L1 1126.31H282.501L282.501 844.872Z" stroke="#688595" stroke-miterlimit="10"/>
<path d="M564.003 844.872H282.502L282.502 1126.31H564.003V844.872Z" stroke="#688595" stroke-miterlimit="10"/>
<path d="M282.502 281.996L563.722 281.996C563.728 356.455 534.191 427.875 481.59 480.586C428.99 533.298 357.623 562.996 283.148 563.164L282.502 281.996Z" stroke="#688595" stroke-miterlimit="10"/>
<path d="M1.12891 1407.61L1.12891 1126.45C75.6071 1126.47 147.038 1156.01 199.761 1208.61C252.461 1261.19 282.163 1332.52 282.36 1406.96L1.12891 1407.61Z" stroke="#688595" stroke-miterlimit="10"/>
<path d="M986.249 844.86C1063.98 844.86 1126.99 781.861 1126.99 704.147C1126.99 626.434 1063.98 563.435 986.249 563.435C908.518 563.435 845.504 626.434 845.504 704.147C845.504 781.861 908.518 844.86 986.249 844.86Z" stroke="#688595" stroke-miterlimit="10"/>
<path d="M704.749 1407.74C782.48 1407.74 845.493 1344.74 845.493 1267.02C845.493 1189.31 782.48 1126.31 704.749 1126.31C627.017 1126.31 564.004 1189.31 564.004 1267.02C564.004 1344.74 627.017 1407.74 704.749 1407.74Z" stroke="#688595" stroke-miterlimit="10"/>
<path d="M141.745 281.997C219.476 281.997 282.49 218.997 282.49 141.284C282.49 63.5701 219.476 0.570801 141.745 0.570801C64.0136 0.570801 1 63.5701 1 141.284C1 218.997 64.0136 281.997 141.745 281.997Z" stroke="#688595" stroke-miterlimit="10"/>
<path d="M563.254 845.611L283.243 926.56L482.286 1125.57L563.254 845.611Z" stroke="#688595" stroke-miterlimit="10"/>
<path d="M845.504 281.996L1126.99 563.434" stroke="#688595" stroke-miterlimit="10"/>
<path d="M282.501 844.873L1 563.436" stroke="#688595" stroke-miterlimit="10"/>
<path d="M1126.99 1407.75V1126.31H845.493V1407.75H1126.99Z" stroke="#688595" stroke-miterlimit="10"/>
<path d="M845.492 1407.75V1126.31H563.991V1407.75H845.492Z" stroke="#688595" stroke-miterlimit="10"/>
<path d="M564.004 1407.75V1126.31H282.503L282.503 1407.75H564.004Z" stroke="#688595" stroke-miterlimit="10"/>
<path d="M282.502 1407.75L282.502 1126.31H1.00064L1.00064 1407.75H282.502Z" stroke="#688595" stroke-miterlimit="10"/>
</g>
</svg>
