<svg width="959" height="853" viewBox="0 0 959 853" fill="none" xmlns="http://www.w3.org/2000/svg">
<g opacity="0.2">
<path d="M640.004 0.493958H427.002V213.447H640.004V0.493958Z" stroke="#688595" stroke-miterlimit="10"/>
<path d="M853.004 0.493958H640.003V213.447H853.004V0.493958Z" stroke="#688595" stroke-miterlimit="10"/>
<path d="M1066 0.493958H852.996V213.447H1066V0.493958Z" stroke="#688595" stroke-miterlimit="10"/>
<path d="M214.001 0.493958H1V213.447H214.001V0.493958Z" stroke="#688595" stroke-miterlimit="10"/>
<path d="M427.002 0.493958H214.001V213.447H427.002V0.493958Z" stroke="#688595" stroke-miterlimit="10"/>
<path d="M640.004 213.447H427.002V426.399H640.004V213.447Z" stroke="#688595" stroke-miterlimit="10"/>
<path d="M853.004 213.447H640.003V426.399H853.004V213.447Z" stroke="#688595" stroke-miterlimit="10"/>
<path d="M1066 213.447H852.996V426.399H1066V213.447Z" stroke="#688595" stroke-miterlimit="10"/>
<path d="M214.001 213.447H1V426.399H214.001V213.447Z" stroke="#688595" stroke-miterlimit="10"/>
<path d="M427.002 213.447H214.001V426.399H427.002V213.447Z" stroke="#688595" stroke-miterlimit="10"/>
<path d="M640.004 426.399H427.002V639.352H640.004V426.399Z" stroke="#688595" stroke-miterlimit="10"/>
<path d="M853.004 426.399H640.003V639.352H853.004V426.399Z" stroke="#688595" stroke-miterlimit="10"/>
<path d="M1066 426.399H852.996V639.352H1066V426.399Z" stroke="#688595" stroke-miterlimit="10"/>
<path d="M214.001 426.399H1V639.352H214.001V426.399Z" stroke="#688595" stroke-miterlimit="10"/>
<path d="M427.002 426.399H214.001V639.352H427.002V426.399Z" stroke="#688595" stroke-miterlimit="10"/>
<path d="M640.004 639.352H427.002V852.305H640.004V639.352Z" stroke="#688595" stroke-miterlimit="10"/>
<path d="M853.004 639.352H640.003V852.305H853.004V639.352Z" stroke="#688595" stroke-miterlimit="10"/>
<path d="M1066 639.352H852.996V852.305H1066V639.352Z" stroke="#688595" stroke-miterlimit="10"/>
<path d="M214.001 639.352H1V852.305H214.001V639.352Z" stroke="#688595" stroke-miterlimit="10"/>
<path d="M427.002 639.352H214.001V852.305H427.002V639.352Z" stroke="#688595" stroke-miterlimit="10"/>
<path d="M214.001 213.447H426.789C426.794 269.786 404.444 323.827 364.644 363.712C324.843 403.597 270.842 426.068 214.49 426.195L214.001 213.447Z" stroke="#688595" stroke-miterlimit="10"/>
<path d="M1.09766 1065.15V852.411C57.4524 852.426 111.502 874.782 151.395 914.577C191.271 954.367 213.745 1008.34 213.894 1064.66L1.09766 1065.15Z" stroke="#688595" stroke-miterlimit="10"/>
<path d="M746.499 639.343C805.315 639.343 852.995 591.674 852.995 532.871C852.995 474.068 805.315 426.399 746.499 426.399C687.683 426.399 640.003 474.068 640.003 532.871C640.003 591.674 687.683 639.343 746.499 639.343Z" stroke="#688595" stroke-miterlimit="10"/>
<path d="M533.499 1065.25C592.315 1065.25 639.995 1017.58 639.995 958.777C639.995 899.974 592.315 852.305 533.499 852.305C474.682 852.305 427.002 899.974 427.002 958.777C427.002 1017.58 474.682 1065.25 533.499 1065.25Z" stroke="#688595" stroke-miterlimit="10"/>
<path d="M107.496 213.446C166.312 213.446 213.992 165.777 213.992 106.975C213.992 48.1717 166.312 0.502625 107.496 0.502625C48.6799 0.502625 1 48.1717 1 106.975C1 165.777 48.6799 213.446 107.496 213.446Z" stroke="#688595" stroke-miterlimit="10"/>
<path d="M959.501 213.446C1018.32 213.446 1066 165.777 1066 106.975C1066 48.1717 1018.32 0.502625 959.501 0.502625C900.685 0.502625 853.005 48.1717 853.005 106.975C853.005 165.777 900.685 213.446 959.501 213.446Z" stroke="#688595" stroke-miterlimit="10"/>
<path d="M426.434 639.911L214.561 701.162L365.169 851.745L426.434 639.911Z" stroke="#688595" stroke-miterlimit="10"/>
<path d="M640.003 213.447L852.995 426.399" stroke="#688595" stroke-miterlimit="10"/>
<path d="M852.996 852.305L1066 639.352" stroke="#688595" stroke-miterlimit="10"/>
<path d="M214.001 639.352L1 426.399" stroke="#688595" stroke-miterlimit="10"/>
<path d="M852.996 1065.26V852.305H639.995V1065.26H852.996Z" stroke="#688595" stroke-miterlimit="10"/>
<path d="M639.994 1065.26V852.305H426.993V1065.26H639.994Z" stroke="#688595" stroke-miterlimit="10"/>
<path d="M427.002 1065.26V852.305H214.001V1065.26H427.002Z" stroke="#688595" stroke-miterlimit="10"/>
<path d="M214.001 1065.26V852.305H1.00017V1065.26H214.001Z" stroke="#688595" stroke-miterlimit="10"/>
<path d="M1066 1065.25V852.296H852.995V1065.25H1066Z" stroke="#688595" stroke-miterlimit="10"/>
</g>
</svg>
